# MagicaVoxel @ Ephtracy

# group
o 

# material
mtllib GroundObject_003.mtl
usemtl palette

# normals
vn -1 0 0
vn 1 0 0
vn 0 0 1
vn 0 0 -1
vn 0 -1 0
vn 0 1 0

# texcoords
vt 0.689453 0.5
vt 0.693359 0.5

# verts
v -0.9 0 0.9
v -0.9 0 0.8
v -0.9 0.1 0.9
v -0.9 0.1 0.8
v -0.7 0 0.4
v -0.7 0 0.3
v -0.7 0.1 0.4
v -0.7 0.1 0.3
v -0.6 0 -0.2
v -0.6 0 -0.3
v -0.6 0 -0.5
v -0.6 0 -0.6
v -0.6 0.1 -0.2
v -0.6 0.1 -0.3
v -0.6 0.1 -0.5
v -0.6 0.1 -0.6
v 0 0 0.7
v 0 0 0.6
v 0 0 0.2
v 0 0 0.1
v 0 0.1 0.7
v 0 0.1 0.6
v 0 0.1 0.2
v 0 0.1 0.1
v 0.1 0 -0.7
v 0.1 0 -0.8
v 0.1 0.1 -0.7
v 0.1 0.1 -0.8
v 0.4 0 -0.2
v 0.4 0 -0.3
v 0.4 0.2 -0.2
v 0.4 0.2 -0.3
v 0.7 0 0.2
v 0.7 0 0.1
v 0.7 0.1 0.2
v 0.7 0.1 0.1
v -0.8 0 0.9
v -0.8 0 0.8
v -0.8 0.1 0.9
v -0.8 0.1 0.8
v -0.6 0 0.4
v -0.6 0 0.3
v -0.6 0.1 0.4
v -0.6 0.1 0.3
v -0.5 0 -0.2
v -0.5 0 -0.3
v -0.5 0 -0.5
v -0.5 0 -0.6
v -0.5 0.1 -0.2
v -0.5 0.1 -0.3
v -0.5 0.1 -0.5
v -0.5 0.1 -0.6
v 0.1 0 0.7
v 0.1 0 0.6
v 0.1 0 0.2
v 0.1 0 0.1
v 0.1 0.1 0.7
v 0.1 0.1 0.6
v 0.1 0.1 0.2
v 0.1 0.1 0.1
v 0.2 0 -0.7
v 0.2 0 -0.8
v 0.2 0.1 -0.7
v 0.2 0.1 -0.8
v 0.5 0 -0.2
v 0.5 0 -0.3
v 0.5 0.2 -0.2
v 0.5 0.2 -0.3
v 0.8 0 0.2
v 0.8 0 0.1
v 0.8 0.1 0.2
v 0.8 0.1 0.1
v -0.9 0 0.9
v -0.9 0.1 0.9
v -0.8 0 0.9
v -0.8 0.1 0.9
v 0 0 0.7
v 0 0.1 0.7
v 0.1 0 0.7
v 0.1 0.1 0.7
v -0.7 0 0.4
v -0.7 0.1 0.4
v -0.6 0 0.4
v -0.6 0.1 0.4
v 0 0 0.2
v 0 0.1 0.2
v 0.1 0 0.2
v 0.1 0.1 0.2
v 0.7 0 0.2
v 0.7 0.1 0.2
v 0.8 0 0.2
v 0.8 0.1 0.2
v -0.6 0 -0.2
v -0.6 0.1 -0.2
v -0.5 0 -0.2
v -0.5 0.1 -0.2
v 0.4 0 -0.2
v 0.4 0.2 -0.2
v 0.5 0 -0.2
v 0.5 0.2 -0.2
v -0.6 0 -0.5
v -0.6 0.1 -0.5
v -0.5 0 -0.5
v -0.5 0.1 -0.5
v 0.1 0 -0.7
v 0.1 0.1 -0.7
v 0.2 0 -0.7
v 0.2 0.1 -0.7
v -0.9 0 0.8
v -0.9 0.1 0.8
v -0.8 0 0.8
v -0.8 0.1 0.8
v 0 0 0.6
v 0 0.1 0.6
v 0.1 0 0.6
v 0.1 0.1 0.6
v -0.7 0 0.3
v -0.7 0.1 0.3
v -0.6 0 0.3
v -0.6 0.1 0.3
v 0 0 0.1
v 0 0.1 0.1
v 0.1 0 0.1
v 0.1 0.1 0.1
v 0.7 0 0.1
v 0.7 0.1 0.1
v 0.8 0 0.1
v 0.8 0.1 0.1
v -0.6 0 -0.3
v -0.6 0.1 -0.3
v -0.5 0 -0.3
v -0.5 0.1 -0.3
v 0.4 0 -0.3
v 0.4 0.2 -0.3
v 0.5 0 -0.3
v 0.5 0.2 -0.3
v -0.6 0 -0.6
v -0.6 0.1 -0.6
v -0.5 0 -0.6
v -0.5 0.1 -0.6
v 0.1 0 -0.8
v 0.1 0.1 -0.8
v 0.2 0 -0.8
v 0.2 0.1 -0.8
v -0.9 0 0.9
v -0.8 0 0.9
v -0.9 0 0.8
v -0.8 0 0.8
v 0 0 0.7
v 0.1 0 0.7
v 0 0 0.6
v 0.1 0 0.6
v -0.7 0 0.4
v -0.6 0 0.4
v -0.7 0 0.3
v -0.6 0 0.3
v 0 0 0.2
v 0.1 0 0.2
v 0.7 0 0.2
v 0.8 0 0.2
v 0 0 0.1
v 0.1 0 0.1
v 0.7 0 0.1
v 0.8 0 0.1
v -0.6 0 -0.2
v -0.5 0 -0.2
v 0.4 0 -0.2
v 0.5 0 -0.2
v -0.6 0 -0.3
v -0.5 0 -0.3
v 0.4 0 -0.3
v 0.5 0 -0.3
v -0.6 0 -0.5
v -0.5 0 -0.5
v -0.6 0 -0.6
v -0.5 0 -0.6
v 0.1 0 -0.7
v 0.2 0 -0.7
v 0.1 0 -0.8
v 0.2 0 -0.8
v -0.9 0.1 0.9
v -0.8 0.1 0.9
v -0.9 0.1 0.8
v -0.8 0.1 0.8
v 0 0.1 0.7
v 0.1 0.1 0.7
v 0 0.1 0.6
v 0.1 0.1 0.6
v -0.7 0.1 0.4
v -0.6 0.1 0.4
v -0.7 0.1 0.3
v -0.6 0.1 0.3
v 0 0.1 0.2
v 0.1 0.1 0.2
v 0.7 0.1 0.2
v 0.8 0.1 0.2
v 0 0.1 0.1
v 0.1 0.1 0.1
v 0.7 0.1 0.1
v 0.8 0.1 0.1
v -0.6 0.1 -0.2
v -0.5 0.1 -0.2
v -0.6 0.1 -0.3
v -0.5 0.1 -0.3
v -0.6 0.1 -0.5
v -0.5 0.1 -0.5
v -0.6 0.1 -0.6
v -0.5 0.1 -0.6
v 0.1 0.1 -0.7
v 0.2 0.1 -0.7
v 0.1 0.1 -0.8
v 0.2 0.1 -0.8
v 0.4 0.2 -0.2
v 0.5 0.2 -0.2
v 0.4 0.2 -0.3
v 0.5 0.2 -0.3

# faces
f 3/2/1 2/2/1 1/2/1
f 4/2/1 2/2/1 3/2/1
f 7/1/1 6/1/1 5/1/1
f 8/1/1 6/1/1 7/1/1
f 13/2/1 10/2/1 9/2/1
f 14/2/1 10/2/1 13/2/1
f 15/1/1 12/1/1 11/1/1
f 16/1/1 12/1/1 15/1/1
f 21/1/1 18/1/1 17/1/1
f 22/1/1 18/1/1 21/1/1
f 23/2/1 20/2/1 19/2/1
f 24/2/1 20/2/1 23/2/1
f 27/1/1 26/1/1 25/1/1
f 28/1/1 26/1/1 27/1/1
f 31/1/1 30/1/1 29/1/1
f 32/1/1 30/1/1 31/1/1
f 35/2/1 34/2/1 33/2/1
f 36/2/1 34/2/1 35/2/1
f 37/2/2 38/2/2 39/2/2
f 39/2/2 38/2/2 40/2/2
f 41/1/2 42/1/2 43/1/2
f 43/1/2 42/1/2 44/1/2
f 45/2/2 46/2/2 49/2/2
f 49/2/2 46/2/2 50/2/2
f 47/1/2 48/1/2 51/1/2
f 51/1/2 48/1/2 52/1/2
f 53/1/2 54/1/2 57/1/2
f 57/1/2 54/1/2 58/1/2
f 55/2/2 56/2/2 59/2/2
f 59/2/2 56/2/2 60/2/2
f 61/1/2 62/1/2 63/1/2
f 63/1/2 62/1/2 64/1/2
f 65/1/2 66/1/2 67/1/2
f 67/1/2 66/1/2 68/1/2
f 69/2/2 70/2/2 71/2/2
f 71/2/2 70/2/2 72/2/2
f 75/2/3 74/2/3 73/2/3
f 76/2/3 74/2/3 75/2/3
f 79/1/3 78/1/3 77/1/3
f 80/1/3 78/1/3 79/1/3
f 83/1/3 82/1/3 81/1/3
f 84/1/3 82/1/3 83/1/3
f 87/2/3 86/2/3 85/2/3
f 88/2/3 86/2/3 87/2/3
f 91/2/3 90/2/3 89/2/3
f 92/2/3 90/2/3 91/2/3
f 95/2/3 94/2/3 93/2/3
f 96/2/3 94/2/3 95/2/3
f 99/1/3 98/1/3 97/1/3
f 100/1/3 98/1/3 99/1/3
f 103/1/3 102/1/3 101/1/3
f 104/1/3 102/1/3 103/1/3
f 107/1/3 106/1/3 105/1/3
f 108/1/3 106/1/3 107/1/3
f 109/2/4 110/2/4 111/2/4
f 111/2/4 110/2/4 112/2/4
f 113/1/4 114/1/4 115/1/4
f 115/1/4 114/1/4 116/1/4
f 117/1/4 118/1/4 119/1/4
f 119/1/4 118/1/4 120/1/4
f 121/2/4 122/2/4 123/2/4
f 123/2/4 122/2/4 124/2/4
f 125/2/4 126/2/4 127/2/4
f 127/2/4 126/2/4 128/2/4
f 129/2/4 130/2/4 131/2/4
f 131/2/4 130/2/4 132/2/4
f 133/1/4 134/1/4 135/1/4
f 135/1/4 134/1/4 136/1/4
f 137/1/4 138/1/4 139/1/4
f 139/1/4 138/1/4 140/1/4
f 141/1/4 142/1/4 143/1/4
f 143/1/4 142/1/4 144/1/4
f 147/2/5 146/2/5 145/2/5
f 148/2/5 146/2/5 147/2/5
f 151/1/5 150/1/5 149/1/5
f 152/1/5 150/1/5 151/1/5
f 155/1/5 154/1/5 153/1/5
f 156/1/5 154/1/5 155/1/5
f 161/2/5 158/2/5 157/2/5
f 162/2/5 158/2/5 161/2/5
f 163/2/5 160/2/5 159/2/5
f 164/2/5 160/2/5 163/2/5
f 169/2/5 166/2/5 165/2/5
f 170/2/5 166/2/5 169/2/5
f 171/1/5 168/1/5 167/1/5
f 172/1/5 168/1/5 171/1/5
f 175/1/5 174/1/5 173/1/5
f 176/1/5 174/1/5 175/1/5
f 179/1/5 178/1/5 177/1/5
f 180/1/5 178/1/5 179/1/5
f 181/2/6 182/2/6 183/2/6
f 183/2/6 182/2/6 184/2/6
f 185/1/6 186/1/6 187/1/6
f 187/1/6 186/1/6 188/1/6
f 189/1/6 190/1/6 191/1/6
f 191/1/6 190/1/6 192/1/6
f 193/2/6 194/2/6 197/2/6
f 197/2/6 194/2/6 198/2/6
f 195/2/6 196/2/6 199/2/6
f 199/2/6 196/2/6 200/2/6
f 201/2/6 202/2/6 203/2/6
f 203/2/6 202/2/6 204/2/6
f 205/1/6 206/1/6 207/1/6
f 207/1/6 206/1/6 208/1/6
f 209/1/6 210/1/6 211/1/6
f 211/1/6 210/1/6 212/1/6
f 213/1/6 214/1/6 215/1/6
f 215/1/6 214/1/6 216/1/6
