# MagicaVoxel @ Ephtracy

# group
o 

# material
mtllib GroundObject_004.mtl
usemtl palette

# normals
vn -1 0 0
vn 1 0 0
vn 0 0 1
vn 0 0 -1
vn 0 -1 0
vn 0 1 0

# texcoords
vt 0.689453 0.5
vt 0.693359 0.5

# verts
v -0.6 0 -0.1
v -0.6 0 -0.2
v -0.6 0 -0.3
v -0.6 0 -0.5
v -0.6 0.1 -0.1
v -0.6 0.1 -0.2
v -0.6 0.1 -0.5
v -0.6 0.1 -0.6
v -0.6 0.2 -0.5
v -0.6 0.2 -0.6
v -0.6 0.4 -0.3
v -0.6 0.4 -0.5
v -0.5 0 0.6
v -0.5 0 0.5
v -0.5 0.1 0.6
v -0.5 0.1 0.5
v -0.3 0 -0.3
v -0.3 0 -0.4
v -0.3 0.1 -0.3
v -0.3 0.1 -0.4
v 0.1 0 0.8
v 0.1 0 0.7
v 0.1 0 0.3
v 0.1 0 0.2
v 0.1 0.1 0.8
v 0.1 0.1 0.7
v 0.1 0.1 0.3
v 0.1 0.1 0.2
v 0.6 0 0.5
v 0.6 0 0.4
v 0.6 0.2 0.5
v 0.6 0.2 0.4
v 0.7 0 -0.6
v 0.7 0 -0.7
v 0.7 0.1 -0.6
v 0.7 0.1 -0.7
v -0.5 0 -0.1
v -0.5 0 -0.2
v -0.5 0.1 -0.1
v -0.5 0.1 -0.2
v -0.5 0.1 -0.5
v -0.5 0.1 -0.6
v -0.5 0.2 -0.5
v -0.5 0.2 -0.6
v -0.4 0 0.6
v -0.4 0 0.5
v -0.4 0 -0.3
v -0.4 0 -0.5
v -0.4 0.1 0.6
v -0.4 0.1 0.5
v -0.4 0.2 -0.4
v -0.4 0.2 -0.5
v -0.4 0.3 -0.4
v -0.4 0.3 -0.5
v -0.4 0.4 -0.3
v -0.4 0.4 -0.5
v -0.3 0.2 -0.4
v -0.3 0.2 -0.5
v -0.3 0.3 -0.4
v -0.3 0.3 -0.5
v -0.2 0 -0.3
v -0.2 0 -0.4
v -0.2 0.1 -0.3
v -0.2 0.1 -0.4
v 0.2 0 0.8
v 0.2 0 0.7
v 0.2 0 0.3
v 0.2 0 0.2
v 0.2 0.1 0.8
v 0.2 0.1 0.7
v 0.2 0.1 0.3
v 0.2 0.1 0.2
v 0.7 0 0.5
v 0.7 0 0.4
v 0.7 0.2 0.5
v 0.7 0.2 0.4
v 0.8 0 -0.6
v 0.8 0 -0.7
v 0.8 0.1 -0.6
v 0.8 0.1 -0.7
v 0.1 0 0.8
v 0.1 0.1 0.8
v 0.2 0 0.8
v 0.2 0.1 0.8
v -0.5 0 0.6
v -0.5 0.1 0.6
v -0.4 0 0.6
v -0.4 0.1 0.6
v 0.6 0 0.5
v 0.6 0.2 0.5
v 0.7 0 0.5
v 0.7 0.2 0.5
v 0.1 0 0.3
v 0.1 0.1 0.3
v 0.2 0 0.3
v 0.2 0.1 0.3
v -0.6 0 -0.1
v -0.6 0.1 -0.1
v -0.5 0 -0.1
v -0.5 0.1 -0.1
v -0.6 0 -0.3
v -0.6 0.4 -0.3
v -0.4 0 -0.3
v -0.4 0.4 -0.3
v -0.3 0 -0.3
v -0.3 0.1 -0.3
v -0.2 0 -0.3
v -0.2 0.1 -0.3
v -0.4 0.2 -0.4
v -0.4 0.3 -0.4
v -0.3 0.2 -0.4
v -0.3 0.3 -0.4
v 0.7 0 -0.6
v 0.7 0.1 -0.6
v 0.8 0 -0.6
v 0.8 0.1 -0.6
v 0.1 0 0.7
v 0.1 0.1 0.7
v 0.2 0 0.7
v 0.2 0.1 0.7
v -0.5 0 0.5
v -0.5 0.1 0.5
v -0.4 0 0.5
v -0.4 0.1 0.5
v 0.6 0 0.4
v 0.6 0.2 0.4
v 0.7 0 0.4
v 0.7 0.2 0.4
v 0.1 0 0.2
v 0.1 0.1 0.2
v 0.2 0 0.2
v 0.2 0.1 0.2
v -0.6 0 -0.2
v -0.6 0.1 -0.2
v -0.5 0 -0.2
v -0.5 0.1 -0.2
v -0.3 0 -0.4
v -0.3 0.1 -0.4
v -0.2 0 -0.4
v -0.2 0.1 -0.4
v -0.6 0 -0.5
v -0.6 0.1 -0.5
v -0.6 0.2 -0.5
v -0.6 0.4 -0.5
v -0.5 0.1 -0.5
v -0.5 0.2 -0.5
v -0.4 0 -0.5
v -0.4 0.2 -0.5
v -0.4 0.3 -0.5
v -0.4 0.4 -0.5
v -0.3 0.2 -0.5
v -0.3 0.3 -0.5
v -0.6 0.1 -0.6
v -0.6 0.2 -0.6
v -0.5 0.1 -0.6
v -0.5 0.2 -0.6
v 0.7 0 -0.7
v 0.7 0.1 -0.7
v 0.8 0 -0.7
v 0.8 0.1 -0.7
v 0.1 0 0.8
v 0.2 0 0.8
v 0.1 0 0.7
v 0.2 0 0.7
v -0.5 0 0.6
v -0.4 0 0.6
v -0.5 0 0.5
v -0.4 0 0.5
v 0.6 0 0.5
v 0.7 0 0.5
v 0.6 0 0.4
v 0.7 0 0.4
v 0.1 0 0.3
v 0.2 0 0.3
v 0.1 0 0.2
v 0.2 0 0.2
v -0.6 0 -0.1
v -0.5 0 -0.1
v -0.6 0 -0.2
v -0.5 0 -0.2
v -0.6 0 -0.3
v -0.4 0 -0.3
v -0.3 0 -0.3
v -0.2 0 -0.3
v -0.3 0 -0.4
v -0.2 0 -0.4
v -0.6 0 -0.5
v -0.4 0 -0.5
v 0.7 0 -0.6
v 0.8 0 -0.6
v 0.7 0 -0.7
v 0.8 0 -0.7
v -0.6 0.1 -0.5
v -0.5 0.1 -0.5
v -0.6 0.1 -0.6
v -0.5 0.1 -0.6
v -0.4 0.2 -0.4
v -0.3 0.2 -0.4
v -0.4 0.2 -0.5
v -0.3 0.2 -0.5
v 0.1 0.1 0.8
v 0.2 0.1 0.8
v 0.1 0.1 0.7
v 0.2 0.1 0.7
v -0.5 0.1 0.6
v -0.4 0.1 0.6
v -0.5 0.1 0.5
v -0.4 0.1 0.5
v 0.1 0.1 0.3
v 0.2 0.1 0.3
v 0.1 0.1 0.2
v 0.2 0.1 0.2
v -0.6 0.1 -0.1
v -0.5 0.1 -0.1
v -0.6 0.1 -0.2
v -0.5 0.1 -0.2
v -0.3 0.1 -0.3
v -0.2 0.1 -0.3
v -0.3 0.1 -0.4
v -0.2 0.1 -0.4
v 0.7 0.1 -0.6
v 0.8 0.1 -0.6
v 0.7 0.1 -0.7
v 0.8 0.1 -0.7
v 0.6 0.2 0.5
v 0.7 0.2 0.5
v 0.6 0.2 0.4
v 0.7 0.2 0.4
v -0.6 0.2 -0.5
v -0.5 0.2 -0.5
v -0.6 0.2 -0.6
v -0.5 0.2 -0.6
v -0.4 0.3 -0.4
v -0.3 0.3 -0.4
v -0.4 0.3 -0.5
v -0.3 0.3 -0.5
v -0.6 0.4 -0.3
v -0.4 0.4 -0.3
v -0.6 0.4 -0.5
v -0.4 0.4 -0.5

# faces
f 5/2/1 2/2/1 1/2/1
f 6/2/1 2/2/1 5/2/1
f 7/1/1 4/1/1 3/1/1
f 9/1/1 8/1/1 7/1/1
f 9/1/1 7/1/1 3/1/1
f 10/1/1 8/1/1 9/1/1
f 11/1/1 9/1/1 3/1/1
f 12/1/1 9/1/1 11/1/1
f 15/1/1 14/1/1 13/1/1
f 16/1/1 14/1/1 15/1/1
f 19/2/1 18/2/1 17/2/1
f 20/2/1 18/2/1 19/2/1
f 25/2/1 22/2/1 21/2/1
f 26/2/1 22/2/1 25/2/1
f 27/1/1 24/1/1 23/1/1
f 28/1/1 24/1/1 27/1/1
f 31/1/1 30/1/1 29/1/1
f 32/1/1 30/1/1 31/1/1
f 35/1/1 34/1/1 33/1/1
f 36/1/1 34/1/1 35/1/1
f 37/2/2 38/2/2 39/2/2
f 39/2/2 38/2/2 40/2/2
f 41/1/2 42/1/2 43/1/2
f 43/1/2 42/1/2 44/1/2
f 45/1/2 46/1/2 49/1/2
f 49/1/2 46/1/2 50/1/2
f 47/1/2 48/1/2 51/1/2
f 51/1/2 48/1/2 52/1/2
f 47/1/2 51/1/2 53/1/2
f 47/1/2 53/1/2 55/1/2
f 53/1/2 54/1/2 55/1/2
f 55/1/2 54/1/2 56/1/2
f 57/1/2 58/1/2 59/1/2
f 59/1/2 58/1/2 60/1/2
f 61/2/2 62/2/2 63/2/2
f 63/2/2 62/2/2 64/2/2
f 65/2/2 66/2/2 69/2/2
f 69/2/2 66/2/2 70/2/2
f 67/1/2 68/1/2 71/1/2
f 71/1/2 68/1/2 72/1/2
f 73/1/2 74/1/2 75/1/2
f 75/1/2 74/1/2 76/1/2
f 77/1/2 78/1/2 79/1/2
f 79/1/2 78/1/2 80/1/2
f 83/2/3 82/2/3 81/2/3
f 84/2/3 82/2/3 83/2/3
f 87/1/3 86/1/3 85/1/3
f 88/1/3 86/1/3 87/1/3
f 91/1/3 90/1/3 89/1/3
f 92/1/3 90/1/3 91/1/3
f 95/1/3 94/1/3 93/1/3
f 96/1/3 94/1/3 95/1/3
f 99/2/3 98/2/3 97/2/3
f 100/2/3 98/2/3 99/2/3
f 103/1/3 102/1/3 101/1/3
f 104/1/3 102/1/3 103/1/3
f 107/2/3 106/2/3 105/2/3
f 108/2/3 106/2/3 107/2/3
f 111/1/3 110/1/3 109/1/3
f 112/1/3 110/1/3 111/1/3
f 115/1/3 114/1/3 113/1/3
f 116/1/3 114/1/3 115/1/3
f 117/2/4 118/2/4 119/2/4
f 119/2/4 118/2/4 120/2/4
f 121/1/4 122/1/4 123/1/4
f 123/1/4 122/1/4 124/1/4
f 125/1/4 126/1/4 127/1/4
f 127/1/4 126/1/4 128/1/4
f 129/1/4 130/1/4 131/1/4
f 131/1/4 130/1/4 132/1/4
f 133/2/4 134/2/4 135/2/4
f 135/2/4 134/2/4 136/2/4
f 137/2/4 138/2/4 139/2/4
f 139/2/4 138/2/4 140/2/4
f 141/1/4 142/1/4 145/1/4
f 143/1/4 144/1/4 146/1/4
f 141/1/4 145/1/4 147/1/4
f 145/1/4 146/1/4 147/1/4
f 146/1/4 144/1/4 148/1/4
f 147/1/4 146/1/4 148/1/4
f 148/1/4 144/1/4 149/1/4
f 149/1/4 144/1/4 150/1/4
f 148/1/4 149/1/4 151/1/4
f 151/1/4 149/1/4 152/1/4
f 153/1/4 154/1/4 155/1/4
f 155/1/4 154/1/4 156/1/4
f 157/1/4 158/1/4 159/1/4
f 159/1/4 158/1/4 160/1/4
f 163/2/5 162/2/5 161/2/5
f 164/2/5 162/2/5 163/2/5
f 167/1/5 166/1/5 165/1/5
f 168/1/5 166/1/5 167/1/5
f 171/1/5 170/1/5 169/1/5
f 172/1/5 170/1/5 171/1/5
f 175/1/5 174/1/5 173/1/5
f 176/1/5 174/1/5 175/1/5
f 179/2/5 178/2/5 177/2/5
f 180/2/5 178/2/5 179/2/5
f 185/2/5 184/2/5 183/2/5
f 186/2/5 184/2/5 185/2/5
f 187/1/5 182/1/5 181/1/5
f 188/1/5 182/1/5 187/1/5
f 191/1/5 190/1/5 189/1/5
f 192/1/5 190/1/5 191/1/5
f 195/1/5 194/1/5 193/1/5
f 196/1/5 194/1/5 195/1/5
f 199/1/5 198/1/5 197/1/5
f 200/1/5 198/1/5 199/1/5
f 201/2/6 202/2/6 203/2/6
f 203/2/6 202/2/6 204/2/6
f 205/1/6 206/1/6 207/1/6
f 207/1/6 206/1/6 208/1/6
f 209/1/6 210/1/6 211/1/6
f 211/1/6 210/1/6 212/1/6
f 213/2/6 214/2/6 215/2/6
f 215/2/6 214/2/6 216/2/6
f 217/2/6 218/2/6 219/2/6
f 219/2/6 218/2/6 220/2/6
f 221/1/6 222/1/6 223/1/6
f 223/1/6 222/1/6 224/1/6
f 225/1/6 226/1/6 227/1/6
f 227/1/6 226/1/6 228/1/6
f 229/1/6 230/1/6 231/1/6
f 231/1/6 230/1/6 232/1/6
f 233/1/6 234/1/6 235/1/6
f 235/1/6 234/1/6 236/1/6
f 237/1/6 238/1/6 239/1/6
f 239/1/6 238/1/6 240/1/6
