# MagicaVoxel @ Ephtracy

# group
o 

# material
mtllib GroundObject_001.mtl
usemtl palette

# normals
vn -1 0 0
vn 1 0 0
vn 0 0 1
vn 0 0 -1
vn 0 -1 0
vn 0 1 0

# texcoords
vt 0.689453 0.5
vt 0.693359 0.5

# verts
v -0.9 0 0.8
v -0.9 0 0.7
v -0.9 0.1 0.8
v -0.9 0.1 0.7
v -0.7 0 0.2
v -0.7 0 0.1
v -0.7 0 -0.5
v -0.7 0 -0.7
v -0.7 0.1 0.2
v -0.7 0.1 0.1
v -0.7 0.2 -0.5
v -0.7 0.2 -0.6
v -0.7 0.3 -0.6
v -0.7 0.3 -0.7
v -0.4 0 0.7
v -0.4 0 0.6
v -0.4 0.1 0.7
v -0.4 0.1 0.6
v -0.3 0 -0.4
v -0.3 0 -0.5
v -0.3 0.1 -0.4
v -0.3 0.1 -0.5
v 0 0.1 0.3
v 0 0.1 0.1
v 0 0.4 0.3
v 0 0.4 0.1
v 0.1 0 0.2
v 0.1 0 0.1
v 0.1 0.1 0.2
v 0.1 0.1 0.1
v 0.1 0.4 0.2
v 0.1 0.4 0.1
v 0.1 0.5 0.2
v 0.1 0.5 0.1
v 0.3 0.2 0.2
v 0.3 0.2 0.1
v 0.3 0.3 0.2
v 0.3 0.3 0.1
v 0.6 0 0.9
v 0.6 0 0.8
v 0.6 0.1 0.9
v 0.6 0.1 0.8
v 0.7 0 0.5
v 0.7 0 0.4
v 0.7 0 -0.6
v 0.7 0 -0.7
v 0.7 0.1 0.5
v 0.7 0.1 0.4
v 0.7 0.1 -0.6
v 0.7 0.1 -0.7
v -0.8 0 0.8
v -0.8 0 0.7
v -0.8 0.1 0.8
v -0.8 0.1 0.7
v -0.6 0 0.2
v -0.6 0 0.1
v -0.6 0 -0.5
v -0.6 0 -0.7
v -0.6 0.1 0.2
v -0.6 0.1 0.1
v -0.6 0.2 -0.5
v -0.6 0.2 -0.6
v -0.6 0.3 -0.6
v -0.6 0.3 -0.7
v -0.3 0 0.7
v -0.3 0 0.6
v -0.3 0.1 0.7
v -0.3 0.1 0.6
v -0.2 0 -0.4
v -0.2 0 -0.5
v -0.2 0.1 -0.4
v -0.2 0.1 -0.5
v 0.1 0.3 0.3
v 0.1 0.3 0.2
v 0.1 0.4 0.3
v 0.1 0.4 0.2
v 0.2 0 0.2
v 0.2 0 0.1
v 0.2 0.1 0.3
v 0.2 0.1 0.2
v 0.2 0.1 0.1
v 0.2 0.2 0.2
v 0.2 0.2 0.1
v 0.2 0.3 0.3
v 0.2 0.3 0.2
v 0.2 0.5 0.2
v 0.2 0.5 0.1
v 0.4 0.1 0.2
v 0.4 0.1 0.1
v 0.4 0.3 0.2
v 0.4 0.3 0.1
v 0.7 0 0.9
v 0.7 0 0.8
v 0.7 0.1 0.9
v 0.7 0.1 0.8
v 0.8 0 0.5
v 0.8 0 0.4
v 0.8 0 -0.6
v 0.8 0 -0.7
v 0.8 0.1 0.5
v 0.8 0.1 0.4
v 0.8 0.1 -0.6
v 0.8 0.1 -0.7
v 0.6 0 0.9
v 0.6 0.1 0.9
v 0.7 0 0.9
v 0.7 0.1 0.9
v -0.9 0 0.8
v -0.9 0.1 0.8
v -0.8 0 0.8
v -0.8 0.1 0.8
v -0.4 0 0.7
v -0.4 0.1 0.7
v -0.3 0 0.7
v -0.3 0.1 0.7
v 0.7 0 0.5
v 0.7 0.1 0.5
v 0.8 0 0.5
v 0.8 0.1 0.5
v 0 0.1 0.3
v 0 0.4 0.3
v 0.1 0.3 0.3
v 0.1 0.4 0.3
v 0.2 0.1 0.3
v 0.2 0.3 0.3
v -0.7 0 0.2
v -0.7 0.1 0.2
v -0.6 0 0.2
v -0.6 0.1 0.2
v 0.1 0 0.2
v 0.1 0.1 0.2
v 0.1 0.3 0.2
v 0.1 0.4 0.2
v 0.1 0.5 0.2
v 0.2 0 0.2
v 0.2 0.1 0.2
v 0.2 0.2 0.2
v 0.2 0.3 0.2
v 0.2 0.5 0.2
v 0.3 0.2 0.2
v 0.3 0.3 0.2
v 0.4 0.1 0.2
v 0.4 0.3 0.2
v -0.3 0 -0.4
v -0.3 0.1 -0.4
v -0.2 0 -0.4
v -0.2 0.1 -0.4
v -0.7 0 -0.5
v -0.7 0.2 -0.5
v -0.6 0 -0.5
v -0.6 0.2 -0.5
v -0.7 0.2 -0.6
v -0.7 0.3 -0.6
v -0.6 0.2 -0.6
v -0.6 0.3 -0.6
v 0.7 0 -0.6
v 0.7 0.1 -0.6
v 0.8 0 -0.6
v 0.8 0.1 -0.6
v 0.6 0 0.8
v 0.6 0.1 0.8
v 0.7 0 0.8
v 0.7 0.1 0.8
v -0.9 0 0.7
v -0.9 0.1 0.7
v -0.8 0 0.7
v -0.8 0.1 0.7
v -0.4 0 0.6
v -0.4 0.1 0.6
v -0.3 0 0.6
v -0.3 0.1 0.6
v 0.7 0 0.4
v 0.7 0.1 0.4
v 0.8 0 0.4
v 0.8 0.1 0.4
v -0.7 0 0.1
v -0.7 0.1 0.1
v -0.6 0 0.1
v -0.6 0.1 0.1
v 0 0.1 0.1
v 0 0.4 0.1
v 0.1 0 0.1
v 0.1 0.1 0.1
v 0.1 0.4 0.1
v 0.1 0.5 0.1
v 0.2 0 0.1
v 0.2 0.1 0.1
v 0.2 0.2 0.1
v 0.2 0.5 0.1
v 0.3 0.2 0.1
v 0.3 0.3 0.1
v 0.4 0.1 0.1
v 0.4 0.3 0.1
v -0.3 0 -0.5
v -0.3 0.1 -0.5
v -0.2 0 -0.5
v -0.2 0.1 -0.5
v -0.7 0 -0.7
v -0.7 0.3 -0.7
v -0.6 0 -0.7
v -0.6 0.3 -0.7
v 0.7 0 -0.7
v 0.7 0.1 -0.7
v 0.8 0 -0.7
v 0.8 0.1 -0.7
v 0.6 0 0.9
v 0.7 0 0.9
v -0.9 0 0.8
v -0.8 0 0.8
v 0.6 0 0.8
v 0.7 0 0.8
v -0.9 0 0.7
v -0.8 0 0.7
v -0.4 0 0.7
v -0.3 0 0.7
v -0.4 0 0.6
v -0.3 0 0.6
v 0.7 0 0.5
v 0.8 0 0.5
v 0.7 0 0.4
v 0.8 0 0.4
v -0.7 0 0.2
v -0.6 0 0.2
v 0.1 0 0.2
v 0.2 0 0.2
v -0.7 0 0.1
v -0.6 0 0.1
v 0.1 0 0.1
v 0.2 0 0.1
v -0.3 0 -0.4
v -0.2 0 -0.4
v -0.7 0 -0.5
v -0.6 0 -0.5
v -0.3 0 -0.5
v -0.2 0 -0.5
v 0.7 0 -0.6
v 0.8 0 -0.6
v -0.7 0 -0.7
v -0.6 0 -0.7
v 0.7 0 -0.7
v 0.8 0 -0.7
v 0 0.1 0.3
v 0.2 0.1 0.3
v 0.1 0.1 0.2
v 0.2 0.1 0.2
v 0.4 0.1 0.2
v 0 0.1 0.1
v 0.1 0.1 0.1
v 0.2 0.1 0.1
v 0.4 0.1 0.1
v 0.6 0.1 0.9
v 0.7 0.1 0.9
v -0.9 0.1 0.8
v -0.8 0.1 0.8
v 0.6 0.1 0.8
v 0.7 0.1 0.8
v -0.9 0.1 0.7
v -0.8 0.1 0.7
v -0.4 0.1 0.7
v -0.3 0.1 0.7
v -0.4 0.1 0.6
v -0.3 0.1 0.6
v 0.7 0.1 0.5
v 0.8 0.1 0.5
v 0.7 0.1 0.4
v 0.8 0.1 0.4
v -0.7 0.1 0.2
v -0.6 0.1 0.2
v -0.7 0.1 0.1
v -0.6 0.1 0.1
v -0.3 0.1 -0.4
v -0.2 0.1 -0.4
v -0.3 0.1 -0.5
v -0.2 0.1 -0.5
v 0.7 0.1 -0.6
v 0.8 0.1 -0.6
v 0.7 0.1 -0.7
v 0.8 0.1 -0.7
v 0.2 0.2 0.2
v 0.3 0.2 0.2
v 0.2 0.2 0.1
v 0.3 0.2 0.1
v -0.7 0.2 -0.5
v -0.6 0.2 -0.5
v -0.7 0.2 -0.6
v -0.6 0.2 -0.6
v 0.1 0.3 0.3
v 0.2 0.3 0.3
v 0.1 0.3 0.2
v 0.2 0.3 0.2
v 0.3 0.3 0.2
v 0.4 0.3 0.2
v 0.3 0.3 0.1
v 0.4 0.3 0.1
v -0.7 0.3 -0.6
v -0.6 0.3 -0.6
v -0.7 0.3 -0.7
v -0.6 0.3 -0.7
v 0 0.4 0.3
v 0.1 0.4 0.3
v 0.1 0.4 0.2
v 0 0.4 0.1
v 0.1 0.4 0.1
v 0.1 0.5 0.2
v 0.2 0.5 0.2
v 0.1 0.5 0.1
v 0.2 0.5 0.1

# faces
f 3/2/1 2/2/1 1/2/1
f 4/2/1 2/2/1 3/2/1
f 9/1/1 6/1/1 5/1/1
f 10/1/1 6/1/1 9/1/1
f 11/1/1 8/1/1 7/1/1
f 12/1/1 8/1/1 11/1/1
f 13/1/1 8/1/1 12/1/1
f 14/1/1 8/1/1 13/1/1
f 17/1/1 16/1/1 15/1/1
f 18/1/1 16/1/1 17/1/1
f 21/2/1 20/2/1 19/2/1
f 22/2/1 20/2/1 21/2/1
f 25/1/1 24/1/1 23/1/1
f 26/1/1 24/1/1 25/1/1
f 29/1/1 28/1/1 27/1/1
f 30/1/1 28/1/1 29/1/1
f 33/1/1 32/1/1 31/1/1
f 34/1/1 32/1/1 33/1/1
f 37/1/1 36/1/1 35/1/1
f 38/1/1 36/1/1 37/1/1
f 41/1/1 40/1/1 39/1/1
f 42/1/1 40/1/1 41/1/1
f 47/2/1 44/2/1 43/2/1
f 48/2/1 44/2/1 47/2/1
f 49/1/1 46/1/1 45/1/1
f 50/1/1 46/1/1 49/1/1
f 51/2/2 52/2/2 53/2/2
f 53/2/2 52/2/2 54/2/2
f 55/1/2 56/1/2 59/1/2
f 59/1/2 56/1/2 60/1/2
f 57/1/2 58/1/2 61/1/2
f 61/1/2 58/1/2 62/1/2
f 62/1/2 58/1/2 63/1/2
f 63/1/2 58/1/2 64/1/2
f 65/1/2 66/1/2 67/1/2
f 67/1/2 66/1/2 68/1/2
f 69/2/2 70/2/2 71/2/2
f 71/2/2 70/2/2 72/2/2
f 73/1/2 74/1/2 75/1/2
f 75/1/2 74/1/2 76/1/2
f 77/1/2 78/1/2 80/1/2
f 80/1/2 78/1/2 81/1/2
f 79/1/2 80/1/2 82/1/2
f 79/1/2 82/1/2 84/1/2
f 82/1/2 83/1/2 84/1/2
f 84/1/2 83/1/2 85/1/2
f 85/1/2 83/1/2 86/1/2
f 86/1/2 83/1/2 87/1/2
f 88/1/2 89/1/2 90/1/2
f 90/1/2 89/1/2 91/1/2
f 92/1/2 93/1/2 94/1/2
f 94/1/2 93/1/2 95/1/2
f 96/2/2 97/2/2 100/2/2
f 100/2/2 97/2/2 101/2/2
f 98/1/2 99/1/2 102/1/2
f 102/1/2 99/1/2 103/1/2
f 106/1/3 105/1/3 104/1/3
f 107/1/3 105/1/3 106/1/3
f 110/2/3 109/2/3 108/2/3
f 111/2/3 109/2/3 110/2/3
f 114/1/3 113/1/3 112/1/3
f 115/1/3 113/1/3 114/1/3
f 118/2/3 117/2/3 116/2/3
f 119/2/3 117/2/3 118/2/3
f 122/1/3 121/1/3 120/1/3
f 123/1/3 121/1/3 122/1/3
f 124/1/3 122/1/3 120/1/3
f 125/1/3 122/1/3 124/1/3
f 128/1/3 127/1/3 126/1/3
f 129/1/3 127/1/3 128/1/3
f 135/1/3 131/1/3 130/1/3
f 136/1/3 131/1/3 135/1/3
f 138/1/3 134/1/3 133/1/3
f 138/1/3 133/1/3 132/1/3
f 139/1/3 134/1/3 138/1/3
f 140/1/3 137/1/3 136/1/3
f 142/1/3 140/1/3 136/1/3
f 142/1/3 141/1/3 140/1/3
f 143/1/3 141/1/3 142/1/3
f 146/2/3 145/2/3 144/2/3
f 147/2/3 145/2/3 146/2/3
f 150/1/3 149/1/3 148/1/3
f 151/1/3 149/1/3 150/1/3
f 154/1/3 153/1/3 152/1/3
f 155/1/3 153/1/3 154/1/3
f 158/1/3 157/1/3 156/1/3
f 159/1/3 157/1/3 158/1/3
f 160/1/4 161/1/4 162/1/4
f 162/1/4 161/1/4 163/1/4
f 164/2/4 165/2/4 166/2/4
f 166/2/4 165/2/4 167/2/4
f 168/1/4 169/1/4 170/1/4
f 170/1/4 169/1/4 171/1/4
f 172/2/4 173/2/4 174/2/4
f 174/2/4 173/2/4 175/2/4
f 176/1/4 177/1/4 178/1/4
f 178/1/4 177/1/4 179/1/4
f 180/1/4 181/1/4 183/1/4
f 183/1/4 181/1/4 184/1/4
f 182/1/4 183/1/4 186/1/4
f 184/1/4 185/1/4 186/1/4
f 183/1/4 184/1/4 186/1/4
f 186/1/4 185/1/4 187/1/4
f 187/1/4 185/1/4 188/1/4
f 188/1/4 185/1/4 189/1/4
f 187/1/4 188/1/4 190/1/4
f 187/1/4 190/1/4 192/1/4
f 190/1/4 191/1/4 192/1/4
f 192/1/4 191/1/4 193/1/4
f 194/2/4 195/2/4 196/2/4
f 196/2/4 195/2/4 197/2/4
f 198/1/4 199/1/4 200/1/4
f 200/1/4 199/1/4 201/1/4
f 202/1/4 203/1/4 204/1/4
f 204/1/4 203/1/4 205/1/4
f 210/1/5 207/1/5 206/1/5
f 211/1/5 207/1/5 210/1/5
f 212/2/5 209/2/5 208/2/5
f 213/2/5 209/2/5 212/2/5
f 216/1/5 215/1/5 214/1/5
f 217/1/5 215/1/5 216/1/5
f 220/2/5 219/2/5 218/2/5
f 221/2/5 219/2/5 220/2/5
f 226/1/5 223/1/5 222/1/5
f 227/1/5 223/1/5 226/1/5
f 228/1/5 225/1/5 224/1/5
f 229/1/5 225/1/5 228/1/5
f 234/2/5 231/2/5 230/2/5
f 235/2/5 231/2/5 234/2/5
f 238/1/5 233/1/5 232/1/5
f 239/1/5 233/1/5 238/1/5
f 240/1/5 237/1/5 236/1/5
f 241/1/5 237/1/5 240/1/5
f 244/1/5 243/1/5 242/1/5
f 245/1/5 243/1/5 244/1/5
f 247/1/5 244/1/5 242/1/5
f 248/1/5 244/1/5 247/1/5
f 249/1/5 246/1/5 245/1/5
f 250/1/5 246/1/5 249/1/5
f 251/1/6 252/1/6 255/1/6
f 255/1/6 252/1/6 256/1/6
f 253/2/6 254/2/6 257/2/6
f 257/2/6 254/2/6 258/2/6
f 259/1/6 260/1/6 261/1/6
f 261/1/6 260/1/6 262/1/6
f 263/2/6 264/2/6 265/2/6
f 265/2/6 264/2/6 266/2/6
f 267/1/6 268/1/6 269/1/6
f 269/1/6 268/1/6 270/1/6
f 271/2/6 272/2/6 273/2/6
f 273/2/6 272/2/6 274/2/6
f 275/1/6 276/1/6 277/1/6
f 277/1/6 276/1/6 278/1/6
f 279/1/6 280/1/6 281/1/6
f 281/1/6 280/1/6 282/1/6
f 283/1/6 284/1/6 285/1/6
f 285/1/6 284/1/6 286/1/6
f 287/1/6 288/1/6 289/1/6
f 289/1/6 288/1/6 290/1/6
f 291/1/6 292/1/6 293/1/6
f 293/1/6 292/1/6 294/1/6
f 295/1/6 296/1/6 297/1/6
f 297/1/6 296/1/6 298/1/6
f 299/1/6 300/1/6 301/1/6
f 299/1/6 301/1/6 302/1/6
f 302/1/6 301/1/6 303/1/6
f 304/1/6 305/1/6 306/1/6
f 306/1/6 305/1/6 307/1/6
