# MagicaVoxel @ Ephtracy

# group
o 

# material
mtllib GroundObject_002.mtl
usemtl palette

# normals
vn -1 0 0
vn 1 0 0
vn 0 0 1
vn 0 0 -1
vn 0 -1 0
vn 0 1 0

# texcoords
vt 0.689453 0.5
vt 0.693359 0.5

# verts
v -0.9 0.1 0.2
v -0.9 0.1 0.1
v -0.9 0.3 0.2
v -0.9 0.3 0.1
v -0.8 0 0.7
v -0.8 0 0.6
v -0.8 0.1 0.7
v -0.8 0.1 0.6
v -0.7 0 0.2
v -0.7 0 0.1
v -0.7 0 -0.8
v -0.7 0 -0.9
v -0.7 0.1 0.2
v -0.7 0.1 0.1
v -0.7 0.1 0
v -0.7 0.1 -0.8
v -0.7 0.1 -0.9
v -0.7 0.2 0.2
v -0.7 0.2 0.1
v -0.7 0.3 0.1
v -0.7 0.3 0
v -0.7 0.5 0.2
v -0.7 0.5 0.1
v -0.6 0.3 0.1
v -0.6 0.3 0
v -0.6 0.4 0.1
v -0.6 0.4 0
v -0.3 0 0.6
v -0.3 0 0.5
v -0.3 0.1 0.6
v -0.3 0.1 0.5
v -0.2 0 -0.3
v -0.2 0 -0.4
v -0.2 0.1 -0.3
v -0.2 0.1 -0.4
v 0.1 0 0.2
v 0.1 0 0.1
v 0.1 0.1 0.2
v 0.1 0.1 0.1
v 0.3 0 -0.3
v 0.3 0 -0.4
v 0.3 0.1 -0.3
v 0.3 0.1 -0.4
v 0.6 0 0.7
v 0.6 0 0.5
v 0.6 0.2 0.6
v 0.6 0.2 0.5
v 0.6 0.3 0.7
v 0.6 0.3 0.6
v 0.7 0 -0.5
v 0.7 0 -0.6
v 0.7 0.3 -0.5
v 0.7 0.3 -0.6
v -0.8 0.2 0.2
v -0.8 0.2 0.1
v -0.8 0.3 0.2
v -0.8 0.3 0.1
v -0.7 0 0.7
v -0.7 0 0.6
v -0.7 0.1 0.7
v -0.7 0.1 0.6
v -0.6 0 0.2
v -0.6 0 0.1
v -0.6 0 -0.8
v -0.6 0 -0.9
v -0.6 0.1 0.2
v -0.6 0.1 0.1
v -0.6 0.1 -0.8
v -0.6 0.1 -0.9
v -0.6 0.4 0.2
v -0.6 0.4 0.1
v -0.6 0.5 0.2
v -0.6 0.5 0.1
v -0.5 0.1 0.2
v -0.5 0.1 0
v -0.5 0.4 0.2
v -0.5 0.4 0
v -0.2 0 0.6
v -0.2 0 0.5
v -0.2 0.1 0.6
v -0.2 0.1 0.5
v -0.1 0 -0.3
v -0.1 0 -0.4
v -0.1 0.1 -0.3
v -0.1 0.1 -0.4
v 0.2 0 0.2
v 0.2 0 0.1
v 0.2 0.1 0.2
v 0.2 0.1 0.1
v 0.4 0 -0.3
v 0.4 0 -0.4
v 0.4 0.1 -0.3
v 0.4 0.1 -0.4
v 0.7 0 0.7
v 0.7 0 0.5
v 0.7 0.2 0.6
v 0.7 0.2 0.5
v 0.7 0.3 0.7
v 0.7 0.3 0.6
v 0.8 0 -0.5
v 0.8 0 -0.6
v 0.8 0.3 -0.5
v 0.8 0.3 -0.6
v -0.8 0 0.7
v -0.8 0.1 0.7
v -0.7 0 0.7
v -0.7 0.1 0.7
v 0.6 0 0.7
v 0.6 0.3 0.7
v 0.7 0 0.7
v 0.7 0.3 0.7
v -0.3 0 0.6
v -0.3 0.1 0.6
v -0.2 0 0.6
v -0.2 0.1 0.6
v -0.9 0.1 0.2
v -0.9 0.3 0.2
v -0.8 0.2 0.2
v -0.8 0.3 0.2
v -0.7 0 0.2
v -0.7 0.1 0.2
v -0.7 0.2 0.2
v -0.7 0.5 0.2
v -0.6 0 0.2
v -0.6 0.1 0.2
v -0.6 0.4 0.2
v -0.6 0.5 0.2
v -0.5 0.1 0.2
v -0.5 0.4 0.2
v 0.1 0 0.2
v 0.1 0.1 0.2
v 0.2 0 0.2
v 0.2 0.1 0.2
v -0.2 0 -0.3
v -0.2 0.1 -0.3
v -0.1 0 -0.3
v -0.1 0.1 -0.3
v 0.3 0 -0.3
v 0.3 0.1 -0.3
v 0.4 0 -0.3
v 0.4 0.1 -0.3
v 0.7 0 -0.5
v 0.7 0.3 -0.5
v 0.8 0 -0.5
v 0.8 0.3 -0.5
v -0.7 0 -0.8
v -0.7 0.1 -0.8
v -0.6 0 -0.8
v -0.6 0.1 -0.8
v -0.8 0 0.6
v -0.8 0.1 0.6
v -0.7 0 0.6
v -0.7 0.1 0.6
v 0.6 0.2 0.6
v 0.6 0.3 0.6
v 0.7 0.2 0.6
v 0.7 0.3 0.6
v -0.3 0 0.5
v -0.3 0.1 0.5
v -0.2 0 0.5
v -0.2 0.1 0.5
v 0.6 0 0.5
v 0.6 0.2 0.5
v 0.7 0 0.5
v 0.7 0.2 0.5
v -0.9 0.1 0.1
v -0.9 0.3 0.1
v -0.8 0.2 0.1
v -0.8 0.3 0.1
v -0.7 0 0.1
v -0.7 0.1 0.1
v -0.7 0.2 0.1
v -0.7 0.3 0.1
v -0.7 0.5 0.1
v -0.6 0 0.1
v -0.6 0.1 0.1
v -0.6 0.3 0.1
v -0.6 0.4 0.1
v -0.6 0.5 0.1
v 0.1 0 0.1
v 0.1 0.1 0.1
v 0.2 0 0.1
v 0.2 0.1 0.1
v -0.7 0.1 0
v -0.7 0.3 0
v -0.6 0.3 0
v -0.6 0.4 0
v -0.5 0.1 0
v -0.5 0.4 0
v -0.2 0 -0.4
v -0.2 0.1 -0.4
v -0.1 0 -0.4
v -0.1 0.1 -0.4
v 0.3 0 -0.4
v 0.3 0.1 -0.4
v 0.4 0 -0.4
v 0.4 0.1 -0.4
v 0.7 0 -0.6
v 0.7 0.3 -0.6
v 0.8 0 -0.6
v 0.8 0.3 -0.6
v -0.7 0 -0.9
v -0.7 0.1 -0.9
v -0.6 0 -0.9
v -0.6 0.1 -0.9
v -0.8 0 0.7
v -0.7 0 0.7
v 0.6 0 0.7
v 0.7 0 0.7
v -0.8 0 0.6
v -0.7 0 0.6
v -0.3 0 0.6
v -0.2 0 0.6
v -0.3 0 0.5
v -0.2 0 0.5
v 0.6 0 0.5
v 0.7 0 0.5
v -0.7 0 0.2
v -0.6 0 0.2
v 0.1 0 0.2
v 0.2 0 0.2
v -0.7 0 0.1
v -0.6 0 0.1
v 0.1 0 0.1
v 0.2 0 0.1
v -0.2 0 -0.3
v -0.1 0 -0.3
v 0.3 0 -0.3
v 0.4 0 -0.3
v -0.2 0 -0.4
v -0.1 0 -0.4
v 0.3 0 -0.4
v 0.4 0 -0.4
v 0.7 0 -0.5
v 0.8 0 -0.5
v 0.7 0 -0.6
v 0.8 0 -0.6
v -0.7 0 -0.8
v -0.6 0 -0.8
v -0.7 0 -0.9
v -0.6 0 -0.9
v -0.9 0.1 0.2
v -0.7 0.1 0.2
v -0.6 0.1 0.2
v -0.5 0.1 0.2
v -0.9 0.1 0.1
v -0.7 0.1 0.1
v -0.6 0.1 0.1
v -0.7 0.1 0
v -0.5 0.1 0
v -0.8 0.1 0.7
v -0.7 0.1 0.7
v -0.8 0.1 0.6
v -0.7 0.1 0.6
v -0.3 0.1 0.6
v -0.2 0.1 0.6
v -0.3 0.1 0.5
v -0.2 0.1 0.5
v 0.1 0.1 0.2
v 0.2 0.1 0.2
v 0.1 0.1 0.1
v 0.2 0.1 0.1
v -0.2 0.1 -0.3
v -0.1 0.1 -0.3
v 0.3 0.1 -0.3
v 0.4 0.1 -0.3
v -0.2 0.1 -0.4
v -0.1 0.1 -0.4
v 0.3 0.1 -0.4
v 0.4 0.1 -0.4
v -0.7 0.1 -0.8
v -0.6 0.1 -0.8
v -0.7 0.1 -0.9
v -0.6 0.1 -0.9
v 0.6 0.2 0.6
v 0.7 0.2 0.6
v 0.6 0.2 0.5
v 0.7 0.2 0.5
v -0.8 0.2 0.2
v -0.7 0.2 0.2
v -0.8 0.2 0.1
v -0.7 0.2 0.1
v 0.6 0.3 0.7
v 0.7 0.3 0.7
v 0.6 0.3 0.6
v 0.7 0.3 0.6
v -0.9 0.3 0.2
v -0.8 0.3 0.2
v -0.9 0.3 0.1
v -0.8 0.3 0.1
v -0.7 0.3 0.1
v -0.6 0.3 0.1
v -0.7 0.3 0
v -0.6 0.3 0
v 0.7 0.3 -0.5
v 0.8 0.3 -0.5
v 0.7 0.3 -0.6
v 0.8 0.3 -0.6
v -0.6 0.4 0.2
v -0.5 0.4 0.2
v -0.6 0.4 0.1
v -0.6 0.4 0
v -0.5 0.4 0
v -0.7 0.5 0.2
v -0.6 0.5 0.2
v -0.7 0.5 0.1
v -0.6 0.5 0.1

# faces
f 3/1/1 2/1/1 1/1/1
f 4/1/1 2/1/1 3/1/1
f 7/1/1 6/1/1 5/1/1
f 8/1/1 6/1/1 7/1/1
f 13/1/1 10/1/1 9/1/1
f 14/1/1 10/1/1 13/1/1
f 16/1/1 12/1/1 11/1/1
f 17/1/1 12/1/1 16/1/1
f 19/1/1 15/1/1 14/1/1
f 20/1/1 15/1/1 19/1/1
f 20/1/1 19/1/1 18/1/1
f 21/1/1 15/1/1 20/1/1
f 22/1/1 20/1/1 18/1/1
f 23/1/1 20/1/1 22/1/1
f 26/1/1 25/1/1 24/1/1
f 27/1/1 25/1/1 26/1/1
f 30/2/1 29/2/1 28/2/1
f 31/2/1 29/2/1 30/2/1
f 34/1/1 33/1/1 32/1/1
f 35/1/1 33/1/1 34/1/1
f 38/1/1 37/1/1 36/1/1
f 39/1/1 37/1/1 38/1/1
f 42/2/1 41/2/1 40/2/1
f 43/2/1 41/2/1 42/2/1
f 46/1/1 45/1/1 44/1/1
f 47/1/1 45/1/1 46/1/1
f 48/1/1 46/1/1 44/1/1
f 49/1/1 46/1/1 48/1/1
f 52/1/1 51/1/1 50/1/1
f 53/1/1 51/1/1 52/1/1
f 54/1/2 55/1/2 56/1/2
f 56/1/2 55/1/2 57/1/2
f 58/1/2 59/1/2 60/1/2
f 60/1/2 59/1/2 61/1/2
f 62/1/2 63/1/2 66/1/2
f 66/1/2 63/1/2 67/1/2
f 64/1/2 65/1/2 68/1/2
f 68/1/2 65/1/2 69/1/2
f 70/1/2 71/1/2 72/1/2
f 72/1/2 71/1/2 73/1/2
f 74/1/2 75/1/2 76/1/2
f 76/1/2 75/1/2 77/1/2
f 78/2/2 79/2/2 80/2/2
f 80/2/2 79/2/2 81/2/2
f 82/1/2 83/1/2 84/1/2
f 84/1/2 83/1/2 85/1/2
f 86/1/2 87/1/2 88/1/2
f 88/1/2 87/1/2 89/1/2
f 90/2/2 91/2/2 92/2/2
f 92/2/2 91/2/2 93/2/2
f 94/1/2 95/1/2 96/1/2
f 96/1/2 95/1/2 97/1/2
f 94/1/2 96/1/2 98/1/2
f 98/1/2 96/1/2 99/1/2
f 100/1/2 101/1/2 102/1/2
f 102/1/2 101/1/2 103/1/2
f 106/1/3 105/1/3 104/1/3
f 107/1/3 105/1/3 106/1/3
f 110/1/3 109/1/3 108/1/3
f 111/1/3 109/1/3 110/1/3
f 114/2/3 113/2/3 112/2/3
f 115/2/3 113/2/3 114/2/3
f 118/1/3 117/1/3 116/1/3
f 119/1/3 117/1/3 118/1/3
f 121/1/3 118/1/3 116/1/3
f 122/1/3 118/1/3 121/1/3
f 124/1/3 122/1/3 121/1/3
f 124/1/3 123/1/3 122/1/3
f 124/1/3 121/1/3 120/1/3
f 125/1/3 123/1/3 124/1/3
f 126/1/3 123/1/3 125/1/3
f 127/1/3 123/1/3 126/1/3
f 128/1/3 126/1/3 125/1/3
f 129/1/3 126/1/3 128/1/3
f 132/1/3 131/1/3 130/1/3
f 133/1/3 131/1/3 132/1/3
f 136/1/3 135/1/3 134/1/3
f 137/1/3 135/1/3 136/1/3
f 140/2/3 139/2/3 138/2/3
f 141/2/3 139/2/3 140/2/3
f 144/1/3 143/1/3 142/1/3
f 145/1/3 143/1/3 144/1/3
f 148/1/3 147/1/3 146/1/3
f 149/1/3 147/1/3 148/1/3
f 150/1/4 151/1/4 152/1/4
f 152/1/4 151/1/4 153/1/4
f 154/1/4 155/1/4 156/1/4
f 156/1/4 155/1/4 157/1/4
f 158/2/4 159/2/4 160/2/4
f 160/2/4 159/2/4 161/2/4
f 162/1/4 163/1/4 164/1/4
f 164/1/4 163/1/4 165/1/4
f 166/1/4 167/1/4 168/1/4
f 168/1/4 167/1/4 169/1/4
f 166/1/4 168/1/4 171/1/4
f 171/1/4 168/1/4 172/1/4
f 170/1/4 171/1/4 175/1/4
f 175/1/4 171/1/4 176/1/4
f 173/1/4 174/1/4 177/1/4
f 177/1/4 174/1/4 178/1/4
f 178/1/4 174/1/4 179/1/4
f 180/1/4 181/1/4 182/1/4
f 182/1/4 181/1/4 183/1/4
f 184/1/4 185/1/4 186/1/4
f 184/1/4 186/1/4 188/1/4
f 186/1/4 187/1/4 188/1/4
f 188/1/4 187/1/4 189/1/4
f 190/1/4 191/1/4 192/1/4
f 192/1/4 191/1/4 193/1/4
f 194/2/4 195/2/4 196/2/4
f 196/2/4 195/2/4 197/2/4
f 198/1/4 199/1/4 200/1/4
f 200/1/4 199/1/4 201/1/4
f 202/1/4 203/1/4 204/1/4
f 204/1/4 203/1/4 205/1/4
f 210/1/5 207/1/5 206/1/5
f 211/1/5 207/1/5 210/1/5
f 214/2/5 213/2/5 212/2/5
f 215/2/5 213/2/5 214/2/5
f 216/1/5 209/1/5 208/1/5
f 217/1/5 209/1/5 216/1/5
f 222/1/5 219/1/5 218/1/5
f 223/1/5 219/1/5 222/1/5
f 224/1/5 221/1/5 220/1/5
f 225/1/5 221/1/5 224/1/5
f 230/1/5 227/1/5 226/1/5
f 231/1/5 227/1/5 230/1/5
f 232/2/5 229/2/5 228/2/5
f 233/2/5 229/2/5 232/2/5
f 236/1/5 235/1/5 234/1/5
f 237/1/5 235/1/5 236/1/5
f 240/1/5 239/1/5 238/1/5
f 241/1/5 239/1/5 240/1/5
f 246/1/5 243/1/5 242/1/5
f 247/1/5 243/1/5 246/1/5
f 248/1/5 245/1/5 244/1/5
f 249/1/5 248/1/5 247/1/5
f 250/1/5 245/1/5 248/1/5
f 250/1/5 248/1/5 249/1/5
f 251/1/6 252/1/6 253/1/6
f 253/1/6 252/1/6 254/1/6
f 255/2/6 256/2/6 257/2/6
f 257/2/6 256/2/6 258/2/6
f 259/1/6 260/1/6 261/1/6
f 261/1/6 260/1/6 262/1/6
f 263/1/6 264/1/6 267/1/6
f 267/1/6 264/1/6 268/1/6
f 265/2/6 266/2/6 269/2/6
f 269/2/6 266/2/6 270/2/6
f 271/1/6 272/1/6 273/1/6
f 273/1/6 272/1/6 274/1/6
f 275/1/6 276/1/6 277/1/6
f 277/1/6 276/1/6 278/1/6
f 279/1/6 280/1/6 281/1/6
f 281/1/6 280/1/6 282/1/6
f 283/1/6 284/1/6 285/1/6
f 285/1/6 284/1/6 286/1/6
f 287/1/6 288/1/6 289/1/6
f 289/1/6 288/1/6 290/1/6
f 291/1/6 292/1/6 293/1/6
f 293/1/6 292/1/6 294/1/6
f 295/1/6 296/1/6 297/1/6
f 297/1/6 296/1/6 298/1/6
f 299/1/6 300/1/6 301/1/6
f 301/1/6 300/1/6 302/1/6
f 302/1/6 300/1/6 303/1/6
f 304/1/6 305/1/6 306/1/6
f 306/1/6 305/1/6 307/1/6
