# MagicaVoxel @ Ephtracy

# group
o 

# material
mtllib Cannon.mtl
usemtl palette

# normals
vn -1 0 0
vn 1 0 0
vn 0 0 1
vn 0 0 -1
vn 0 -1 0
vn 0 1 0

# texcoords
vt 0.802734 0.5
vt 0.806641 0.5
vt 0.810547 0.5

# verts
v -0.8 0.3 0.1
v -0.8 0.3 -0.2
v -0.8 0.4 0.2
v -0.8 0.4 0.1
v -0.8 0.4 -0.2
v -0.8 0.4 -0.3
v -0.8 0.5 0.3
v -0.8 0.5 0.2
v -0.8 0.5 0.1
v -0.8 0.5 -0.2
v -0.8 0.5 -0.3
v -0.8 0.5 -0.4
v -0.8 1 0.3
v -0.8 1 0.2
v -0.8 1 0.1
v -0.8 1 -0.3
v -0.8 1 -0.4
v -0.8 1.1 0.2
v -0.8 1.1 0.1
v -0.8 1.1 -0.2
v -0.8 1.2 0.1
v -0.8 1.2 -0.2
v -0.7 1 -0.2
v -0.7 1 -0.3
v -0.7 1.1 -0.2
v -0.7 1.1 -0.3
v -0.5 0.4 0.1
v -0.5 0.4 -0.2
v -0.5 0.5 0.2
v -0.5 0.5 0.1
v -0.5 0.5 -0.2
v -0.5 0.5 -0.3
v -0.5 1 0.2
v -0.5 1 0.1
v -0.5 1 -0.2
v -0.5 1 -0.3
v -0.5 1.1 0.1
v -0.5 1.1 -0.2
v -0.2 0.2 0.3
v -0.2 0.2 -0.3
v -0.2 0.3 0.5
v -0.2 0.3 0.3
v -0.2 0.3 0.1
v -0.2 0.3 -0.2
v -0.2 0.3 -0.3
v -0.2 0.3 -0.5
v -0.2 0.4 0.2
v -0.2 0.4 0.1
v -0.2 0.4 -0.2
v -0.2 0.4 -0.3
v -0.2 0.4 -0.5
v -0.2 0.4 -0.6
v -0.2 0.5 0.3
v -0.2 0.5 0.2
v -0.2 0.5 -0.3
v -0.2 0.5 -0.4
v -0.2 0.7 0.5
v -0.2 0.7 0.3
v -0.2 0.7 -0.4
v -0.2 0.7 -0.6
v -0.1 0.2 0.4
v -0.1 0.2 0.3
v -0.1 0.2 -0.3
v -0.1 0.2 -0.5
v -0.1 0.3 0.4
v -0.1 0.3 0.3
v -0.1 0.3 -0.3
v -0.1 0.3 -0.5
v -0.1 0.7 0.5
v -0.1 0.7 0.3
v -0.1 0.7 -0.4
v -0.1 0.7 -0.6
v -0.1 0.8 0.5
v -0.1 0.8 0.3
v -0.1 0.8 -0.4
v -0.1 0.8 -0.6
v 5.96046e-08 0.1 0.3
v 5.96046e-08 0.1 -0.4
v 5.96046e-08 0.2 0.3
v 5.96046e-08 0.2 -0.4
v 5.96046e-08 0.8 0.4
v 5.96046e-08 0.8 0.3
v 5.96046e-08 0.8 -0.4
v 5.96046e-08 0.8 -0.5
v 5.96046e-08 0.9 0.4
v 5.96046e-08 0.9 0.3
v 5.96046e-08 0.9 -0.4
v 5.96046e-08 0.9 -0.5
v 0.1 1.1 -0.2
v 0.1 1.1 -0.3
v 0.1 1.2 -0.2
v 0.1 1.2 -0.3
v 0.2 1.2 -0.1
v 0.2 1.2 -0.2
v 0.2 1.3 -0.1
v 0.2 1.3 -0.2
v 0.3 0 0.2
v 0.3 0 -0.2
v 0.3 0.1 0.2
v 0.3 0.1 -0.2
v 0.3 1.3 -0.1
v 0.3 1.3 -0.2
v 0.3 1.4 -0.1
v 0.3 1.4 -0.2
v 0.6 1.4 -0.1
v 0.6 1.4 -0.2
v 0.6 1.5 -0.1
v 0.6 1.5 -0.2
v 0.8 0.3 -0.5
v 0.8 0.3 -0.6
v 0.8 0.4 -0.5
v 0.8 0.4 -0.6
v 0.3 1.1 0.1
v 0.3 1.1 -0.1
v 0.3 1.1 -0.2
v 0.3 1.1 -0.3
v 0.3 1.2 0.1
v 0.3 1.2 -0.1
v 0.3 1.2 -0.2
v 0.3 1.2 -0.3
v 0.3 1.3 -0.1
v 0.3 1.3 -0.2
v 0.4 1.1 -0.1
v 0.4 1.1 -0.2
v 0.4 1.2 -0.1
v 0.4 1.2 -0.2
v 0.5 1 0.2
v 0.5 1 -0.3
v 0.5 1.1 0.2
v 0.5 1.1 -0.3
v 0.6 0 0.2
v 0.6 0 -0.2
v 0.6 0.1 0.2
v 0.6 0.1 -0.2
v 0.6 1.3 -0.1
v 0.6 1.3 -0.2
v 0.6 1.4 -0.1
v 0.6 1.4 -0.2
v 0.7 0.9 0.3
v 0.7 0.9 -0.4
v 0.7 1 0.3
v 0.7 1 -0.4
v 0.7 1.4 -0.1
v 0.7 1.4 -0.2
v 0.7 1.5 -0.1
v 0.7 1.5 -0.2
v 0.8 0.1 0.3
v 0.8 0.1 -0.4
v 0.8 0.2 0.3
v 0.8 0.2 -0.4
v 0.9 0.2 0.4
v 0.9 0.2 -0.5
v 0.9 0.3 0.4
v 0.9 0.3 -0.5
v 0.9 0.8 0.4
v 0.9 0.8 -0.5
v 0.9 0.9 0.4
v 0.9 0.9 -0.5
v 1 0.3 0.5
v 1 0.3 -0.6
v 1 0.8 0.5
v 1 0.8 -0.6
v -0.2 0.3 0.5
v -0.2 0.7 0.5
v -0.1 0.7 0.5
v -0.1 0.8 0.5
v 1 0.3 0.5
v 1 0.8 0.5
v -0.1 0.2 0.4
v -0.1 0.3 0.4
v 5.96046e-08 0.8 0.4
v 5.96046e-08 0.9 0.4
v 0.9 0.2 0.4
v 0.9 0.3 0.4
v 0.9 0.8 0.4
v 0.9 0.9 0.4
v -0.8 0.5 0.3
v -0.8 1 0.3
v -0.2 0.2 0.3
v -0.2 0.3 0.3
v -0.2 0.5 0.3
v -0.2 0.7 0.3
v -0.1 0.2 0.3
v -0.1 0.3 0.3
v -0.1 0.7 0.3
v -0.1 0.8 0.3
v 5.96046e-08 0.1 0.3
v 5.96046e-08 0.2 0.3
v 5.96046e-08 0.8 0.3
v 5.96046e-08 0.9 0.3
v 0.7 0.9 0.3
v 0.7 1 0.3
v 0.8 0.1 0.3
v 0.8 0.2 0.3
v -0.8 0.4 0.2
v -0.8 0.5 0.2
v -0.8 1 0.2
v -0.8 1.1 0.2
v -0.2 0.4 0.2
v -0.2 0.5 0.2
v 0.3 0 0.2
v 0.3 0.1 0.2
v 0.5 1 0.2
v 0.5 1.1 0.2
v 0.6 0 0.2
v 0.6 0.1 0.2
v -0.8 0.3 0.1
v -0.8 0.4 0.1
v -0.8 1.1 0.1
v -0.8 1.2 0.1
v -0.2 0.3 0.1
v -0.2 0.4 0.1
v 0.3 1.1 0.1
v 0.3 1.2 0.1
v 0.2 1.2 -0.1
v 0.2 1.3 -0.1
v 0.3 1.1 -0.1
v 0.3 1.2 -0.1
v 0.3 1.3 -0.1
v 0.3 1.4 -0.1
v 0.4 1.1 -0.1
v 0.4 1.2 -0.1
v 0.6 1.3 -0.1
v 0.6 1.4 -0.1
v 0.6 1.5 -0.1
v 0.7 1.4 -0.1
v 0.7 1.5 -0.1
v -0.8 0.4 -0.2
v -0.8 0.5 -0.2
v -0.7 1 -0.2
v -0.7 1.1 -0.2
v -0.5 0.4 -0.2
v -0.5 0.5 -0.2
v -0.5 1 -0.2
v -0.5 1.1 -0.2
v -0.8 0.5 -0.3
v -0.8 1 -0.3
v -0.7 1 -0.3
v -0.5 0.5 -0.3
v -0.5 1 -0.3
v -0.8 0.5 0.2
v -0.8 1 0.2
v -0.5 0.5 0.2
v -0.5 1 0.2
v -0.8 0.4 0.1
v -0.8 0.5 0.1
v -0.8 1 0.1
v -0.8 1.1 0.1
v -0.5 0.4 0.1
v -0.5 0.5 0.1
v -0.5 1 0.1
v -0.5 1.1 0.1
v -0.8 0.3 -0.2
v -0.8 0.4 -0.2
v -0.8 1.1 -0.2
v -0.8 1.2 -0.2
v -0.7 1.1 -0.2
v -0.2 0.3 -0.2
v -0.2 0.4 -0.2
v 0.1 1.1 -0.2
v 0.1 1.2 -0.2
v 0.2 1.2 -0.2
v 0.2 1.3 -0.2
v 0.3 0 -0.2
v 0.3 0.1 -0.2
v 0.3 1.1 -0.2
v 0.3 1.2 -0.2
v 0.3 1.3 -0.2
v 0.3 1.4 -0.2
v 0.4 1.1 -0.2
v 0.4 1.2 -0.2
v 0.6 0 -0.2
v 0.6 0.1 -0.2
v 0.6 1.3 -0.2
v 0.6 1.4 -0.2
v 0.6 1.5 -0.2
v 0.7 1.4 -0.2
v 0.7 1.5 -0.2
v -0.8 0.4 -0.3
v -0.8 0.5 -0.3
v -0.7 1 -0.3
v -0.7 1.1 -0.3
v -0.2 0.2 -0.3
v -0.2 0.3 -0.3
v -0.2 0.4 -0.3
v -0.2 0.5 -0.3
v -0.1 0.2 -0.3
v -0.1 0.3 -0.3
v 0.1 1.1 -0.3
v 0.1 1.2 -0.3
v 0.3 1.1 -0.3
v 0.3 1.2 -0.3
v 0.5 1 -0.3
v 0.5 1.1 -0.3
v -0.8 0.5 -0.4
v -0.8 1 -0.4
v -0.2 0.5 -0.4
v -0.2 0.7 -0.4
v -0.1 0.7 -0.4
v -0.1 0.8 -0.4
v 5.96046e-08 0.1 -0.4
v 5.96046e-08 0.2 -0.4
v 5.96046e-08 0.8 -0.4
v 5.96046e-08 0.9 -0.4
v 0.7 0.9 -0.4
v 0.7 1 -0.4
v 0.8 0.1 -0.4
v 0.8 0.2 -0.4
v -0.2 0.3 -0.5
v -0.2 0.4 -0.5
v -0.1 0.2 -0.5
v -0.1 0.3 -0.5
v 5.96046e-08 0.8 -0.5
v 5.96046e-08 0.9 -0.5
v 0.8 0.3 -0.5
v 0.8 0.4 -0.5
v 0.9 0.2 -0.5
v 0.9 0.3 -0.5
v 0.9 0.8 -0.5
v 0.9 0.9 -0.5
v -0.2 0.4 -0.6
v -0.2 0.7 -0.6
v -0.1 0.7 -0.6
v -0.1 0.8 -0.6
v 0.8 0.3 -0.6
v 0.8 0.4 -0.6
v 1 0.3 -0.6
v 1 0.8 -0.6
v 0.3 0 0.2
v 0.6 0 0.2
v 0.3 0 -0.2
v 0.6 0 -0.2
v 5.96046e-08 0.1 0.3
v 0.8 0.1 0.3
v 0.3 0.1 0.2
v 0.6 0.1 0.2
v 0.3 0.1 -0.2
v 0.6 0.1 -0.2
v 5.96046e-08 0.1 -0.4
v 0.8 0.1 -0.4
v -0.1 0.2 0.4
v 0.9 0.2 0.4
v -0.2 0.2 0.3
v -0.1 0.2 0.3
v 5.96046e-08 0.2 0.3
v 0.8 0.2 0.3
v -0.2 0.2 -0.3
v -0.1 0.2 -0.3
v 5.96046e-08 0.2 -0.4
v 0.8 0.2 -0.4
v -0.1 0.2 -0.5
v 0.9 0.2 -0.5
v -0.2 0.3 0.5
v 1 0.3 0.5
v -0.1 0.3 0.4
v 0.9 0.3 0.4
v -0.2 0.3 0.3
v -0.1 0.3 0.3
v -0.8 0.3 0.1
v -0.2 0.3 0.1
v -0.8 0.3 -0.2
v -0.2 0.3 -0.2
v -0.2 0.3 -0.3
v -0.1 0.3 -0.3
v -0.2 0.3 -0.5
v -0.1 0.3 -0.5
v 0.8 0.3 -0.5
v 0.9 0.3 -0.5
v 0.8 0.3 -0.6
v 1 0.3 -0.6
v -0.8 0.4 0.2
v -0.2 0.4 0.2
v -0.8 0.4 0.1
v -0.2 0.4 0.1
v -0.8 0.4 -0.2
v -0.2 0.4 -0.2
v -0.8 0.4 -0.3
v -0.2 0.4 -0.3
v -0.2 0.4 -0.5
v 0.8 0.4 -0.5
v -0.2 0.4 -0.6
v 0.8 0.4 -0.6
v -0.8 0.5 0.3
v -0.2 0.5 0.3
v -0.8 0.5 0.2
v -0.2 0.5 0.2
v -0.8 0.5 -0.3
v -0.2 0.5 -0.3
v -0.8 0.5 -0.4
v -0.2 0.5 -0.4
v -0.8 1 0.2
v -0.5 1 0.2
v -0.8 1 0.1
v -0.5 1 0.1
v -0.7 1 -0.2
v -0.5 1 -0.2
v -0.7 1 -0.3
v -0.5 1 -0.3
v -0.8 1.1 0.1
v -0.5 1.1 0.1
v -0.8 1.1 -0.2
v -0.7 1.1 -0.2
v -0.5 1.1 -0.2
v 0.3 1.3 -0.1
v 0.6 1.3 -0.1
v 0.3 1.3 -0.2
v 0.6 1.3 -0.2
v 0.6 1.4 -0.1
v 0.7 1.4 -0.1
v 0.6 1.4 -0.2
v 0.7 1.4 -0.2
v -0.8 0.4 0.1
v -0.5 0.4 0.1
v -0.8 0.4 -0.2
v -0.5 0.4 -0.2
v -0.8 0.5 0.2
v -0.5 0.5 0.2
v -0.8 0.5 0.1
v -0.5 0.5 0.1
v -0.8 0.5 -0.2
v -0.5 0.5 -0.2
v -0.8 0.5 -0.3
v -0.5 0.5 -0.3
v -0.2 0.7 0.5
v -0.1 0.7 0.5
v -0.2 0.7 0.3
v -0.1 0.7 0.3
v -0.2 0.7 -0.4
v -0.1 0.7 -0.4
v -0.2 0.7 -0.6
v -0.1 0.7 -0.6
v -0.1 0.8 0.5
v 1 0.8 0.5
v 5.96046e-08 0.8 0.4
v 0.9 0.8 0.4
v -0.1 0.8 0.3
v 5.96046e-08 0.8 0.3
v -0.1 0.8 -0.4
v 5.96046e-08 0.8 -0.4
v 5.96046e-08 0.8 -0.5
v 0.9 0.8 -0.5
v -0.1 0.8 -0.6
v 1 0.8 -0.6
v 5.96046e-08 0.9 0.4
v 0.9 0.9 0.4
v 5.96046e-08 0.9 0.3
v 0.7 0.9 0.3
v 0.8 0.9 0.3
v 5.96046e-08 0.9 -0.4
v 0.7 0.9 -0.4
v 0.8 0.9 -0.4
v 5.96046e-08 0.9 -0.5
v 0.9 0.9 -0.5
v -0.8 1 0.3
v 0.7 1 0.3
v -0.8 1 0.2
v 0.5 1 0.2
v -0.8 1 -0.3
v -0.7 1 -0.3
v 0.5 1 -0.3
v -0.8 1 -0.4
v 0.7 1 -0.4
v -0.8 1.1 0.2
v 0.5 1.1 0.2
v -0.8 1.1 0.1
v 0.3 1.1 0.1
v 0.3 1.1 -0.1
v 0.4 1.1 -0.1
v -0.7 1.1 -0.2
v 0.1 1.1 -0.2
v 0.3 1.1 -0.2
v 0.4 1.1 -0.2
v -0.7 1.1 -0.3
v 0.1 1.1 -0.3
v 0.3 1.1 -0.3
v 0.5 1.1 -0.3
v -0.8 1.2 0.1
v 0.3 1.2 0.1
v 0.2 1.2 -0.1
v 0.3 1.2 -0.1
v 0.4 1.2 -0.1
v -0.8 1.2 -0.2
v 0.1 1.2 -0.2
v 0.2 1.2 -0.2
v 0.3 1.2 -0.2
v 0.4 1.2 -0.2
v 0.1 1.2 -0.3
v 0.3 1.2 -0.3
v 0.2 1.3 -0.1
v 0.3 1.3 -0.1
v 0.2 1.3 -0.2
v 0.3 1.3 -0.2
v 0.3 1.4 -0.1
v 0.6 1.4 -0.1
v 0.3 1.4 -0.2
v 0.6 1.4 -0.2
v 0.6 1.5 -0.1
v 0.7 1.5 -0.1
v 0.6 1.5 -0.2
v 0.7 1.5 -0.2

# faces
f 4/2/1 2/2/1 1/2/1
f 5/2/1 2/2/1 4/2/1
f 8/2/1 4/2/1 3/2/1
f 9/2/1 4/2/1 8/2/1
f 10/2/1 6/2/1 5/2/1
f 11/2/1 6/2/1 10/2/1
f 13/2/1 8/2/1 7/2/1
f 14/2/1 8/2/1 13/2/1
f 16/2/1 12/2/1 11/2/1
f 17/2/1 12/2/1 16/2/1
f 18/2/1 15/2/1 14/2/1
f 19/2/1 15/2/1 18/2/1
f 21/2/1 20/2/1 19/2/1
f 22/2/1 20/2/1 21/2/1
f 25/2/1 24/2/1 23/2/1
f 26/2/1 24/2/1 25/2/1
f 30/2/1 28/2/1 27/2/1
f 31/2/1 28/2/1 30/2/1
f 33/2/1 30/2/1 29/2/1
f 33/2/1 32/2/1 31/2/1
f 33/2/1 31/2/1 30/2/1
f 34/2/1 32/2/1 33/2/1
f 35/2/1 32/2/1 34/2/1
f 36/2/1 32/2/1 35/2/1
f 37/2/1 35/2/1 34/2/1
f 38/2/1 35/2/1 37/2/1
f 42/3/1 40/3/1 39/3/1
f 43/3/1 40/3/1 42/3/1
f 44/3/1 40/3/1 43/3/1
f 45/3/1 40/3/1 44/3/1
f 47/3/1 42/3/1 41/3/1
f 47/3/1 43/3/1 42/3/1
f 48/3/1 43/3/1 47/3/1
f 49/3/1 46/3/1 45/3/1
f 49/3/1 45/3/1 44/3/1
f 50/3/1 46/3/1 49/3/1
f 51/3/1 46/3/1 50/3/1
f 53/3/1 47/3/1 41/3/1
f 54/3/1 47/3/1 53/3/1
f 55/3/1 52/3/1 51/3/1
f 55/3/1 51/3/1 50/3/1
f 56/3/1 52/3/1 55/3/1
f 57/3/1 53/3/1 41/3/1
f 58/3/1 53/3/1 57/3/1
f 59/3/1 52/3/1 56/3/1
f 60/3/1 52/3/1 59/3/1
f 65/3/1 62/3/1 61/3/1
f 66/3/1 62/3/1 65/3/1
f 67/3/1 64/3/1 63/3/1
f 68/3/1 64/3/1 67/3/1
f 73/3/1 70/3/1 69/3/1
f 74/3/1 70/3/1 73/3/1
f 75/3/1 72/3/1 71/3/1
f 76/3/1 72/3/1 75/3/1
f 79/3/1 78/3/1 77/3/1
f 80/3/1 78/3/1 79/3/1
f 85/3/1 82/3/1 81/3/1
f 86/3/1 82/3/1 85/3/1
f 87/3/1 84/3/1 83/3/1
f 88/3/1 84/3/1 87/3/1
f 91/1/1 90/1/1 89/1/1
f 92/1/1 90/1/1 91/1/1
f 95/1/1 94/1/1 93/1/1
f 96/1/1 94/1/1 95/1/1
f 99/3/1 98/3/1 97/3/1
f 100/3/1 98/3/1 99/3/1
f 103/1/1 102/1/1 101/1/1
f 104/1/1 102/1/1 103/1/1
f 107/1/1 106/1/1 105/1/1
f 108/1/1 106/1/1 107/1/1
f 111/3/1 110/3/1 109/3/1
f 112/3/1 110/3/1 111/3/1
f 113/2/2 114/2/2 117/2/2
f 117/2/2 114/2/2 118/2/2
f 115/1/2 116/1/2 119/1/2
f 119/1/2 116/1/2 120/1/2
f 118/1/2 119/1/2 121/1/2
f 121/1/2 119/1/2 122/1/2
f 123/1/2 124/1/2 125/1/2
f 125/1/2 124/1/2 126/1/2
f 127/2/2 128/2/2 129/2/2
f 129/2/2 128/2/2 130/2/2
f 131/3/2 132/3/2 133/3/2
f 133/3/2 132/3/2 134/3/2
f 135/1/2 136/1/2 137/1/2
f 137/1/2 136/1/2 138/1/2
f 139/2/2 140/2/2 141/2/2
f 141/2/2 140/2/2 142/2/2
f 143/1/2 144/1/2 145/1/2
f 145/1/2 144/1/2 146/1/2
f 147/3/2 148/3/2 149/3/2
f 149/3/2 148/3/2 150/3/2
f 151/3/2 152/3/2 153/3/2
f 153/3/2 152/3/2 154/3/2
f 155/3/2 156/3/2 157/3/2
f 157/3/2 156/3/2 158/3/2
f 159/3/2 160/3/2 161/3/2
f 161/3/2 160/3/2 162/3/2
f 165/3/3 164/3/3 163/3/3
f 167/3/3 165/3/3 163/3/3
f 167/3/3 166/3/3 165/3/3
f 168/3/3 166/3/3 167/3/3
f 173/3/3 170/3/3 169/3/3
f 174/3/3 170/3/3 173/3/3
f 175/3/3 172/3/3 171/3/3
f 176/3/3 172/3/3 175/3/3
f 181/2/3 178/2/3 177/2/3
f 182/2/3 178/2/3 181/2/3
f 183/3/3 180/3/3 179/3/3
f 184/3/3 180/3/3 183/3/3
f 185/2/3 178/2/3 182/2/3
f 186/2/3 178/2/3 185/2/3
f 189/2/3 178/2/3 186/2/3
f 190/2/3 178/2/3 189/2/3
f 191/2/3 178/2/3 190/2/3
f 192/2/3 178/2/3 191/2/3
f 193/3/3 188/3/3 187/3/3
f 194/3/3 188/3/3 193/3/3
f 199/2/3 196/2/3 195/2/3
f 200/2/3 196/2/3 199/2/3
f 203/2/3 198/2/3 197/2/3
f 204/2/3 198/2/3 203/2/3
f 205/3/3 202/3/3 201/3/3
f 206/3/3 202/3/3 205/3/3
f 211/2/3 208/2/3 207/2/3
f 212/2/3 208/2/3 211/2/3
f 213/2/3 210/2/3 209/2/3
f 214/2/3 210/2/3 213/2/3
f 218/1/3 216/1/3 215/1/3
f 219/1/3 216/1/3 218/1/3
f 221/1/3 218/1/3 217/1/3
f 222/1/3 218/1/3 221/1/3
f 223/1/3 220/1/3 219/1/3
f 224/1/3 220/1/3 223/1/3
f 226/1/3 225/1/3 224/1/3
f 227/1/3 225/1/3 226/1/3
f 232/2/3 229/2/3 228/2/3
f 233/2/3 229/2/3 232/2/3
f 234/2/3 231/2/3 230/2/3
f 235/2/3 231/2/3 234/2/3
f 238/2/3 237/2/3 236/2/3
f 239/2/3 238/2/3 236/2/3
f 240/2/3 238/2/3 239/2/3
f 241/2/4 242/2/4 243/2/4
f 243/2/4 242/2/4 244/2/4
f 245/2/4 246/2/4 249/2/4
f 249/2/4 246/2/4 250/2/4
f 247/2/4 248/2/4 251/2/4
f 251/2/4 248/2/4 252/2/4
f 255/2/4 256/2/4 257/2/4
f 253/2/4 254/2/4 258/2/4
f 258/2/4 254/2/4 259/2/4
f 257/2/4 256/2/4 260/2/4
f 260/2/4 256/2/4 261/2/4
f 262/1/4 263/1/4 267/1/4
f 267/1/4 263/1/4 268/1/4
f 266/1/4 267/1/4 270/1/4
f 270/1/4 267/1/4 271/1/4
f 264/3/4 265/3/4 272/3/4
f 272/3/4 265/3/4 273/3/4
f 268/1/4 269/1/4 274/1/4
f 274/1/4 269/1/4 275/1/4
f 275/1/4 276/1/4 277/1/4
f 277/1/4 276/1/4 278/1/4
f 279/2/4 280/2/4 285/2/4
f 285/2/4 280/2/4 286/2/4
f 283/3/4 284/3/4 287/3/4
f 287/3/4 284/3/4 288/3/4
f 281/2/4 282/2/4 289/2/4
f 281/2/4 289/2/4 291/2/4
f 289/1/4 290/1/4 291/1/4
f 291/1/4 290/1/4 292/1/4
f 281/2/4 291/2/4 293/2/4
f 293/2/4 291/2/4 294/2/4
f 295/2/4 296/2/4 297/2/4
f 297/2/4 296/2/4 298/2/4
f 298/2/4 296/2/4 299/2/4
f 299/2/4 296/2/4 300/2/4
f 300/2/4 296/2/4 303/2/4
f 303/2/4 296/2/4 304/2/4
f 304/2/4 296/2/4 305/2/4
f 305/2/4 296/2/4 306/2/4
f 301/3/4 302/3/4 307/3/4
f 307/3/4 302/3/4 308/3/4
f 309/3/4 310/3/4 312/3/4
f 312/3/4 310/3/4 315/3/4
f 311/3/4 312/3/4 315/3/4
f 315/3/4 310/3/4 316/3/4
f 311/3/4 315/3/4 317/3/4
f 317/3/4 315/3/4 318/3/4
f 313/3/4 314/3/4 319/3/4
f 319/3/4 314/3/4 320/3/4
f 321/3/4 322/3/4 323/3/4
f 321/3/4 323/3/4 326/3/4
f 323/3/4 324/3/4 326/3/4
f 325/3/4 326/3/4 327/3/4
f 326/3/4 324/3/4 328/3/4
f 327/3/4 326/3/4 328/3/4
f 331/3/5 330/3/5 329/3/5
f 332/3/5 330/3/5 331/3/5
f 335/3/5 334/3/5 333/3/5
f 336/3/5 334/3/5 335/3/5
f 337/3/5 335/3/5 333/3/5
f 338/3/5 334/3/5 336/3/5
f 339/3/5 337/3/5 333/3/5
f 339/3/5 338/3/5 337/3/5
f 340/3/5 334/3/5 338/3/5
f 340/3/5 338/3/5 339/3/5
f 344/3/5 342/3/5 341/3/5
f 345/3/5 342/3/5 344/3/5
f 346/3/5 342/3/5 345/3/5
f 347/3/5 344/3/5 343/3/5
f 347/3/5 345/3/5 344/3/5
f 348/3/5 345/3/5 347/3/5
f 349/3/5 345/3/5 348/3/5
f 350/3/5 342/3/5 346/3/5
f 351/3/5 349/3/5 348/3/5
f 351/3/5 350/3/5 349/3/5
f 352/3/5 342/3/5 350/3/5
f 352/3/5 350/3/5 351/3/5
f 355/3/5 354/3/5 353/3/5
f 356/3/5 354/3/5 355/3/5
f 357/3/5 355/3/5 353/3/5
f 358/3/5 355/3/5 357/3/5
f 361/2/5 360/2/5 359/2/5
f 362/2/5 360/2/5 361/2/5
f 365/3/5 364/3/5 363/3/5
f 366/3/5 364/3/5 365/3/5
f 368/3/5 354/3/5 356/3/5
f 369/3/5 368/3/5 367/3/5
f 370/3/5 354/3/5 368/3/5
f 370/3/5 368/3/5 369/3/5
f 373/2/5 372/2/5 371/2/5
f 374/2/5 372/2/5 373/2/5
f 377/2/5 376/2/5 375/2/5
f 378/2/5 376/2/5 377/2/5
f 381/3/5 380/3/5 379/3/5
f 382/3/5 380/3/5 381/3/5
f 385/2/5 384/2/5 383/2/5
f 386/2/5 384/2/5 385/2/5
f 389/2/5 388/2/5 387/2/5
f 390/2/5 388/2/5 389/2/5
f 393/2/5 392/2/5 391/2/5
f 394/2/5 392/2/5 393/2/5
f 397/2/5 396/2/5 395/2/5
f 398/2/5 396/2/5 397/2/5
f 401/2/5 400/2/5 399/2/5
f 402/2/5 400/2/5 401/2/5
f 403/2/5 400/2/5 402/2/5
f 406/1/5 405/1/5 404/1/5
f 407/1/5 405/1/5 406/1/5
f 410/1/5 409/1/5 408/1/5
f 411/1/5 409/1/5 410/1/5
f 412/2/6 413/2/6 414/2/6
f 414/2/6 413/2/6 415/2/6
f 416/2/6 417/2/6 418/2/6
f 418/2/6 417/2/6 419/2/6
f 420/2/6 421/2/6 422/2/6
f 422/2/6 421/2/6 423/2/6
f 424/3/6 425/3/6 426/3/6
f 426/3/6 425/3/6 427/3/6
f 428/3/6 429/3/6 430/3/6
f 430/3/6 429/3/6 431/3/6
f 432/3/6 433/3/6 434/3/6
f 434/3/6 433/3/6 435/3/6
f 432/3/6 434/3/6 436/3/6
f 436/3/6 434/3/6 437/3/6
f 438/3/6 439/3/6 440/3/6
f 435/3/6 433/3/6 441/3/6
f 438/3/6 440/3/6 442/3/6
f 440/3/6 441/3/6 442/3/6
f 441/3/6 433/3/6 443/3/6
f 442/3/6 441/3/6 443/3/6
f 444/3/6 445/3/6 446/3/6
f 446/3/6 445/3/6 447/3/6
f 447/3/6 445/3/6 448/3/6
f 447/2/6 448/2/6 450/2/6
f 448/3/6 445/3/6 451/3/6
f 450/2/6 448/2/6 451/2/6
f 449/3/6 450/3/6 452/3/6
f 450/3/6 451/3/6 452/3/6
f 451/3/6 445/3/6 453/3/6
f 452/3/6 451/3/6 453/3/6
f 454/2/6 455/2/6 456/2/6
f 456/2/6 455/2/6 457/2/6
f 457/2/6 455/2/6 460/2/6
f 458/2/6 459/2/6 461/2/6
f 459/2/6 460/2/6 461/2/6
f 460/2/6 455/2/6 462/2/6
f 461/2/6 460/2/6 462/2/6
f 463/2/6 464/2/6 465/2/6
f 465/2/6 464/2/6 466/2/6
f 466/2/6 464/2/6 467/2/6
f 467/2/6 464/2/6 468/2/6
f 468/2/6 464/2/6 472/2/6
f 469/2/6 470/2/6 473/2/6
f 473/2/6 470/2/6 474/2/6
f 471/2/6 472/2/6 475/2/6
f 472/2/6 464/2/6 476/2/6
f 475/2/6 472/2/6 476/2/6
f 477/2/6 478/2/6 479/2/6
f 479/2/6 478/2/6 480/2/6
f 477/2/6 479/2/6 482/2/6
f 482/2/6 479/2/6 483/2/6
f 483/2/6 479/2/6 484/2/6
f 480/1/6 481/1/6 485/1/6
f 485/1/6 481/1/6 486/1/6
f 483/1/6 484/1/6 487/1/6
f 484/1/6 485/1/6 487/1/6
f 487/1/6 485/1/6 488/1/6
f 489/1/6 490/1/6 491/1/6
f 491/1/6 490/1/6 492/1/6
f 493/1/6 494/1/6 495/1/6
f 495/1/6 494/1/6 496/1/6
f 497/1/6 498/1/6 499/1/6
f 499/1/6 498/1/6 500/1/6
