# MagicaVoxel @ Ephtracy

# group
o 

# material
mtllib Bullet_Enemy.mtl
usemtl palette

# normals
vn -1 0 0
vn 1 0 0
vn 0 0 1
vn 0 0 -1
vn 0 -1 0
vn 0 1 0

# texcoords
vt 0.794922 0.5
vt 0.861328 0.5

# verts
v -0.3 0.2 0
v -0.3 0.2 -0.2
v -0.3 0.2 -0.3
v -0.3 0.4 0
v -0.3 0.4 -0.2
v -0.3 0.4 -0.3
v -0.2 0.1 0.2
v -0.2 0.1 -0.2
v -0.2 0.1 -0.3
v -0.2 0.2 0
v -0.2 0.2 -0.2
v -0.2 0.2 -0.3
v -0.2 0.4 0
v -0.2 0.4 -0.2
v -0.2 0.4 -0.3
v -0.2 0.5 0.2
v -0.2 0.5 -0.2
v -0.2 0.5 -0.3
v -0.1 0 0
v -0.1 0 -0.2
v -0.1 0 -0.3
v -0.1 0.1 0
v -0.1 0.1 -0.2
v -0.1 0.1 -0.3
v -0.1 0.2 0.3
v -0.1 0.2 0.2
v -0.1 0.4 0.3
v -0.1 0.4 0.2
v -0.1 0.5 0.2
v -0.1 0.5 -0.2
v -0.1 0.5 -0.3
v -0.1 0.6 0.2
v -0.1 0.6 -0.2
v -0.1 0.6 -0.3
v 0.1 0 0
v 0.1 0 -0.2
v 0.1 0 -0.3
v 0.1 0.1 0
v 0.1 0.1 -0.2
v 0.1 0.1 -0.3
v 0.1 0.2 0.3
v 0.1 0.2 0.2
v 0.1 0.4 0.3
v 0.1 0.4 0.2
v 0.1 0.5 0.2
v 0.1 0.5 -0.2
v 0.1 0.5 -0.3
v 0.1 0.6 0.2
v 0.1 0.6 -0.2
v 0.1 0.6 -0.3
v 0.2 0.1 0.2
v 0.2 0.1 -0.2
v 0.2 0.1 -0.3
v 0.2 0.2 0
v 0.2 0.2 -0.2
v 0.2 0.2 -0.3
v 0.2 0.4 0
v 0.2 0.4 -0.2
v 0.2 0.4 -0.3
v 0.2 0.5 0.2
v 0.2 0.5 -0.2
v 0.2 0.5 -0.3
v 0.3 0.2 0
v 0.3 0.2 -0.2
v 0.3 0.2 -0.3
v 0.3 0.4 0
v 0.3 0.4 -0.2
v 0.3 0.4 -0.3
v -0.1 0.2 0.3
v -0.1 0.4 0.3
v 0.1 0.2 0.3
v 0.1 0.4 0.3
v -0.2 0.1 0.2
v -0.2 0.5 0.2
v -0.1 0.2 0.2
v -0.1 0.4 0.2
v -0.1 0.5 0.2
v -0.1 0.6 0.2
v 0.1 0.2 0.2
v 0.1 0.4 0.2
v 0.1 0.5 0.2
v 0.1 0.6 0.2
v 0.2 0.1 0.2
v 0.2 0.5 0.2
v -0.3 0.2 0
v -0.3 0.4 0
v -0.2 0.2 0
v -0.2 0.4 0
v -0.1 0 0
v -0.1 0.1 0
v 0.1 0 0
v 0.1 0.1 0
v 0.2 0.2 0
v 0.2 0.4 0
v 0.3 0.2 0
v 0.3 0.4 0
v -0.3 0.2 -0.3
v -0.3 0.4 -0.3
v -0.2 0.1 -0.3
v -0.2 0.2 -0.3
v -0.2 0.4 -0.3
v -0.2 0.5 -0.3
v -0.1 0 -0.3
v -0.1 0.1 -0.3
v -0.1 0.5 -0.3
v -0.1 0.6 -0.3
v 0.1 0 -0.3
v 0.1 0.1 -0.3
v 0.1 0.5 -0.3
v 0.1 0.6 -0.3
v 0.2 0.1 -0.3
v 0.2 0.2 -0.3
v 0.2 0.4 -0.3
v 0.2 0.5 -0.3
v 0.3 0.2 -0.3
v 0.3 0.4 -0.3
v -0.1 0 0
v 0.1 0 0
v -0.1 0 -0.2
v 0.1 0 -0.2
v -0.1 0 -0.3
v 0.1 0 -0.3
v -0.2 0.1 0.2
v 0.2 0.1 0.2
v -0.1 0.1 0
v 0.1 0.1 0
v -0.2 0.1 -0.2
v -0.1 0.1 -0.2
v 0.1 0.1 -0.2
v 0.2 0.1 -0.2
v -0.2 0.1 -0.3
v -0.1 0.1 -0.3
v 0.1 0.1 -0.3
v 0.2 0.1 -0.3
v -0.1 0.2 0.3
v 0.1 0.2 0.3
v -0.1 0.2 0.2
v 0.1 0.2 0.2
v -0.3 0.2 0
v -0.2 0.2 0
v 0.2 0.2 0
v 0.3 0.2 0
v -0.3 0.2 -0.2
v -0.2 0.2 -0.2
v 0.2 0.2 -0.2
v 0.3 0.2 -0.2
v -0.3 0.2 -0.3
v -0.2 0.2 -0.3
v 0.2 0.2 -0.3
v 0.3 0.2 -0.3
v -0.1 0.4 0.3
v 0.1 0.4 0.3
v -0.1 0.4 0.2
v 0.1 0.4 0.2
v -0.3 0.4 0
v -0.2 0.4 0
v 0.2 0.4 0
v 0.3 0.4 0
v -0.3 0.4 -0.2
v -0.2 0.4 -0.2
v 0.2 0.4 -0.2
v 0.3 0.4 -0.2
v -0.3 0.4 -0.3
v -0.2 0.4 -0.3
v 0.2 0.4 -0.3
v 0.3 0.4 -0.3
v -0.2 0.5 0.2
v -0.1 0.5 0.2
v 0.1 0.5 0.2
v 0.2 0.5 0.2
v -0.2 0.5 -0.2
v -0.1 0.5 -0.2
v 0.1 0.5 -0.2
v 0.2 0.5 -0.2
v -0.2 0.5 -0.3
v -0.1 0.5 -0.3
v 0.1 0.5 -0.3
v 0.2 0.5 -0.3
v -0.1 0.6 0.2
v 0.1 0.6 0.2
v -0.1 0.6 -0.2
v 0.1 0.6 -0.2
v -0.1 0.6 -0.3
v 0.1 0.6 -0.3

# faces
f 4/1/1 2/1/1 1/1/1
f 5/2/1 3/2/1 2/2/1
f 5/1/1 2/1/1 4/1/1
f 6/2/1 3/2/1 5/2/1
f 10/1/1 8/1/1 7/1/1
f 11/2/1 9/2/1 8/2/1
f 11/1/1 8/1/1 10/1/1
f 12/2/1 9/2/1 11/2/1
f 13/1/1 10/1/1 7/1/1
f 16/1/1 13/1/1 7/1/1
f 16/1/1 14/1/1 13/1/1
f 17/2/1 15/2/1 14/2/1
f 17/1/1 14/1/1 16/1/1
f 18/2/1 15/2/1 17/2/1
f 22/1/1 20/1/1 19/1/1
f 23/2/1 21/2/1 20/2/1
f 23/1/1 20/1/1 22/1/1
f 24/2/1 21/2/1 23/2/1
f 27/2/1 26/2/1 25/2/1
f 28/2/1 26/2/1 27/2/1
f 32/1/1 30/1/1 29/1/1
f 33/2/1 31/2/1 30/2/1
f 33/1/1 30/1/1 32/1/1
f 34/2/1 31/2/1 33/2/1
f 35/1/2 36/1/2 38/1/2
f 36/2/2 37/2/2 39/2/2
f 38/1/2 36/1/2 39/1/2
f 39/2/2 37/2/2 40/2/2
f 41/2/2 42/2/2 43/2/2
f 43/2/2 42/2/2 44/2/2
f 45/1/2 46/1/2 48/1/2
f 46/2/2 47/2/2 49/2/2
f 48/1/2 46/1/2 49/1/2
f 49/2/2 47/2/2 50/2/2
f 51/1/2 52/1/2 54/1/2
f 52/2/2 53/2/2 55/2/2
f 54/1/2 52/1/2 55/1/2
f 55/2/2 53/2/2 56/2/2
f 51/1/2 54/1/2 57/1/2
f 51/1/2 57/1/2 60/1/2
f 57/1/2 58/1/2 60/1/2
f 58/2/2 59/2/2 61/2/2
f 60/1/2 58/1/2 61/1/2
f 61/2/2 59/2/2 62/2/2
f 63/1/2 64/1/2 66/1/2
f 64/2/2 65/2/2 67/2/2
f 66/1/2 64/1/2 67/1/2
f 67/2/2 65/2/2 68/2/2
f 71/2/3 70/2/3 69/2/3
f 72/2/3 70/2/3 71/2/3
f 75/1/3 74/1/3 73/1/3
f 76/1/3 74/1/3 75/1/3
f 77/1/3 74/1/3 76/1/3
f 79/1/3 75/1/3 73/1/3
f 80/1/3 78/1/3 77/1/3
f 80/1/3 77/1/3 76/1/3
f 81/1/3 78/1/3 80/1/3
f 82/1/3 78/1/3 81/1/3
f 83/1/3 79/1/3 73/1/3
f 83/1/3 80/1/3 79/1/3
f 83/1/3 81/1/3 80/1/3
f 84/1/3 81/1/3 83/1/3
f 87/1/3 86/1/3 85/1/3
f 88/1/3 86/1/3 87/1/3
f 91/1/3 90/1/3 89/1/3
f 92/1/3 90/1/3 91/1/3
f 95/1/3 94/1/3 93/1/3
f 96/1/3 94/1/3 95/1/3
f 97/2/4 98/2/4 100/2/4
f 100/2/4 98/2/4 101/2/4
f 99/2/4 100/2/4 104/2/4
f 101/2/4 102/2/4 104/2/4
f 100/2/4 101/2/4 104/2/4
f 104/2/4 102/2/4 105/2/4
f 103/2/4 104/2/4 107/2/4
f 105/2/4 106/2/4 107/2/4
f 104/2/4 105/2/4 107/2/4
f 107/2/4 106/2/4 108/2/4
f 108/2/4 106/2/4 109/2/4
f 109/2/4 106/2/4 110/2/4
f 108/2/4 109/2/4 111/2/4
f 111/2/4 109/2/4 112/2/4
f 112/2/4 109/2/4 113/2/4
f 113/2/4 109/2/4 114/2/4
f 112/2/4 113/2/4 115/2/4
f 115/2/4 113/2/4 116/2/4
f 119/1/5 118/1/5 117/1/5
f 120/1/5 118/1/5 119/1/5
f 121/2/5 120/2/5 119/2/5
f 122/2/5 120/2/5 121/2/5
f 125/1/5 124/1/5 123/1/5
f 126/1/5 124/1/5 125/1/5
f 127/1/5 125/1/5 123/1/5
f 128/1/5 125/1/5 127/1/5
f 129/1/5 124/1/5 126/1/5
f 130/1/5 124/1/5 129/1/5
f 131/2/5 128/2/5 127/2/5
f 132/2/5 128/2/5 131/2/5
f 133/2/5 130/2/5 129/2/5
f 134/2/5 130/2/5 133/2/5
f 137/2/5 136/2/5 135/2/5
f 138/2/5 136/2/5 137/2/5
f 143/1/5 140/1/5 139/1/5
f 144/1/5 140/1/5 143/1/5
f 145/1/5 142/1/5 141/1/5
f 146/1/5 142/1/5 145/1/5
f 147/2/5 144/2/5 143/2/5
f 148/2/5 144/2/5 147/2/5
f 149/2/5 146/2/5 145/2/5
f 150/2/5 146/2/5 149/2/5
f 151/2/6 152/2/6 153/2/6
f 153/2/6 152/2/6 154/2/6
f 155/1/6 156/1/6 159/1/6
f 159/1/6 156/1/6 160/1/6
f 157/1/6 158/1/6 161/1/6
f 161/1/6 158/1/6 162/1/6
f 159/2/6 160/2/6 163/2/6
f 163/2/6 160/2/6 164/2/6
f 161/2/6 162/2/6 165/2/6
f 165/2/6 162/2/6 166/2/6
f 167/1/6 168/1/6 171/1/6
f 171/1/6 168/1/6 172/1/6
f 169/1/6 170/1/6 173/1/6
f 173/1/6 170/1/6 174/1/6
f 171/2/6 172/2/6 175/2/6
f 175/2/6 172/2/6 176/2/6
f 173/2/6 174/2/6 177/2/6
f 177/2/6 174/2/6 178/2/6
f 179/1/6 180/1/6 181/1/6
f 181/1/6 180/1/6 182/1/6
f 181/2/6 182/2/6 183/2/6
f 183/2/6 182/2/6 184/2/6
