# MagicaVoxel @ Ephtracy

# group
o 

# material
mtllib Station.mtl
usemtl palette

# normals
vn -1 0 0
vn 1 0 0
vn 0 0 1
vn 0 0 -1
vn 0 -1 0
vn 0 1 0

# texcoords
vt 0.939453 0.5
vt 0.943359 0.5
vt 0.970703 0.5
vt 0.974609 0.5

# verts
v -3.2 0 1.8
v -3.2 0 -1.8
v -3.2 2 2.8
v -3.2 2 2.6
v -3.2 2.2 2.8
v -3.2 2.2 2.6
v -3.2 2.2 -2.6
v -3.2 2.2 -2.9
v -3.2 2.3 2.9
v -3.2 2.3 2.6
v -3.2 2.3 -2.4
v -3.2 2.3 -2.6
v -3.2 2.3 -2.9
v -3.2 2.4 2.9
v -3.2 2.4 2.6
v -3.2 2.4 2.4
v -3.2 2.4 -2.2
v -3.2 2.4 -2.4
v -3.2 2.4 -2.6
v -3.2 2.5 2.6
v -3.2 2.5 2.4
v -3.2 2.5 2.2
v -3.2 2.5 -2
v -3.2 2.5 -2.2
v -3.2 2.5 -2.4
v -3.2 2.6 2.4
v -3.2 2.6 2.2
v -3.2 2.6 2
v -3.2 2.6 -1.8
v -3.2 2.6 -2
v -3.2 2.6 -2.2
v -3.2 2.7 2.2
v -3.2 2.7 2
v -3.2 2.7 1.8
v -3.2 2.7 -1.8
v -3.2 2.7 -2
v -3.2 2.8 2.4
v -3.2 2.8 2.2
v -3.2 2.8 2
v -3.2 2.8 1.8
v -3.2 2.8 -2.2
v -3.2 2.8 -2.4
v -3.2 2.9 2.4
v -3.2 2.9 2.2
v -3.2 2.9 1.9
v -3.2 2.9 -1.9
v -3.2 2.9 -2.2
v -3.2 2.9 -2.4
v -3.2 3 2.2
v -3.2 3 2
v -3.2 3 1.9
v -3.2 3 1.8
v -3.2 3 1.7
v -3.2 3 -1.7
v -3.2 3 -1.8
v -3.2 3 -1.9
v -3.2 3 -2
v -3.2 3 -2.2
v -3.2 3.1 2
v -3.2 3.1 1.8
v -3.2 3.1 1.7
v -3.2 3.1 1.4
v -3.2 3.1 -1.6
v -3.2 3.1 -1.7
v -3.2 3.1 -1.8
v -3.2 3.1 -2
v -3.2 3.2 1.8
v -3.2 3.2 1.5
v -3.2 3.2 1.4
v -3.2 3.2 1.3
v -3.2 3.2 -1.3
v -3.2 3.2 -1.6
v -3.2 3.2 -1.8
v -3.2 3.3 1.5
v -3.2 3.3 1.3
v -3.2 3.3 1.1
v -3.2 3.3 -1.1
v -3.2 3.3 -1.3
v -3.2 3.3 -1.6
v -3.2 3.4 1.3
v -3.2 3.4 1.1
v -3.2 3.4 0.9
v -3.2 3.4 -0.8
v -3.2 3.4 -1.1
v -3.2 3.4 -1.3
v -3.2 3.5 1.1
v -3.2 3.5 0.9
v -3.2 3.5 0.6
v -3.2 3.5 -0.5
v -3.2 3.5 -0.8
v -3.2 3.5 -0.9
v -3.2 3.5 -1.1
v -3.2 3.6 0.9
v -3.2 3.6 0.6
v -3.2 3.6 0.4
v -3.2 3.6 -0.4
v -3.2 3.6 -0.5
v -3.2 3.6 -0.6
v -3.2 3.6 -0.9
v -3.2 3.7 0.6
v -3.2 3.7 0.4
v -3.2 3.7 0.0999999
v -3.2 3.7 -0.2
v -3.2 3.7 -0.4
v -3.2 3.7 -0.6
v -3.2 3.8 0.4
v -3.2 3.8 0.0999999
v -3.2 3.8 -0.2
v -3.2 3.8 -0.4
v -3.2 3.9 0.0999999
v -3.2 3.9 -0.2
v -3.1 2.2 2.8
v -3.1 2.2 2.6
v -3.1 2.3 2.8
v -3.1 2.3 2.6
v -2.7 3.6 1.6
v -2.7 3.6 1.4
v -2.7 4.3 1.6
v -2.7 4.3 1.4
v -2.6 3.5 1.6
v -2.6 3.5 1.4
v -2.6 3.6 1.6
v -2.6 3.6 1.4
v -2.6 3.6 1.3
v -2.6 3.7 1.4
v -2.6 3.7 1.3
v -2.6 4.3 1.6
v -2.6 4.3 1.4
v -2.6 4.4 1.6
v -2.6 4.4 1.3
v -2.5 0 2.7
v -2.5 0 2.6
v -2.5 2 2.7
v -2.5 2 2.6
v -2.3 3.3 1.4
v -2.3 3.3 1.3
v -2.3 3.4 1.3
v -2.3 3.5 1.4
v -2.3 3.6 1.4
v -2.3 3.6 1.3
v -1.4 0.1 1.6
v -1.4 0.1 1.4
v -1.4 0.8 1.6
v -1.4 0.8 1.4
v -1.4 0.9 1.8
v -1.4 0.9 1.4
v -1.4 1.7 1.8
v -1.4 1.7 1.6
v -1.4 1.8 1.8
v -1.4 1.8 1.6
v -1.4 1.9 1.8
v -1.4 1.9 1.4
v -1.3 3.3 1.4
v -1.3 3.3 1.3
v -1.3 3.4 1.3
v -1.3 3.5 1.4
v -1.3 3.6 1.4
v -1.3 3.6 1.3
v -1.2 0 1.9
v -1.2 0 1.8
v -1.2 1.7 1.9
v -1.2 1.7 1.8
v -0.9 3.6 1.6
v -0.9 3.6 1.5
v -0.9 4.3 1.6
v -0.9 4.3 1.5
v -0.4 0.1 1.8
v -0.4 0.1 1.4
v -0.4 1.6 1.8
v -0.4 1.6 1.5
v -0.4 1.7 1.8
v -0.4 1.7 1.7
v -0.4 1.9 1.8
v -0.4 1.9 1.7
v -0.4 1.9 1.5
v -0.4 1.9 1.4
v 0.2 3.5 2
v 0.2 3.5 1.9
v 0.2 3.6 2
v 0.2 3.6 1.9
v 0.3 3.5 1.9
v 0.3 3.5 1.1
v 0.3 3.5 0.9
v 0.3 3.6 2
v 0.3 3.6 1.9
v 0.3 3.6 0.9
v 0.3 3.7 2
v 0.3 3.7 1.9
v 0.5 0 1.9
v 0.5 0 1.8
v 0.5 0.1 1.8
v 0.5 0.1 1.4
v 0.5 1.6 1.9
v 0.5 1.6 1.5
v 0.5 1.7 1.8
v 0.5 1.7 1.7
v 0.5 1.9 1.8
v 0.5 1.9 1.7
v 0.5 1.9 1.5
v 0.5 1.9 1.4
v 0.5 3.2 1.8
v 0.5 3.2 1.5
v 0.5 3.3 1.5
v 0.5 3.3 1.3
v 0.5 3.4 1.3
v 0.5 3.4 1.1
v 0.5 3.5 1.8
v 0.5 3.5 1.1
v 0.5 3.6 1.9
v 0.5 3.6 0.6
v 0.5 3.7 2
v 0.5 3.7 1.9
v 0.5 3.7 0.6
v 0.5 3.8 2
v 0.5 3.8 1.9
v 0.6 3.7 1.9
v 0.6 3.7 0.4
v 0.6 3.8 2
v 0.6 3.8 1.9
v 0.6 3.8 0.4
v 0.6 3.9 2
v 0.6 3.9 1.9
v 0.7 3.8 1.9
v 0.7 3.8 0.4
v 0.7 3.9 2
v 0.7 3.9 1.9
v 0.7 3.9 0.4
v 0.7 4 2
v 0.7 4 1.9
v 0.9 3.9 1.9
v 0.9 3.9 0.4
v 0.9 4 2
v 0.9 4 1.9
v 0.9 4 0.4
v 0.9 4.1 2
v 0.9 4.1 1.9
v 1 3.1 1.9
v 1 3.1 1.8
v 1 3.7 1.9
v 1 3.7 1.8
v 1 4 1.9
v 1 4 1.8
v 1 4.1 1.9
v 1 4.1 1.8
v 1.1 3.7 1.9
v 1.1 3.7 1.8
v 1.1 3.8 1.9
v 1.1 3.8 1.8
v 1.1 4 1.8
v 1.1 4 0.5
v 1.1 4.1 2
v 1.1 4.1 1.8
v 1.1 4.1 1.7
v 1.1 4.1 0.5
v 1.1 4.2 2
v 1.1 4.2 1.7
v 1.2 4 0.5
v 1.2 4 0.4
v 1.2 4.1 0.5
v 1.2 4.1 0.4
v 1.2 4.2 2
v 1.2 4.2 1.7
v 1.2 4.3 2
v 1.2 4.3 1.7
v 1.3 4.1 1.7
v 1.3 4.1 0.4
v 1.3 4.2 0.6
v 1.3 4.2 0.4
v 1.3 4.3 1.8
v 1.3 4.3 1.7
v 1.3 4.3 0.6
v 1.3 4.5 1.8
v 1.3 4.5 1.7
v 1.5 4 0.5
v 1.5 4 0.4
v 1.5 4.1 2
v 1.5 4.1 1.8
v 1.5 4.1 0.5
v 1.5 4.1 0.4
v 1.5 4.2 2
v 1.5 4.2 1.8
v 1.6 3.1 1.9
v 1.6 3.1 1.8
v 1.6 3.2 1.8
v 1.6 3.3 1.8
v 1.6 3.4 1.8
v 1.6 3.5 1.8
v 1.6 3.6 1.8
v 1.6 3.7 1.9
v 1.6 3.7 1.8
v 1.6 3.9 0.5
v 1.6 3.9 0.4
v 1.6 4 2
v 1.6 4 1.8
v 1.6 4 0.5
v 1.6 4 0.4
v 1.6 4.1 2
v 1.6 4.1 1.8
v 1.7 3.2 1.8
v 1.7 3.2 1.7
v 1.7 3.2 1.5
v 1.7 3.3 1.8
v 1.7 3.3 1.7
v 1.7 3.4 1.8
v 1.7 3.4 1.7
v 1.7 3.5 1.8
v 1.7 3.5 1.7
v 1.7 3.6 1.8
v 1.7 3.6 1.7
v 1.7 3.7 1.8
v 1.7 3.7 1.7
v 1.7 3.7 1.5
v 1.7 3.9 2
v 1.7 3.9 1.8
v 1.7 4 2
v 1.7 4 1.8
v 1.8 0 2.7
v 1.8 0 2.6
v 1.8 2 2.7
v 1.8 2 2.6
v 1.8 3.8 2
v 1.8 3.8 1.8
v 1.8 3.8 0.5
v 1.8 3.8 0.4
v 1.8 3.9 2
v 1.8 3.9 1.8
v 1.8 3.9 0.5
v 1.8 3.9 0.4
v 1.9 0.6 1.7
v 1.9 0.6 1.6
v 1.9 1.5 1.7
v 1.9 1.5 1.6
v 1.9 1.6 1.7
v 1.9 1.6 1.6
v 1.9 1.8 1.7
v 1.9 1.8 1.6
v 2 3.7 2
v 2 3.7 1.8
v 2 3.8 2
v 2 3.8 1.8
v 2.1 3.6 2
v 2.1 3.6 1.8
v 2.1 3.7 2
v 2.1 3.7 1.8
v 2.1 3.7 0.5
v 2.1 3.7 0.4
v 2.1 3.8 0.5
v 2.1 3.8 0.4
v 2.2 3.5 2
v 2.2 3.5 1.8
v 2.2 3.6 2
v 2.2 3.6 1.8
v 2.8 0.6 1.8
v 2.8 0.6 1.7
v 2.8 0.6 1.6
v 2.8 1.5 1.7
v 2.8 1.5 1.6
v 2.8 1.6 1.7
v 2.8 1.6 1.6
v 2.8 1.8 1.8
v 2.8 1.8 1.7
v 2.8 1.8 1.6
v 3 2.2 2.8
v 3 2.2 2.6
v 3 2.3 2.8
v 3 2.3 2.6
v -3 2.2 2.8
v -3 2.2 2.6
v -3 2.3 2.8
v -3 2.3 2.6
v -2.7 0.9 1.8
v -2.7 0.9 1.7
v -2.7 0.9 1.4
v -2.7 1.7 1.8
v -2.7 1.7 1.7
v -2.7 1.7 1.6
v -2.7 1.8 1.8
v -2.7 1.8 1.7
v -2.7 1.8 1.6
v -2.7 1.9 1.8
v -2.7 1.9 1.7
v -2.7 1.9 1.4
v -2.6 3.6 1.6
v -2.6 3.6 1.5
v -2.6 4.3 1.6
v -2.6 4.3 1.5
v -2.3 0 2.7
v -2.3 0 2.6
v -2.3 2 2.7
v -2.3 2 2.6
v -2.2 3.3 1.4
v -2.2 3.3 1.3
v -2.2 3.4 1.3
v -2.2 3.5 1.4
v -2.2 3.6 1.4
v -2.2 3.6 1.3
v -1.5 0.1 1.6
v -1.5 0.1 1.4
v -1.5 0.8 1.6
v -1.5 0.8 1.4
v -1.2 3.3 1.4
v -1.2 3.3 1.3
v -1.2 3.4 1.3
v -1.2 3.5 1.4
v -1.2 3.6 1.4
v -1.2 3.6 1.3
v -1.1 0 1.9
v -1.1 0 1.8
v -1.1 0.1 1.8
v -1.1 0.1 1.4
v -1.1 1.6 1.9
v -1.1 1.6 1.5
v -1.1 1.7 1.8
v -1.1 1.7 1.7
v -1.1 1.9 1.8
v -1.1 1.9 1.7
v -1.1 1.9 1.5
v -1.1 1.9 1.4
v -0.9 3.5 1.6
v -0.9 3.5 1.4
v -0.9 3.6 1.6
v -0.9 3.6 1.4
v -0.9 3.6 1.3
v -0.9 3.7 1.4
v -0.9 3.7 1.3
v -0.9 4.3 1.6
v -0.9 4.3 1.4
v -0.9 4.4 1.6
v -0.9 4.4 1.3
v -0.8 3.6 1.6
v -0.8 3.6 1.4
v -0.8 4.3 1.6
v -0.8 4.3 1.4
v -0.2 0.1 1.8
v -0.2 0.1 1.4
v -0.2 1.6 1.8
v -0.2 1.6 1.5
v -0.2 1.7 1.8
v -0.2 1.7 1.7
v -0.2 1.9 1.8
v -0.2 1.9 1.7
v -0.2 1.9 1.5
v -0.2 1.9 1.4
v 0.6 0 1.9
v 0.6 0 1.8
v 0.6 1.7 1.9
v 0.6 1.7 1.8
v 0.6 3.5 2
v 0.6 3.5 1.8
v 0.6 3.6 2
v 0.6 3.6 1.8
v 0.7 3.6 2
v 0.7 3.6 1.8
v 0.7 3.7 2
v 0.7 3.7 1.8
v 0.7 3.7 0.5
v 0.7 3.7 0.4
v 0.7 3.8 0.5
v 0.7 3.8 0.4
v 0.8 3.7 2
v 0.8 3.7 1.8
v 0.8 3.8 2
v 0.8 3.8 1.8
v 1 3.8 2
v 1 3.8 1.8
v 1 3.8 0.5
v 1 3.8 0.4
v 1 3.9 2
v 1 3.9 1.8
v 1 3.9 0.5
v 1 3.9 0.4
v 1.1 0.6 1.8
v 1.1 0.6 1.7
v 1.1 0.6 1.6
v 1.1 1.5 1.7
v 1.1 1.5 1.6
v 1.1 1.6 1.7
v 1.1 1.6 1.6
v 1.1 1.8 1.8
v 1.1 1.8 1.7
v 1.1 1.8 1.6
v 1.1 3.2 1.8
v 1.1 3.2 1.7
v 1.1 3.2 1.5
v 1.1 3.3 1.8
v 1.1 3.3 1.7
v 1.1 3.4 1.8
v 1.1 3.4 1.7
v 1.1 3.5 1.8
v 1.1 3.5 1.7
v 1.1 3.6 1.8
v 1.1 3.6 1.7
v 1.1 3.7 1.8
v 1.1 3.7 1.7
v 1.1 3.7 1.5
v 1.1 3.9 2
v 1.1 3.9 1.8
v 1.1 4 2
v 1.1 4 1.8
v 1.2 3.1 1.9
v 1.2 3.1 1.8
v 1.2 3.2 1.8
v 1.2 3.3 1.8
v 1.2 3.4 1.8
v 1.2 3.5 1.8
v 1.2 3.6 1.8
v 1.2 3.7 1.9
v 1.2 3.7 1.8
v 1.2 3.9 0.5
v 1.2 3.9 0.4
v 1.2 4 2
v 1.2 4 1.8
v 1.2 4 0.5
v 1.2 4 0.4
v 1.2 4.1 2
v 1.2 4.1 1.8
v 1.3 4 0.5
v 1.3 4 0.4
v 1.3 4.1 2
v 1.3 4.1 1.8
v 1.3 4.1 0.5
v 1.3 4.1 0.4
v 1.3 4.2 2
v 1.3 4.2 1.8
v 1.5 4.1 1.7
v 1.5 4.1 0.4
v 1.5 4.2 0.6
v 1.5 4.2 0.4
v 1.5 4.3 1.8
v 1.5 4.3 1.7
v 1.5 4.3 0.6
v 1.5 4.5 1.8
v 1.5 4.5 1.7
v 1.6 4.2 2
v 1.6 4.2 1.7
v 1.6 4.3 2
v 1.6 4.3 1.7
v 1.7 3.7 1.9
v 1.7 3.7 1.8
v 1.7 3.8 1.9
v 1.7 3.8 1.8
v 1.7 4 1.9
v 1.7 4 0.4
v 1.7 4.1 2
v 1.7 4.1 1.9
v 1.7 4.1 1.7
v 1.7 4.1 0.4
v 1.7 4.2 2
v 1.7 4.2 1.7
v 1.8 3.1 1.9
v 1.8 3.1 1.8
v 1.8 3.7 1.9
v 1.8 3.7 1.8
v 1.9 3.9 1.9
v 1.9 3.9 0.4
v 1.9 4 2
v 1.9 4 1.9
v 1.9 4 0.4
v 1.9 4.1 2
v 1.9 4.1 1.9
v 2 0 2.7
v 2 0 2.6
v 2 0.6 1.7
v 2 0.6 1.6
v 2 1.5 1.7
v 2 1.5 1.6
v 2 1.6 1.7
v 2 1.6 1.6
v 2 1.8 1.7
v 2 1.8 1.6
v 2 2 2.7
v 2 2 2.6
v 2.1 3.8 1.9
v 2.1 3.8 0.4
v 2.1 3.9 2
v 2.1 3.9 1.9
v 2.1 3.9 0.4
v 2.1 4 2
v 2.1 4 1.9
v 2.2 3.7 1.9
v 2.2 3.7 0.4
v 2.2 3.8 2
v 2.2 3.8 1.9
v 2.2 3.8 0.4
v 2.2 3.9 2
v 2.2 3.9 1.9
v 2.3 3.2 1.8
v 2.3 3.2 1.5
v 2.3 3.3 1.5
v 2.3 3.3 1.3
v 2.3 3.4 1.3
v 2.3 3.4 1.1
v 2.3 3.5 1.8
v 2.3 3.5 1.1
v 2.3 3.6 1.9
v 2.3 3.6 0.6
v 2.3 3.7 2
v 2.3 3.7 1.9
v 2.3 3.7 0.6
v 2.3 3.8 2
v 2.3 3.8 1.9
v 2.5 3.5 1.9
v 2.5 3.5 1.1
v 2.5 3.5 0.9
v 2.5 3.6 2
v 2.5 3.6 1.9
v 2.5 3.6 0.9
v 2.5 3.7 2
v 2.5 3.7 1.9
v 2.6 3.5 2
v 2.6 3.5 1.9
v 2.6 3.6 2
v 2.6 3.6 1.9
v 3.1 2.2 2.8
v 3.1 2.2 2.6
v 3.1 2.3 2.8
v 3.1 2.3 2.6
v 3.2 0 1.8
v 3.2 0 -1.8
v 3.2 2 2.8
v 3.2 2 2.6
v 3.2 2.2 2.8
v 3.2 2.2 2.6
v 3.2 2.2 -2.6
v 3.2 2.2 -2.9
v 3.2 2.3 2.9
v 3.2 2.3 2.6
v 3.2 2.3 -2.4
v 3.2 2.3 -2.6
v 3.2 2.3 -2.9
v 3.2 2.4 2.9
v 3.2 2.4 2.6
v 3.2 2.4 2.4
v 3.2 2.4 -2.2
v 3.2 2.4 -2.4
v 3.2 2.4 -2.6
v 3.2 2.5 2.6
v 3.2 2.5 2.4
v 3.2 2.5 2.2
v 3.2 2.5 -2
v 3.2 2.5 -2.2
v 3.2 2.5 -2.4
v 3.2 2.6 2.4
v 3.2 2.6 2.2
v 3.2 2.6 2
v 3.2 2.6 -1.8
v 3.2 2.6 -2
v 3.2 2.6 -2.2
v 3.2 2.7 2.2
v 3.2 2.7 2
v 3.2 2.7 1.8
v 3.2 2.7 -1.8
v 3.2 2.7 -2
v 3.2 2.8 2.4
v 3.2 2.8 2.2
v 3.2 2.8 2
v 3.2 2.8 1.8
v 3.2 2.8 -2.2
v 3.2 2.8 -2.4
v 3.2 2.9 2.4
v 3.2 2.9 2.2
v 3.2 2.9 1.9
v 3.2 2.9 -1.9
v 3.2 2.9 -2.2
v 3.2 2.9 -2.4
v 3.2 3 2.2
v 3.2 3 2
v 3.2 3 1.9
v 3.2 3 1.8
v 3.2 3 1.7
v 3.2 3 -1.7
v 3.2 3 -1.8
v 3.2 3 -1.9
v 3.2 3 -2
v 3.2 3 -2.2
v 3.2 3.1 2
v 3.2 3.1 1.8
v 3.2 3.1 1.7
v 3.2 3.1 1.5
v 3.2 3.1 -1.6
v 3.2 3.1 -1.7
v 3.2 3.1 -1.8
v 3.2 3.1 -2
v 3.2 3.2 1.8
v 3.2 3.2 1.5
v 3.2 3.2 1.3
v 3.2 3.2 -1.3
v 3.2 3.2 -1.6
v 3.2 3.2 -1.8
v 3.2 3.3 1.5
v 3.2 3.3 1.3
v 3.2 3.3 1.1
v 3.2 3.3 -1.1
v 3.2 3.3 -1.3
v 3.2 3.3 -1.6
v 3.2 3.4 1.3
v 3.2 3.4 1.1
v 3.2 3.4 0.9
v 3.2 3.4 -0.9
v 3.2 3.4 -1.1
v 3.2 3.4 -1.3
v 3.2 3.5 1.1
v 3.2 3.5 0.9
v 3.2 3.5 0.6
v 3.2 3.5 -0.6
v 3.2 3.5 -0.9
v 3.2 3.5 -1.1
v 3.2 3.6 0.9
v 3.2 3.6 0.6
v 3.2 3.6 0.4
v 3.2 3.6 -0.4
v 3.2 3.6 -0.6
v 3.2 3.6 -0.9
v 3.2 3.7 0.6
v 3.2 3.7 0.4
v 3.2 3.7 0.0999999
v 3.2 3.7 -0.2
v 3.2 3.7 -0.4
v 3.2 3.7 -0.6
v 3.2 3.8 0.4
v 3.2 3.8 0.0999999
v 3.2 3.8 -0.2
v 3.2 3.8 -0.4
v 3.2 3.9 0.0999999
v 3.2 3.9 -0.2
v -3.2 2.3 2.9
v -3.2 2.4 2.9
v 3.2 2.3 2.9
v 3.2 2.4 2.9
v -3.2 2 2.8
v -3.2 2.2 2.8
v -3.1 2.2 2.8
v -3.1 2.3 2.8
v -3 2.2 2.8
v -3 2.3 2.8
v 3 2.2 2.8
v 3 2.3 2.8
v 3.1 2.2 2.8
v 3.1 2.3 2.8
v 3.2 2 2.8
v 3.2 2.2 2.8
v -2.5 0 2.7
v -2.5 2 2.7
v -2.3 0 2.7
v -2.3 2 2.7
v 1.8 0 2.7
v 1.8 2 2.7
v 2 0 2.7
v 2 2 2.7
v -3.2 2.4 2.6
v -3.2 2.5 2.6
v 3.2 2.4 2.6
v 3.2 2.5 2.6
v -3.2 2.5 2.4
v -3.2 2.6 2.4
v -3.2 2.8 2.4
v -3.2 2.9 2.4
v 3.2 2.5 2.4
v 3.2 2.6 2.4
v 3.2 2.8 2.4
v 3.2 2.9 2.4
v -3.2 2.6 2.2
v -3.2 2.7 2.2
v -3.2 2.9 2.2
v -3.2 3 2.2
v 3.2 2.6 2.2
v 3.2 2.7 2.2
v 3.2 2.9 2.2
v 3.2 3 2.2
v -3.2 2.7 2
v -3.2 2.8 2
v -3.2 3 2
v -3.2 3.1 2
v 0.2 3.5 2
v 0.2 3.6 2
v 0.3 3.6 2
v 0.3 3.7 2
v 0.5 3.7 2
v 0.5 3.8 2
v 0.6 3.5 2
v 0.6 3.6 2
v 0.6 3.8 2
v 0.6 3.9 2
v 0.7 3.6 2
v 0.7 3.7 2
v 0.7 3.9 2
v 0.7 4 2
v 0.8 3.7 2
v 0.8 3.8 2
v 0.9 4 2
v 0.9 4.1 2
v 1 3.8 2
v 1 3.9 2
v 1.1 3.9 2
v 1.1 4 2
v 1.1 4.1 2
v 1.1 4.2 2
v 1.2 4 2
v 1.2 4.1 2
v 1.2 4.2 2
v 1.2 4.3 2
v 1.3 4.1 2
v 1.3 4.2 2
v 1.5 4.1 2
v 1.5 4.2 2
v 1.6 4 2
v 1.6 4.1 2
v 1.6 4.2 2
v 1.6 4.3 2
v 1.7 3.9 2
v 1.7 4 2
v 1.7 4.1 2
v 1.7 4.2 2
v 1.8 3.8 2
v 1.8 3.9 2
v 1.9 4 2
v 1.9 4.1 2
v 2 3.7 2
v 2 3.8 2
v 2.1 3.6 2
v 2.1 3.7 2
v 2.1 3.9 2
v 2.1 4 2
v 2.2 3.5 2
v 2.2 3.6 2
v 2.2 3.8 2
v 2.2 3.9 2
v 2.3 3.7 2
v 2.3 3.8 2
v 2.5 3.6 2
v 2.5 3.7 2
v 2.6 3.5 2
v 2.6 3.6 2
v 3.2 2.7 2
v 3.2 2.8 2
v 3.2 3 2
v 3.2 3.1 2
v -1.2 0 1.9
v -1.2 1.7 1.9
v -1.1 0 1.9
v -1.1 1.6 1.9
v 0.5 0 1.9
v 0.5 1.6 1.9
v 0.6 0 1.9
v 0.6 1.7 1.9
v 1 3.1 1.9
v 1 3.7 1.9
v 1.1 3.7 1.9
v 1.1 3.8 1.9
v 1.2 3.1 1.9
v 1.2 3.7 1.9
v 1.6 3.1 1.9
v 1.6 3.7 1.9
v 1.7 3.7 1.9
v 1.7 3.8 1.9
v 1.8 3.1 1.9
v 1.8 3.7 1.9
v -3.2 0 1.8
v -3.2 2.7 1.8
v -3.2 2.8 1.8
v -3.2 3 1.8
v -3.2 3.1 1.8
v -3.2 3.2 1.8
v -2.7 0.9 1.8
v -2.7 1.7 1.8
v -2.7 1.8 1.8
v -2.7 1.9 1.8
v -1.4 0.9 1.8
v -1.4 1.7 1.8
v -1.4 1.8 1.8
v -1.4 1.9 1.8
v -1.2 0 1.8
v -1.2 1.7 1.8
v -1.1 0 1.8
v -1.1 0.1 1.8
v -1.1 1.7 1.8
v -1.1 1.9 1.8
v -0.4 0.1 1.8
v -0.4 1.6 1.8
v -0.4 1.7 1.8
v -0.4 1.9 1.8
v -0.2 0.1 1.8
v -0.2 1.6 1.8
v -0.2 1.7 1.8
v -0.2 1.9 1.8
v 0.5 0 1.8
v 0.5 0.1 1.8
v 0.5 1.7 1.8
v 0.5 1.9 1.8
v 0.5 3.1 1.8
v 0.5 3.2 1.8
v 0.5 3.5 1.8
v 0.6 0 1.8
v 0.6 1.7 1.8
v 0.6 3.5 1.8
v 0.6 3.6 1.8
v 0.7 3.6 1.8
v 0.7 3.7 1.8
v 0.8 3.7 1.8
v 0.8 3.8 1.8
v 1 3.1 1.8
v 1 3.7 1.8
v 1 3.8 1.8
v 1 3.9 1.8
v 1.1 0.6 1.8
v 1.1 1.8 1.8
v 1.1 3.7 1.8
v 1.1 3.8 1.8
v 1.1 3.9 1.8
v 1.1 4 1.8
v 1.2 3.1 1.8
v 1.2 3.2 1.8
v 1.2 3.3 1.8
v 1.2 3.4 1.8
v 1.2 3.5 1.8
v 1.2 3.6 1.8
v 1.2 4 1.8
v 1.2 4.1 1.8
v 1.3 4.1 1.8
v 1.3 4.2 1.8
v 1.3 4.3 1.8
v 1.3 4.5 1.8
v 1.5 4.1 1.8
v 1.5 4.2 1.8
v 1.5 4.3 1.8
v 1.5 4.5 1.8
v 1.6 3.1 1.8
v 1.6 3.2 1.8
v 1.6 3.3 1.8
v 1.6 3.4 1.8
v 1.6 3.5 1.8
v 1.6 3.6 1.8
v 1.6 4 1.8
v 1.6 4.1 1.8
v 1.7 3.7 1.8
v 1.7 3.8 1.8
v 1.7 3.9 1.8
v 1.7 4 1.8
v 1.8 3.1 1.8
v 1.8 3.7 1.8
v 1.8 3.8 1.8
v 1.8 3.9 1.8
v 2 3.7 1.8
v 2 3.8 1.8
v 2.1 3.6 1.8
v 2.1 3.7 1.8
v 2.2 3.5 1.8
v 2.2 3.6 1.8
v 2.3 3.1 1.8
v 2.3 3.2 1.8
v 2.3 3.5 1.8
v 2.8 0.6 1.8
v 2.8 1.8 1.8
v 3.2 0 1.8
v 3.2 2.7 1.8
v 3.2 2.8 1.8
v 3.2 3 1.8
v 3.2 3.1 1.8
v 3.2 3.2 1.8
v -1.1 1.7 1.7
v -1.1 1.9 1.7
v -0.4 1.7 1.7
v -0.4 1.9 1.7
v -0.2 1.7 1.7
v -0.2 1.9 1.7
v 0.5 1.7 1.7
v 0.5 1.9 1.7
v 1.1 1.5 1.7
v 1.1 1.6 1.7
v 1.9 0.6 1.7
v 1.9 1.5 1.7
v 1.9 1.6 1.7
v 1.9 1.8 1.7
v 2 0.6 1.7
v 2 1.5 1.7
v 2 1.6 1.7
v 2 1.8 1.7
v 2.8 1.5 1.7
v 2.8 1.6 1.7
v -2.7 3.6 1.6
v -2.7 4.3 1.6
v -2.6 3.5 1.6
v -2.6 3.6 1.6
v -2.6 4.3 1.6
v -2.6 4.4 1.6
v -0.9 3.5 1.6
v -0.9 3.6 1.6
v -0.9 4.3 1.6
v -0.9 4.4 1.6
v -0.8 3.6 1.6
v -0.8 4.3 1.6
v 1.1 0.6 1.6
v 1.1 1.5 1.6
v 1.1 1.6 1.6
v 1.1 1.8 1.6
v 1.9 0.6 1.6
v 1.9 1.5 1.6
v 1.9 1.6 1.6
v 1.9 1.8 1.6
v 2 0.6 1.6
v 2 1.5 1.6
v 2 1.6 1.6
v 2 1.8 1.6
v 2.8 0.6 1.6
v 2.8 1.5 1.6
v 2.8 1.6 1.6
v 2.8 1.8 1.6
v -3.2 3.2 1.5
v -3.2 3.3 1.5
v -2.6 3.6 1.5
v -2.6 4.3 1.5
v -2.3 3.8 1.5
v -2.3 4.1 1.5
v -2.2 3.8 1.5
v -2.2 4.1 1.5
v -2.1 3.9 1.5
v -2.1 4.1 1.5
v -2 3.9 1.5
v -2 4.1 1.5
v -1.8 3.8 1.5
v -1.8 3.9 1.5
v -1.8 4 1.5
v -1.8 4.1 1.5
v -1.7 3.8 1.5
v -1.7 3.9 1.5
v -1.7 4 1.5
v -1.6 3.8 1.5
v -1.6 3.9 1.5
v -1.6 4.1 1.5
v -1.5 3.8 1.5
v -1.5 3.9 1.5
v -1.4 3.9 1.5
v -1.4 4.1 1.5
v -1.3 3.8 1.5
v -1.3 3.9 1.5
v -1.3 4.1 1.5
v -1.2 3.8 1.5
v -1.2 3.9 1.5
v -0.9 3.6 1.5
v -0.9 4.3 1.5
v 0.5 3.2 1.5
v 0.5 3.3 1.5
v 1.1 3.2 1.5
v 1.1 3.7 1.5
v 1.7 3.2 1.5
v 1.7 3.7 1.5
v 2.3 3.2 1.5
v 2.3 3.3 1.5
v 3.2 3.2 1.5
v 3.2 3.3 1.5
v -2.7 0.9 1.4
v -2.7 1.9 1.4
v -2.3 3.3 1.4
v -2.3 3.5 1.4
v -2.2 3.3 1.4
v -2.2 3.5 1.4
v -1.5 0.1 1.4
v -1.5 0.8 1.4
v -1.4 0.1 1.4
v -1.4 0.8 1.4
v -1.4 0.9 1.4
v -1.4 1.9 1.4
v -1.3 3.3 1.4
v -1.3 3.5 1.4
v -1.2 3.3 1.4
v -1.2 3.5 1.4
v -1.1 0.1 1.4
v -1.1 1.9 1.4
v -0.4 0.1 1.4
v -0.4 1.9 1.4
v -0.2 0.1 1.4
v -0.2 1.9 1.4
v 0.5 0.1 1.4
v 0.5 1.9 1.4
v -3.2 3.3 1.3
v -3.2 3.4 1.3
v -2.3 3.3 1.3
v -2.3 3.4 1.3
v -2.2 3.3 1.3
v -2.2 3.4 1.3
v -1.3 3.3 1.3
v -1.3 3.4 1.3
v -1.2 3.3 1.3
v -1.2 3.4 1.3
v 0.5 3.3 1.3
v 0.5 3.4 1.3
v 2.3 3.3 1.3
v 2.3 3.4 1.3
v 3.2 3.3 1.3
v 3.2 3.4 1.3
v -3.2 3.4 1.1
v -3.2 3.5 1.1
v 0.3 3.5 1.1
v 0.5 3.4 1.1
v 0.5 3.5 1.1
v 2.3 3.4 1.1
v 2.3 3.5 1.1
v 2.5 3.5 1.1
v 3.2 3.4 1.1
v 3.2 3.5 1.1
v -3.2 3.5 0.9
v -3.2 3.6 0.9
v 0.3 3.5 0.9
v 0.3 3.6 0.9
v 2.5 3.5 0.9
v 2.5 3.6 0.9
v 3.2 3.5 0.9
v 3.2 3.6 0.9
v -3.2 3.6 0.6
v -3.2 3.7 0.6
v 0.5 3.6 0.6
v 0.5 3.7 0.6
v 2.3 3.6 0.6
v 2.3 3.7 0.6
v 3.2 3.6 0.6
v 3.2 3.7 0.6
v -3.2 3.7 0.4
v -3.2 3.8 0.4
v 0.6 3.7 0.4
v 0.6 3.8 0.4
v 0.7 3.7 0.4
v 0.7 3.8 0.4
v 1 3.8 0.4
v 1.8 3.8 0.4
v 2.1 3.7 0.4
v 2.1 3.8 0.4
v 2.2 3.7 0.4
v 2.2 3.8 0.4
v 3.2 3.7 0.4
v 3.2 3.8 0.4
v -3.2 3.8 0.0999999
v -3.2 3.9 0.0999999
v 3.2 3.8 0.0999999
v 3.2 3.9 0.0999999
v -3.2 2.9 -1.9
v -3.2 3 -1.9
v 3.2 2.9 -1.9
v 3.2 3 -1.9
v -3.2 2.5 -2
v -3.2 2.6 -2
v 3.2 2.5 -2
v 3.2 2.6 -2
v -3.2 2.4 -2.2
v -3.2 2.5 -2.2
v -3.2 2.8 -2.2
v -3.2 2.9 -2.2
v 3.2 2.4 -2.2
v 3.2 2.5 -2.2
v 3.2 2.8 -2.2
v 3.2 2.9 -2.2
v -3.2 2.3 -2.4
v -3.2 2.4 -2.4
v 3.2 2.3 -2.4
v 3.2 2.4 -2.4
v -3.2 2.2 -2.6
v -3.2 2.3 -2.6
v 3.2 2.2 -2.6
v 3.2 2.3 -2.6
v -3.2 2 2.6
v -3.2 2.2 2.6
v -3.2 2.3 2.6
v -3.2 2.4 2.6
v -3.1 2.2 2.6
v -3.1 2.3 2.6
v -3 2.2 2.6
v -3 2.3 2.6
v -2.5 0 2.6
v -2.5 2 2.6
v -2.3 0 2.6
v -2.3 2 2.6
v 1.8 0 2.6
v 1.8 2 2.6
v 2 0 2.6
v 2 2 2.6
v 3 2.2 2.6
v 3 2.3 2.6
v 3.1 2.2 2.6
v 3.1 2.3 2.6
v 3.2 2 2.6
v 3.2 2.2 2.6
v 3.2 2.3 2.6
v 3.2 2.4 2.6
v -3.2 2.4 2.4
v -3.2 2.5 2.4
v 3.2 2.4 2.4
v 3.2 2.5 2.4
v -3.2 2.5 2.2
v -3.2 2.6 2.2
v -3.2 2.8 2.2
v -3.2 2.9 2.2
v 3.2 2.5 2.2
v 3.2 2.6 2.2
v 3.2 2.8 2.2
v 3.2 2.9 2.2
v -3.2 2.6 2
v -3.2 2.7 2
v 3.2 2.6 2
v 3.2 2.7 2
v -3.2 2.9 1.9
v -3.2 3 1.9
v 0.2 3.5 1.9
v 0.2 3.6 1.9
v 0.3 3.5 1.9
v 0.3 3.6 1.9
v 0.3 3.7 1.9
v 0.5 3.6 1.9
v 0.5 3.7 1.9
v 0.5 3.8 1.9
v 0.6 3.7 1.9
v 0.6 3.8 1.9
v 0.6 3.9 1.9
v 0.7 3.8 1.9
v 0.7 3.9 1.9
v 0.7 4 1.9
v 0.9 3.9 1.9
v 0.9 4 1.9
v 0.9 4.1 1.9
v 1 4 1.9
v 1 4.1 1.9
v 1.7 4 1.9
v 1.7 4.1 1.9
v 1.9 3.9 1.9
v 1.9 4 1.9
v 1.9 4.1 1.9
v 2.1 3.8 1.9
v 2.1 3.9 1.9
v 2.1 4 1.9
v 2.2 3.7 1.9
v 2.2 3.8 1.9
v 2.2 3.9 1.9
v 2.3 3.6 1.9
v 2.3 3.7 1.9
v 2.3 3.8 1.9
v 2.5 3.5 1.9
v 2.5 3.6 1.9
v 2.5 3.7 1.9
v 2.6 3.5 1.9
v 2.6 3.6 1.9
v 3.2 2.9 1.9
v 3.2 3 1.9
v 1 4 1.8
v 1 4.1 1.8
v 1.1 3.2 1.8
v 1.1 3.3 1.8
v 1.1 3.4 1.8
v 1.1 3.5 1.8
v 1.1 3.6 1.8
v 1.1 3.7 1.8
v 1.1 4 1.8
v 1.1 4.1 1.8
v 1.2 3.2 1.8
v 1.2 3.3 1.8
v 1.2 3.4 1.8
v 1.2 3.5 1.8
v 1.2 3.6 1.8
v 1.2 3.7 1.8
v 1.6 3.2 1.8
v 1.6 3.3 1.8
v 1.6 3.4 1.8
v 1.6 3.5 1.8
v 1.6 3.6 1.8
v 1.6 3.7 1.8
v 1.7 3.2 1.8
v 1.7 3.3 1.8
v 1.7 3.4 1.8
v 1.7 3.5 1.8
v 1.7 3.6 1.8
v 1.7 3.7 1.8
v 1.1 3.3 1.7
v 1.1 3.4 1.7
v 1.1 3.5 1.7
v 1.1 3.6 1.7
v 1.1 4.1 1.7
v 1.1 4.2 1.7
v 1.2 4.2 1.7
v 1.2 4.3 1.7
v 1.3 4.1 1.7
v 1.3 4.3 1.7
v 1.3 4.5 1.7
v 1.5 4.1 1.7
v 1.5 4.3 1.7
v 1.5 4.5 1.7
v 1.6 4.2 1.7
v 1.6 4.3 1.7
v 1.7 3.3 1.7
v 1.7 3.4 1.7
v 1.7 3.5 1.7
v 1.7 3.6 1.7
v 1.7 4.1 1.7
v 1.7 4.2 1.7
v -2.7 1.7 1.6
v -2.7 1.8 1.6
v -1.5 0.1 1.6
v -1.5 0.8 1.6
v -1.4 0.1 1.6
v -1.4 0.8 1.6
v -1.4 1.7 1.6
v -1.4 1.8 1.6
v -1.1 1.6 1.5
v -1.1 1.9 1.5
v -0.4 1.6 1.5
v -0.4 1.9 1.5
v -0.2 1.6 1.5
v -0.2 1.9 1.5
v 0.5 1.6 1.5
v 0.5 1.9 1.5
v -2.7 3.6 1.4
v -2.7 4.3 1.4
v -2.6 3.5 1.4
v -2.6 3.6 1.4
v -2.6 3.7 1.4
v -2.6 4.3 1.4
v -2.3 3.5 1.4
v -2.3 3.6 1.4
v -2.2 3.5 1.4
v -2.2 3.6 1.4
v -1.3 3.5 1.4
v -1.3 3.6 1.4
v -1.2 3.5 1.4
v -1.2 3.6 1.4
v -0.9 3.5 1.4
v -0.9 3.6 1.4
v -0.9 3.7 1.4
v -0.9 4.3 1.4
v -0.8 3.6 1.4
v -0.8 4.3 1.4
v -2.6 3.6 1.3
v -2.6 3.7 1.3
v -2.6 4.4 1.3
v -2.3 3.4 1.3
v -2.3 3.6 1.3
v -2.2 3.4 1.3
v -2.2 3.6 1.3
v -1.3 3.4 1.3
v -1.3 3.6 1.3
v -1.2 3.4 1.3
v -1.2 3.6 1.3
v -0.9 3.6 1.3
v -0.9 3.7 1.3
v -0.9 4.4 1.3
v 1.3 4.2 0.6
v 1.3 4.3 0.6
v 1.5 4.2 0.6
v 1.5 4.3 0.6
v 0.7 3.7 0.5
v 0.7 3.8 0.5
v 1 3.8 0.5
v 1 3.9 0.5
v 1.1 4 0.5
v 1.1 4.1 0.5
v 1.2 3.9 0.5
v 1.2 4 0.5
v 1.2 4.1 0.5
v 1.3 4 0.5
v 1.3 4.1 0.5
v 1.5 4 0.5
v 1.5 4.1 0.5
v 1.6 3.9 0.5
v 1.6 4 0.5
v 1.8 3.8 0.5
v 1.8 3.9 0.5
v 2.1 3.7 0.5
v 2.1 3.8 0.5
v 0.7 3.8 0.4
v 0.7 3.9 0.4
v 0.9 3.9 0.4
v 0.9 4 0.4
v 1 3.8 0.4
v 1 3.9 0.4
v 1.2 3.9 0.4
v 1.2 4 0.4
v 1.2 4.1 0.4
v 1.3 4 0.4
v 1.3 4.1 0.4
v 1.3 4.2 0.4
v 1.5 4 0.4
v 1.5 4.1 0.4
v 1.5 4.2 0.4
v 1.6 3.9 0.4
v 1.6 4 0.4
v 1.7 4 0.4
v 1.7 4.1 0.4
v 1.8 3.8 0.4
v 1.8 3.9 0.4
v 1.9 3.9 0.4
v 1.9 4 0.4
v 2.1 3.8 0.4
v 2.1 3.9 0.4
v -3.2 3.8 -0.2
v -3.2 3.9 -0.2
v 3.2 3.8 -0.2
v 3.2 3.9 -0.2
v -3.2 3.7 -0.4
v -3.2 3.8 -0.4
v 3.2 3.7 -0.4
v 3.2 3.8 -0.4
v -3.2 3.6 -0.6
v -3.2 3.7 -0.6
v 3.2 3.6 -0.6
v 3.2 3.7 -0.6
v -3.2 3.5 -0.9
v -3.2 3.6 -0.9
v 3.2 3.5 -0.9
v 3.2 3.6 -0.9
v -3.2 3.4 -1.1
v -3.2 3.5 -1.1
v 3.2 3.4 -1.1
v 3.2 3.5 -1.1
v -3.2 3.3 -1.3
v -3.2 3.4 -1.3
v 3.2 3.3 -1.3
v 3.2 3.4 -1.3
v -3.2 3.2 -1.6
v -3.2 3.3 -1.6
v 3.2 3.2 -1.6
v 3.2 3.3 -1.6
v -3.2 0 -1.8
v -3.2 2.6 -1.8
v -3.2 2.7 -1.8
v -3.2 3 -1.8
v -3.2 3.1 -1.8
v -3.2 3.2 -1.8
v 3.2 0 -1.8
v 3.2 2.6 -1.8
v 3.2 2.7 -1.8
v 3.2 3 -1.8
v 3.2 3.1 -1.8
v 3.2 3.2 -1.8
v -3.2 2.6 -2
v -3.2 2.7 -2
v -3.2 3 -2
v -3.2 3.1 -2
v 3.2 2.6 -2
v 3.2 2.7 -2
v 3.2 3 -2
v 3.2 3.1 -2
v -3.2 2.5 -2.2
v -3.2 2.6 -2.2
v -3.2 2.9 -2.2
v -3.2 3 -2.2
v 3.2 2.5 -2.2
v 3.2 2.6 -2.2
v 3.2 2.9 -2.2
v 3.2 3 -2.2
v -3.2 2.4 -2.4
v -3.2 2.5 -2.4
v -3.2 2.8 -2.4
v -3.2 2.9 -2.4
v 3.2 2.4 -2.4
v 3.2 2.5 -2.4
v 3.2 2.8 -2.4
v 3.2 2.9 -2.4
v -3.2 2.3 -2.6
v -3.2 2.4 -2.6
v 3.2 2.3 -2.6
v 3.2 2.4 -2.6
v -3.2 2.2 -2.9
v -3.2 2.3 -2.9
v 3.2 2.2 -2.9
v 3.2 2.3 -2.9
v -2.5 0 2.7
v -2.3 0 2.7
v 1.8 0 2.7
v 2 0 2.7
v -2.5 0 2.6
v -2.3 0 2.6
v 1.8 0 2.6
v 2 0 2.6
v -1.2 0 1.9
v -1.1 0 1.9
v 0.5 0 1.9
v 0.6 0 1.9
v -3.2 0 1.8
v -1.2 0 1.8
v -1.1 0 1.8
v 0.5 0 1.8
v 0.6 0 1.8
v 3.2 0 1.8
v -2.8 0 1.7
v -2.7 0 1.7
v 0.6 0 1.7
v 0.7 0 1.7
v -2.7 0 1.4
v 0.6 0 1.4
v -2.8 0 1.3
v 0.7 0 1.3
v -3.2 0 -1.8
v 3.2 0 -1.8
v -1.5 0.8 1.6
v -1.4 0.8 1.6
v -1.5 0.8 1.4
v -1.4 0.8 1.4
v 1.1 1.5 1.7
v 1.9 1.5 1.7
v 2 1.5 1.7
v 2.8 1.5 1.7
v 1.1 1.5 1.6
v 1.9 1.5 1.6
v 2 1.5 1.6
v 2.8 1.5 1.6
v -1.1 1.6 1.9
v 0.5 1.6 1.9
v -0.4 1.6 1.8
v -0.2 1.6 1.8
v -1.1 1.6 1.5
v -0.4 1.6 1.5
v -0.2 1.6 1.5
v 0.5 1.6 1.5
v -2.7 1.7 1.8
v -1.4 1.7 1.8
v -2.7 1.7 1.7
v -2.7 1.7 1.6
v -1.4 1.7 1.6
v 1.1 1.8 1.8
v 2.8 1.8 1.8
v 1.1 1.8 1.7
v 1.9 1.8 1.7
v 2 1.8 1.7
v 2.8 1.8 1.7
v 1.1 1.8 1.6
v 1.9 1.8 1.6
v 2 1.8 1.6
v 2.8 1.8 1.6
v -2.7 1.9 1.8
v -1.4 1.9 1.8
v -1.1 1.9 1.8
v -0.4 1.9 1.8
v -0.2 1.9 1.8
v 0.5 1.9 1.8
v -2.7 1.9 1.7
v -1.1 1.9 1.7
v -0.4 1.9 1.7
v -0.2 1.9 1.7
v 0.5 1.9 1.7
v -1.1 1.9 1.5
v -0.4 1.9 1.5
v -0.2 1.9 1.5
v 0.5 1.9 1.5
v -2.7 1.9 1.4
v -1.4 1.9 1.4
v -1.1 1.9 1.4
v -0.4 1.9 1.4
v -0.2 1.9 1.4
v 0.5 1.9 1.4
v -3.2 2 2.8
v 3.2 2 2.8
v -2.5 2 2.7
v -2.3 2 2.7
v 1.8 2 2.7
v 2 2 2.7
v -3.2 2 2.6
v -2.5 2 2.6
v -2.3 2 2.6
v 1.8 2 2.6
v 2 2 2.6
v 3.2 2 2.6
v -3.2 2.2 -2.6
v 3.2 2.2 -2.6
v -3.2 2.2 -2.9
v 3.2 2.2 -2.9
v -3.2 2.3 2.9
v 3.2 2.3 2.9
v -3.1 2.3 2.8
v -3 2.3 2.8
v 3 2.3 2.8
v 3.1 2.3 2.8
v -3.2 2.3 2.6
v -3.1 2.3 2.6
v -3 2.3 2.6
v 3 2.3 2.6
v 3.1 2.3 2.6
v 3.2 2.3 2.6
v -3.2 2.3 -2.4
v 3.2 2.3 -2.4
v -3.2 2.3 -2.6
v 3.2 2.3 -2.6
v -3.2 2.4 2.6
v 3.2 2.4 2.6
v -3.2 2.4 2.4
v 3.2 2.4 2.4
v -3.2 2.4 -2.2
v 3.2 2.4 -2.2
v -3.2 2.4 -2.4
v 3.2 2.4 -2.4
v -3.2 2.5 2.4
v 3.2 2.5 2.4
v -3.2 2.5 2.2
v 3.2 2.5 2.2
v -3.2 2.5 -2
v 3.2 2.5 -2
v -3.2 2.5 -2.2
v 3.2 2.5 -2.2
v -3.2 2.6 2.2
v 3.2 2.6 2.2
v -3.2 2.6 2
v 3.2 2.6 2
v -3.2 2.6 -1.8
v 3.2 2.6 -1.8
v -3.2 2.6 -2
v 3.2 2.6 -2
v -3.2 2.7 2
v 3.2 2.7 2
v -3.2 2.7 1.8
v 3.2 2.7 1.8
v -3.2 2.8 2.4
v 3.2 2.8 2.4
v -3.2 2.8 2.2
v 3.2 2.8 2.2
v -3.2 2.8 -2.2
v 3.2 2.8 -2.2
v -3.2 2.8 -2.4
v 3.2 2.8 -2.4
v -3.2 2.9 2.2
v 3.2 2.9 2.2
v -3.2 2.9 1.9
v 3.2 2.9 1.9
v -3.2 2.9 -1.9
v 3.2 2.9 -1.9
v -3.2 2.9 -2.2
v 3.2 2.9 -2.2
v -3.2 3 1.9
v 3.2 3 1.9
v -3.2 3 1.8
v 3.2 3 1.8
v -3.2 3 -1.8
v 3.2 3 -1.8
v -3.2 3 -1.9
v 3.2 3 -1.9
v 1.1 3.3 1.8
v 1.2 3.3 1.8
v 1.6 3.3 1.8
v 1.7 3.3 1.8
v 1.1 3.3 1.7
v 1.7 3.3 1.7
v 0.2 3.5 2
v 0.6 3.5 2
v 2.2 3.5 2
v 2.6 3.5 2
v 0.2 3.5 1.9
v 0.3 3.5 1.9
v 2.5 3.5 1.9
v 2.6 3.5 1.9
v 0.5 3.5 1.8
v 0.6 3.5 1.8
v 1.1 3.5 1.8
v 1.2 3.5 1.8
v 1.6 3.5 1.8
v 1.7 3.5 1.8
v 2.2 3.5 1.8
v 2.3 3.5 1.8
v 1.1 3.5 1.7
v 1.7 3.5 1.7
v -2.6 3.5 1.6
v -0.9 3.5 1.6
v -2.6 3.5 1.4
v -2.3 3.5 1.4
v -2.2 3.5 1.4
v -1.3 3.5 1.4
v -1.2 3.5 1.4
v -0.9 3.5 1.4
v 0.3 3.5 1.1
v 0.5 3.5 1.1
v 2.3 3.5 1.1
v 2.5 3.5 1.1
v 0.6 3.6 2
v 0.7 3.6 2
v 2.1 3.6 2
v 2.2 3.6 2
v 0.6 3.6 1.8
v 0.7 3.6 1.8
v 2.1 3.6 1.8
v 2.2 3.6 1.8
v -2.7 3.6 1.6
v -2.6 3.6 1.6
v -0.9 3.6 1.6
v -0.8 3.6 1.6
v -2.7 3.6 1.4
v -2.6 3.6 1.4
v -2.3 3.6 1.4
v -2.2 3.6 1.4
v -1.3 3.6 1.4
v -1.2 3.6 1.4
v -0.9 3.6 1.4
v -0.8 3.6 1.4
v -2.6 3.6 1.3
v -2.3 3.6 1.3
v -2.2 3.6 1.3
v -1.3 3.6 1.3
v -1.2 3.6 1.3
v -0.9 3.6 1.3
v 0.7 3.7 2
v 0.8 3.7 2
v 2 3.7 2
v 2.1 3.7 2
v 1.2 3.7 1.9
v 1.6 3.7 1.9
v 0.7 3.7 1.8
v 0.8 3.7 1.8
v 1.1 3.7 1.8
v 1.2 3.7 1.8
v 1.6 3.7 1.8
v 1.7 3.7 1.8
v 2 3.7 1.8
v 2.1 3.7 1.8
v 1.1 3.7 1.7
v 1.7 3.7 1.7
v 1.1 3.7 1.5
v 1.7 3.7 1.5
v 0.8 3.8 2
v 1 3.8 2
v 1.8 3.8 2
v 2 3.8 2
v 0.8 3.8 1.8
v 1 3.8 1.8
v 1.8 3.8 1.8
v 2 3.8 1.8
v 0.7 3.8 0.5
v 1 3.8 0.5
v 1.8 3.8 0.5
v 2.1 3.8 0.5
v 0.7 3.8 0.4
v 1 3.8 0.4
v 1.8 3.8 0.4
v 2.1 3.8 0.4
v 1 3.9 2
v 1.1 3.9 2
v 1.7 3.9 2
v 1.8 3.9 2
v 1 3.9 1.8
v 1.1 3.9 1.8
v 1.7 3.9 1.8
v 1.8 3.9 1.8
v 1 3.9 0.5
v 1.2 3.9 0.5
v 1.6 3.9 0.5
v 1.8 3.9 0.5
v 1 3.9 0.4
v 1.2 3.9 0.4
v 1.6 3.9 0.4
v 1.8 3.9 0.4
v 1.1 4 2
v 1.2 4 2
v 1.6 4 2
v 1.7 4 2
v 1.1 4 1.8
v 1.2 4 1.8
v 1.6 4 1.8
v 1.7 4 1.8
v 1.2 4 0.5
v 1.3 4 0.5
v 1.5 4 0.5
v 1.6 4 0.5
v 1.2 4 0.4
v 1.3 4 0.4
v 1.5 4 0.4
v 1.6 4 0.4
v 1.2 4.1 2
v 1.3 4.1 2
v 1.5 4.1 2
v 1.6 4.1 2
v 1.2 4.1 1.8
v 1.3 4.1 1.8
v 1.5 4.1 1.8
v 1.6 4.1 1.8
v 1.3 4.1 0.5
v 1.5 4.1 0.5
v 1.3 4.1 0.4
v 1.5 4.1 0.4
v 1.3 4.2 2
v 1.5 4.2 2
v 1.3 4.2 1.8
v 1.5 4.2 1.8
v -2.6 4.3 1.6
v -0.9 4.3 1.6
v -2.6 4.3 1.5
v -0.9 4.3 1.5
v -1.1 0.1 1.8
v -0.4 0.1 1.8
v -0.2 0.1 1.8
v 0.5 0.1 1.8
v -1.5 0.1 1.6
v -1.4 0.1 1.6
v -1.5 0.1 1.4
v -1.4 0.1 1.4
v -1.1 0.1 1.4
v -0.4 0.1 1.4
v -0.2 0.1 1.4
v 0.5 0.1 1.4
v 1.1 0.6 1.8
v 2.8 0.6 1.8
v 1.1 0.6 1.7
v 1.9 0.6 1.7
v 2 0.6 1.7
v 2.8 0.6 1.7
v 1.1 0.6 1.6
v 1.9 0.6 1.6
v 2 0.6 1.6
v 2.8 0.6 1.6
v -2.7 0.9 1.8
v -1.4 0.9 1.8
v -2.7 0.9 1.7
v -2.7 0.9 1.4
v -1.4 0.9 1.4
v 1.1 1.6 1.7
v 1.9 1.6 1.7
v 2 1.6 1.7
v 2.8 1.6 1.7
v 1.1 1.6 1.6
v 1.9 1.6 1.6
v 2 1.6 1.6
v 2.8 1.6 1.6
v -1.2 1.7 1.9
v 0.6 1.7 1.9
v -1.2 1.7 1.8
v -1.1 1.7 1.8
v -0.4 1.7 1.8
v -0.2 1.7 1.8
v 0.5 1.7 1.8
v 0.6 1.7 1.8
v -1.1 1.7 1.7
v -0.4 1.7 1.7
v -0.2 1.7 1.7
v 0.5 1.7 1.7
v -2.7 1.8 1.8
v -1.4 1.8 1.8
v -2.7 1.8 1.7
v -2.7 1.8 1.6
v -1.4 1.8 1.6
v -3.2 2.2 2.8
v -3.1 2.2 2.8
v -3 2.2 2.8
v 3 2.2 2.8
v 3.1 2.2 2.8
v 3.2 2.2 2.8
v -3.2 2.2 2.6
v -3.1 2.2 2.6
v -3 2.2 2.6
v 3 2.2 2.6
v 3.1 2.2 2.6
v 3.2 2.2 2.6
v -3.2 2.3 -2.6
v 3.2 2.3 -2.6
v -3.2 2.3 -2.9
v 3.2 2.3 -2.9
v -3.2 2.4 2.9
v 3.2 2.4 2.9
v -3.2 2.4 2.6
v 3.2 2.4 2.6
v -3.2 2.4 -2.4
v 3.2 2.4 -2.4
v -3.2 2.4 -2.6
v 3.2 2.4 -2.6
v -3.2 2.5 2.6
v 3.2 2.5 2.6
v -3.2 2.5 2.4
v 3.2 2.5 2.4
v -3.2 2.5 -2.2
v 3.2 2.5 -2.2
v -3.2 2.5 -2.4
v 3.2 2.5 -2.4
v -3.2 2.6 2.4
v 3.2 2.6 2.4
v -3.2 2.6 2.2
v 3.2 2.6 2.2
v -3.2 2.6 -2
v 3.2 2.6 -2
v -3.2 2.6 -2.2
v 3.2 2.6 -2.2
v -3.2 2.7 2.2
v 3.2 2.7 2.2
v -3.2 2.7 2
v 3.2 2.7 2
v -3.2 2.7 -1.8
v 3.2 2.7 -1.8
v -3.2 2.7 -2
v 3.2 2.7 -2
v -3.2 2.8 2
v 3.2 2.8 2
v -3.2 2.8 1.8
v 3.2 2.8 1.8
v -3.2 2.9 2.4
v 3.2 2.9 2.4
v -3.2 2.9 2.2
v 3.2 2.9 2.2
v -3.2 2.9 -2.2
v 3.2 2.9 -2.2
v -3.2 2.9 -2.4
v 3.2 2.9 -2.4
v -3.2 3 2.2
v 3.2 3 2.2
v -3.2 3 2
v 3.2 3 2
v -3.2 3 -2
v 3.2 3 -2
v -3.2 3 -2.2
v 3.2 3 -2.2
v -3.2 3.1 2
v 3.2 3.1 2
v 1 3.1 1.9
v 1.2 3.1 1.9
v 1.6 3.1 1.9
v 1.8 3.1 1.9
v -3.2 3.1 1.8
v 0.5 3.1 1.8
v 1 3.1 1.8
v 1.2 3.1 1.8
v 1.6 3.1 1.8
v 1.8 3.1 1.8
v 2.3 3.1 1.8
v 3.2 3.1 1.8
v -3.2 3.1 -1.8
v 3.2 3.1 -1.8
v -3.2 3.1 -2
v 3.2 3.1 -2
v -3.2 3.2 1.8
v 0.5 3.2 1.8
v 1.1 3.2 1.8
v 1.2 3.2 1.8
v 1.6 3.2 1.8
v 1.7 3.2 1.8
v 2.3 3.2 1.8
v 3.2 3.2 1.8
v 1.1 3.2 1.7
v 1.7 3.2 1.7
v -3.2 3.2 1.5
v 0.5 3.2 1.5
v 1.1 3.2 1.5
v 1.7 3.2 1.5
v 2.3 3.2 1.5
v 3.2 3.2 1.5
v -3.2 3.2 -1.6
v 3.2 3.2 -1.6
v -3.2 3.2 -1.8
v 3.2 3.2 -1.8
v -3.2 3.3 1.5
v 0.5 3.3 1.5
v 2.3 3.3 1.5
v 3.2 3.3 1.5
v -2.3 3.3 1.4
v -2.2 3.3 1.4
v -1.3 3.3 1.4
v -1.2 3.3 1.4
v -3.2 3.3 1.3
v -2.3 3.3 1.3
v -2.2 3.3 1.3
v -1.3 3.3 1.3
v -1.2 3.3 1.3
v 0.5 3.3 1.3
v 2.3 3.3 1.3
v 3.2 3.3 1.3
v -3.2 3.3 -1.3
v 3.2 3.3 -1.3
v -3.2 3.3 -1.6
v 3.2 3.3 -1.6
v 1.1 3.4 1.8
v 1.2 3.4 1.8
v 1.6 3.4 1.8
v 1.7 3.4 1.8
v 1.1 3.4 1.7
v 1.7 3.4 1.7
v -3.2 3.4 1.3
v -2.3 3.4 1.3
v -2.2 3.4 1.3
v -1.3 3.4 1.3
v -1.2 3.4 1.3
v 0.5 3.4 1.3
v 2.3 3.4 1.3
v 3.2 3.4 1.3
v -3.2 3.4 1.1
v 0.5 3.4 1.1
v 2.3 3.4 1.1
v 3.2 3.4 1.1
v -3.2 3.4 -1.1
v 3.2 3.4 -1.1
v -3.2 3.4 -1.3
v 3.2 3.4 -1.3
v -3.2 3.5 1.1
v 0.3 3.5 1.1
v 2.5 3.5 1.1
v 3.2 3.5 1.1
v -3.2 3.5 0.9
v 0.3 3.5 0.9
v 2.5 3.5 0.9
v 3.2 3.5 0.9
v -3.2 3.5 -0.9
v 3.2 3.5 -0.9
v -3.2 3.5 -1.1
v 3.2 3.5 -1.1
v 0.2 3.6 2
v 0.3 3.6 2
v 2.5 3.6 2
v 2.6 3.6 2
v 0.2 3.6 1.9
v 0.3 3.6 1.9
v 0.5 3.6 1.9
v 2.3 3.6 1.9
v 2.5 3.6 1.9
v 2.6 3.6 1.9
v 1.1 3.6 1.8
v 1.2 3.6 1.8
v 1.6 3.6 1.8
v 1.7 3.6 1.8
v 1.1 3.6 1.7
v 1.7 3.6 1.7
v -2.6 3.6 1.6
v -0.9 3.6 1.6
v -2.6 3.6 1.5
v -0.9 3.6 1.5
v -3.2 3.6 0.9
v 0.3 3.6 0.9
v 2.5 3.6 0.9
v 3.2 3.6 0.9
v -3.2 3.6 0.6
v 0.5 3.6 0.6
v 2.3 3.6 0.6
v 3.2 3.6 0.6
v -3.2 3.6 -0.6
v 3.2 3.6 -0.6
v -3.2 3.6 -0.9
v 3.2 3.6 -0.9
v 0.3 3.7 2
v 0.5 3.7 2
v 2.3 3.7 2
v 2.5 3.7 2
v 0.3 3.7 1.9
v 0.5 3.7 1.9
v 0.6 3.7 1.9
v 1 3.7 1.9
v 1.1 3.7 1.9
v 1.7 3.7 1.9
v 1.8 3.7 1.9
v 2.2 3.7 1.9
v 2.3 3.7 1.9
v 2.5 3.7 1.9
v 1 3.7 1.8
v 1.1 3.7 1.8
v 1.7 3.7 1.8
v 1.8 3.7 1.8
v -3.2 3.7 0.6
v 0.5 3.7 0.6
v 2.3 3.7 0.6
v 3.2 3.7 0.6
v 0.7 3.7 0.5
v 2.1 3.7 0.5
v -3.2 3.7 0.4
v 0.6 3.7 0.4
v 0.7 3.7 0.4
v 2.1 3.7 0.4
v 2.2 3.7 0.4
v 3.2 3.7 0.4
v -3.2 3.7 -0.4
v 3.2 3.7 -0.4
v -3.2 3.7 -0.6
v 3.2 3.7 -0.6
v 0.5 3.8 2
v 0.6 3.8 2
v 2.2 3.8 2
v 2.3 3.8 2
v 0.5 3.8 1.9
v 0.6 3.8 1.9
v 0.7 3.8 1.9
v 1.1 3.8 1.9
v 1.7 3.8 1.9
v 2.1 3.8 1.9
v 2.2 3.8 1.9
v 2.3 3.8 1.9
v 1.1 3.8 1.8
v 1.7 3.8 1.8
v -3.2 3.8 0.4
v 0.6 3.8 0.4
v 0.7 3.8 0.4
v 1 3.8 0.4
v 1.8 3.8 0.4
v 2.1 3.8 0.4
v 2.2 3.8 0.4
v 3.2 3.8 0.4
v -3.2 3.8 0.0999999
v 3.2 3.8 0.0999999
v -3.2 3.8 -0.2
v 3.2 3.8 -0.2
v -3.2 3.8 -0.4
v 3.2 3.8 -0.4
v 0.6 3.9 2
v 0.7 3.9 2
v 2.1 3.9 2
v 2.2 3.9 2
v 0.6 3.9 1.9
v 0.7 3.9 1.9
v 0.9 3.9 1.9
v 1.9 3.9 1.9
v 2.1 3.9 1.9
v 2.2 3.9 1.9
v 0.7 3.9 0.4
v 0.9 3.9 0.4
v 1.9 3.9 0.4
v 2.1 3.9 0.4
v -3.2 3.9 0.0999999
v 3.2 3.9 0.0999999
v -3.2 3.9 -0.2
v 3.2 3.9 -0.2
v 0.7 4 2
v 0.9 4 2
v 1.9 4 2
v 2.1 4 2
v 0.7 4 1.9
v 0.9 4 1.9
v 1 4 1.9
v 1.7 4 1.9
v 1.9 4 1.9
v 2.1 4 1.9
v 1 4 1.8
v 1.1 4 1.8
v 1.1 4 0.5
v 1.2 4 0.5
v 0.9 4 0.4
v 1.2 4 0.4
v 1.7 4 0.4
v 1.9 4 0.4
v 0.9 4.1 2
v 1.1 4.1 2
v 1.7 4.1 2
v 1.9 4.1 2
v 0.9 4.1 1.9
v 1 4.1 1.9
v 1.7 4.1 1.9
v 1.9 4.1 1.9
v 1 4.1 1.8
v 1.1 4.1 1.8
v 1.1 4.1 1.7
v 1.3 4.1 1.7
v 1.5 4.1 1.7
v 1.7 4.1 1.7
v 1.1 4.1 0.5
v 1.2 4.1 0.5
v 1.2 4.1 0.4
v 1.3 4.1 0.4
v 1.5 4.1 0.4
v 1.7 4.1 0.4
v 1.1 4.2 2
v 1.2 4.2 2
v 1.6 4.2 2
v 1.7 4.2 2
v 1.1 4.2 1.7
v 1.2 4.2 1.7
v 1.6 4.2 1.7
v 1.7 4.2 1.7
v 1.3 4.2 0.6
v 1.5 4.2 0.6
v 1.3 4.2 0.4
v 1.5 4.2 0.4
v 1.2 4.3 2
v 1.6 4.3 2
v 1.3 4.3 1.8
v 1.5 4.3 1.8
v 1.2 4.3 1.7
v 1.3 4.3 1.7
v 1.5 4.3 1.7
v 1.6 4.3 1.7
v -2.7 4.3 1.6
v -2.6 4.3 1.6
v -0.9 4.3 1.6
v -0.8 4.3 1.6
v -2.7 4.3 1.4
v -2.6 4.3 1.4
v -0.9 4.3 1.4
v -0.8 4.3 1.4
v 1.3 4.3 0.6
v 1.5 4.3 0.6
v -2.6 4.4 1.6
v -0.9 4.4 1.6
v -2.6 4.4 1.3
v -0.9 4.4 1.3
v 1.3 4.5 1.8
v 1.5 4.5 1.8
v 1.3 4.5 1.7
v 1.5 4.5 1.7

# faces
f 5/3/1 4/3/1 3/3/1
f 6/3/1 4/3/1 5/3/1
f 12/4/1 8/4/1 7/4/1
f 13/4/1 8/4/1 12/4/1
f 14/4/1 10/4/1 9/4/1
f 15/4/1 10/4/1 14/4/1
f 18/4/1 12/4/1 11/4/1
f 19/4/1 12/4/1 18/4/1
f 20/4/1 16/4/1 15/4/1
f 21/4/1 16/4/1 20/4/1
f 24/4/1 18/4/1 17/4/1
f 25/4/1 18/4/1 24/4/1
f 26/4/1 22/4/1 21/4/1
f 27/4/1 22/4/1 26/4/1
f 29/3/1 2/3/1 1/3/1
f 30/4/1 24/4/1 23/4/1
f 31/4/1 24/4/1 30/4/1
f 32/4/1 28/4/1 27/4/1
f 33/4/1 28/4/1 32/4/1
f 34/3/1 29/3/1 1/3/1
f 35/4/1 30/4/1 29/4/1
f 35/3/1 29/3/1 34/3/1
f 36/4/1 30/4/1 35/4/1
f 39/4/1 34/4/1 33/4/1
f 40/3/1 35/3/1 34/3/1
f 40/4/1 34/4/1 39/4/1
f 43/4/1 38/4/1 37/4/1
f 44/4/1 38/4/1 43/4/1
f 47/4/1 42/4/1 41/4/1
f 48/4/1 42/4/1 47/4/1
f 49/4/1 45/4/1 44/4/1
f 50/4/1 45/4/1 49/4/1
f 51/4/1 45/4/1 50/4/1
f 52/3/1 35/3/1 40/3/1
f 53/3/1 35/3/1 52/3/1
f 54/3/1 35/3/1 53/3/1
f 55/3/1 35/3/1 54/3/1
f 56/4/1 47/4/1 46/4/1
f 57/4/1 47/4/1 56/4/1
f 58/4/1 47/4/1 57/4/1
f 59/4/1 51/4/1 50/4/1
f 59/4/1 52/4/1 51/4/1
f 59/4/1 53/4/1 52/4/1
f 60/4/1 53/4/1 59/4/1
f 61/3/1 54/3/1 53/3/1
f 61/4/1 53/4/1 60/4/1
f 62/3/1 54/3/1 61/3/1
f 63/3/1 54/3/1 62/3/1
f 64/4/1 55/4/1 54/4/1
f 64/3/1 54/3/1 63/3/1
f 64/4/1 57/4/1 56/4/1
f 64/4/1 56/4/1 55/4/1
f 65/4/1 57/4/1 64/4/1
f 66/4/1 57/4/1 65/4/1
f 67/4/1 62/4/1 61/4/1
f 67/4/1 61/4/1 60/4/1
f 68/4/1 62/4/1 67/4/1
f 69/3/1 63/3/1 62/3/1
f 69/4/1 62/4/1 68/4/1
f 70/3/1 63/3/1 69/3/1
f 71/3/1 63/3/1 70/3/1
f 72/4/1 65/4/1 64/4/1
f 72/3/1 63/3/1 71/3/1
f 72/4/1 64/4/1 63/4/1
f 73/4/1 65/4/1 72/4/1
f 74/4/1 70/4/1 69/4/1
f 74/4/1 69/4/1 68/4/1
f 75/3/1 71/3/1 70/3/1
f 75/4/1 70/4/1 74/4/1
f 76/3/1 71/3/1 75/3/1
f 77/3/1 71/3/1 76/3/1
f 78/4/1 72/4/1 71/4/1
f 78/3/1 71/3/1 77/3/1
f 79/4/1 72/4/1 78/4/1
f 80/4/1 76/4/1 75/4/1
f 81/3/1 77/3/1 76/3/1
f 81/4/1 76/4/1 80/4/1
f 82/3/1 77/3/1 81/3/1
f 83/3/1 77/3/1 82/3/1
f 84/4/1 78/4/1 77/4/1
f 84/3/1 77/3/1 83/3/1
f 85/4/1 78/4/1 84/4/1
f 86/4/1 82/4/1 81/4/1
f 87/3/1 83/3/1 82/3/1
f 87/4/1 82/4/1 86/4/1
f 88/3/1 83/3/1 87/3/1
f 89/3/1 83/3/1 88/3/1
f 90/4/1 84/4/1 83/4/1
f 90/3/1 83/3/1 89/3/1
f 91/4/1 84/4/1 90/4/1
f 92/4/1 84/4/1 91/4/1
f 93/4/1 88/4/1 87/4/1
f 94/3/1 89/3/1 88/3/1
f 94/4/1 88/4/1 93/4/1
f 95/3/1 89/3/1 94/3/1
f 96/3/1 89/3/1 95/3/1
f 97/4/1 91/4/1 90/4/1
f 97/3/1 89/3/1 96/3/1
f 97/4/1 90/4/1 89/4/1
f 98/4/1 91/4/1 97/4/1
f 99/4/1 91/4/1 98/4/1
f 100/4/1 95/4/1 94/4/1
f 101/3/1 96/3/1 95/3/1
f 101/4/1 95/4/1 100/4/1
f 102/3/1 96/3/1 101/3/1
f 103/3/1 96/3/1 102/3/1
f 104/4/1 98/4/1 97/4/1
f 104/3/1 96/3/1 103/3/1
f 104/4/1 97/4/1 96/4/1
f 105/4/1 98/4/1 104/4/1
f 106/4/1 102/4/1 101/4/1
f 107/3/1 103/3/1 102/3/1
f 107/4/1 102/4/1 106/4/1
f 108/4/1 104/4/1 103/4/1
f 108/3/1 103/3/1 107/3/1
f 109/4/1 104/4/1 108/4/1
f 110/4/1 108/4/1 107/4/1
f 111/4/1 108/4/1 110/4/1
f 114/3/1 113/3/1 112/3/1
f 115/3/1 113/3/1 114/3/1
f 118/4/1 117/4/1 116/4/1
f 119/4/1 117/4/1 118/4/1
f 122/4/1 121/4/1 120/4/1
f 123/4/1 121/4/1 122/4/1
f 125/2/1 124/2/1 123/2/1
f 126/2/1 124/2/1 125/2/1
f 128/4/1 126/4/1 125/4/1
f 129/4/1 128/4/1 127/4/1
f 130/4/1 126/4/1 128/4/1
f 130/4/1 128/4/1 129/4/1
f 133/3/1 132/3/1 131/3/1
f 134/3/1 132/3/1 133/3/1
f 137/2/1 136/2/1 135/2/1
f 138/2/1 137/2/1 135/2/1
f 139/2/1 137/2/1 138/2/1
f 140/2/1 137/2/1 139/2/1
f 143/3/1 142/3/1 141/3/1
f 144/3/1 142/3/1 143/3/1
f 147/3/1 146/3/1 145/3/1
f 148/3/1 146/3/1 147/3/1
f 150/3/1 146/3/1 148/3/1
f 151/3/1 150/3/1 149/3/1
f 152/3/1 146/3/1 150/3/1
f 152/3/1 150/3/1 151/3/1
f 155/2/1 154/2/1 153/2/1
f 156/2/1 155/2/1 153/2/1
f 157/2/1 155/2/1 156/2/1
f 158/2/1 155/2/1 157/2/1
f 161/3/1 160/3/1 159/3/1
f 162/3/1 160/3/1 161/3/1
f 165/4/1 164/4/1 163/4/1
f 166/4/1 164/4/1 165/4/1
f 169/3/1 168/3/1 167/3/1
f 170/3/1 168/3/1 169/3/1
f 173/3/1 172/3/1 171/3/1
f 174/3/1 172/3/1 173/3/1
f 175/3/1 168/3/1 170/3/1
f 176/3/1 168/3/1 175/3/1
f 179/4/1 178/4/1 177/4/1
f 180/4/1 178/4/1 179/4/1
f 185/4/1 182/4/1 181/4/1
f 185/4/1 183/4/1 182/4/1
f 186/4/1 183/4/1 185/4/1
f 187/4/1 185/4/1 184/4/1
f 188/4/1 185/4/1 187/4/1
f 191/3/1 190/3/1 189/3/1
f 193/3/1 191/3/1 189/3/1
f 193/3/1 192/3/1 191/3/1
f 194/3/1 192/3/1 193/3/1
f 197/3/1 196/3/1 195/3/1
f 198/3/1 196/3/1 197/3/1
f 199/3/1 192/3/1 194/3/1
f 200/3/1 192/3/1 199/3/1
f 203/3/1 202/3/1 201/3/1
f 205/3/1 204/3/1 203/3/1
f 207/3/1 203/3/1 201/3/1
f 207/3/1 206/3/1 205/3/1
f 207/3/1 205/3/1 203/3/1
f 208/3/1 206/3/1 207/3/1
f 212/4/1 210/4/1 209/4/1
f 213/4/1 210/4/1 212/4/1
f 214/4/1 212/4/1 211/4/1
f 215/4/1 212/4/1 214/4/1
f 219/4/1 217/4/1 216/4/1
f 220/4/1 217/4/1 219/4/1
f 221/4/1 219/4/1 218/4/1
f 222/4/1 219/4/1 221/4/1
f 226/4/1 224/4/1 223/4/1
f 227/4/1 224/4/1 226/4/1
f 228/4/1 226/4/1 225/4/1
f 229/4/1 226/4/1 228/4/1
f 233/4/1 231/4/1 230/4/1
f 234/4/1 231/4/1 233/4/1
f 235/4/1 233/4/1 232/4/1
f 236/4/1 233/4/1 235/4/1
f 239/2/1 238/2/1 237/2/1
f 240/2/1 238/2/1 239/2/1
f 243/4/1 242/4/1 241/4/1
f 244/4/1 242/4/1 243/4/1
f 247/2/1 246/2/1 245/2/1
f 248/2/1 246/2/1 247/2/1
f 252/4/1 250/4/1 249/4/1
f 253/4/1 250/4/1 252/4/1
f 254/4/1 250/4/1 253/4/1
f 255/4/1 252/4/1 251/4/1
f 255/4/1 253/4/1 252/4/1
f 256/4/1 253/4/1 255/4/1
f 259/4/1 258/4/1 257/4/1
f 260/4/1 258/4/1 259/4/1
f 263/4/1 262/4/1 261/4/1
f 264/4/1 262/4/1 263/4/1
f 267/4/1 266/4/1 265/4/1
f 268/4/1 266/4/1 267/4/1
f 270/4/1 267/4/1 265/4/1
f 271/4/1 267/4/1 270/4/1
f 272/4/1 270/4/1 269/4/1
f 273/4/1 270/4/1 272/4/1
f 278/4/1 275/4/1 274/4/1
f 279/4/1 275/4/1 278/4/1
f 280/4/1 277/4/1 276/4/1
f 281/4/1 277/4/1 280/4/1
f 284/2/1 283/2/1 282/2/1
f 285/2/1 284/2/1 282/2/1
f 286/2/1 285/2/1 282/2/1
f 287/2/1 286/2/1 282/2/1
f 288/2/1 287/2/1 282/2/1
f 289/2/1 288/2/1 282/2/1
f 290/2/1 288/2/1 289/2/1
f 295/4/1 292/4/1 291/4/1
f 296/4/1 292/4/1 295/4/1
f 297/4/1 294/4/1 293/4/1
f 298/4/1 294/4/1 297/4/1
f 302/3/1 300/3/1 299/3/1
f 303/1/1 301/1/1 300/1/1
f 303/3/1 300/3/1 302/3/1
f 305/1/1 301/1/1 303/1/1
f 306/3/1 305/3/1 304/3/1
f 307/1/1 301/1/1 305/1/1
f 307/3/1 305/3/1 306/3/1
f 309/1/1 301/1/1 307/1/1
f 310/3/1 309/3/1 308/3/1
f 311/1/1 301/1/1 309/1/1
f 311/3/1 309/3/1 310/3/1
f 312/1/1 301/1/1 311/1/1
f 315/4/1 314/4/1 313/4/1
f 316/4/1 314/4/1 315/4/1
f 319/3/1 318/3/1 317/3/1
f 320/3/1 318/3/1 319/3/1
f 325/4/1 322/4/1 321/4/1
f 326/4/1 322/4/1 325/4/1
f 327/4/1 324/4/1 323/4/1
f 328/4/1 324/4/1 327/4/1
f 331/3/1 330/3/1 329/3/1
f 332/3/1 330/3/1 331/3/1
f 335/3/1 334/3/1 333/3/1
f 336/3/1 334/3/1 335/3/1
f 339/4/1 338/4/1 337/4/1
f 340/4/1 338/4/1 339/4/1
f 343/4/1 342/4/1 341/4/1
f 344/4/1 342/4/1 343/4/1
f 347/4/1 346/4/1 345/4/1
f 348/4/1 346/4/1 347/4/1
f 351/4/1 350/4/1 349/4/1
f 352/4/1 350/4/1 351/4/1
f 356/3/1 354/3/1 353/3/1
f 356/1/1 355/1/1 354/1/1
f 357/1/1 355/1/1 356/1/1
f 358/3/1 356/3/1 353/3/1
f 360/3/1 358/3/1 353/3/1
f 361/1/1 359/1/1 358/1/1
f 361/3/1 358/3/1 360/3/1
f 362/1/1 359/1/1 361/1/1
f 365/3/1 364/3/1 363/3/1
f 366/3/1 364/3/1 365/3/1
f 367/3/2 368/3/2 369/3/2
f 369/3/2 368/3/2 370/3/2
f 371/3/2 372/3/2 374/3/2
f 372/1/2 373/1/2 375/1/2
f 374/3/2 372/3/2 375/3/2
f 375/1/2 373/1/2 376/1/2
f 376/1/2 373/1/2 379/1/2
f 377/3/2 378/3/2 380/3/2
f 378/1/2 379/1/2 381/1/2
f 380/3/2 378/3/2 381/3/2
f 379/1/2 373/1/2 382/1/2
f 381/1/2 379/1/2 382/1/2
f 383/4/2 384/4/2 385/4/2
f 385/4/2 384/4/2 386/4/2
f 387/3/2 388/3/2 389/3/2
f 389/3/2 388/3/2 390/3/2
f 391/2/2 392/2/2 393/2/2
f 391/2/2 393/2/2 394/2/2
f 394/2/2 393/2/2 395/2/2
f 395/2/2 393/2/2 396/2/2
f 397/3/2 398/3/2 399/3/2
f 399/3/2 398/3/2 400/3/2
f 401/2/2 402/2/2 403/2/2
f 401/2/2 403/2/2 404/2/2
f 404/2/2 403/2/2 405/2/2
f 405/2/2 403/2/2 406/2/2
f 407/3/2 408/3/2 409/3/2
f 407/3/2 409/3/2 411/3/2
f 409/3/2 410/3/2 411/3/2
f 411/3/2 410/3/2 412/3/2
f 413/3/2 414/3/2 415/3/2
f 415/3/2 414/3/2 416/3/2
f 412/3/2 410/3/2 417/3/2
f 417/3/2 410/3/2 418/3/2
f 419/4/2 420/4/2 421/4/2
f 421/4/2 420/4/2 422/4/2
f 422/2/2 423/2/2 424/2/2
f 424/2/2 423/2/2 425/2/2
f 424/4/2 425/4/2 427/4/2
f 426/4/2 427/4/2 428/4/2
f 427/4/2 425/4/2 429/4/2
f 428/4/2 427/4/2 429/4/2
f 430/4/2 431/4/2 432/4/2
f 432/4/2 431/4/2 433/4/2
f 434/3/2 435/3/2 436/3/2
f 436/3/2 435/3/2 437/3/2
f 438/3/2 439/3/2 440/3/2
f 440/3/2 439/3/2 441/3/2
f 437/3/2 435/3/2 442/3/2
f 442/3/2 435/3/2 443/3/2
f 444/3/2 445/3/2 446/3/2
f 446/3/2 445/3/2 447/3/2
f 448/4/2 449/4/2 450/4/2
f 450/4/2 449/4/2 451/4/2
f 452/4/2 453/4/2 454/4/2
f 454/4/2 453/4/2 455/4/2
f 456/4/2 457/4/2 458/4/2
f 458/4/2 457/4/2 459/4/2
f 460/4/2 461/4/2 462/4/2
f 462/4/2 461/4/2 463/4/2
f 464/4/2 465/4/2 468/4/2
f 468/4/2 465/4/2 469/4/2
f 466/4/2 467/4/2 470/4/2
f 470/4/2 467/4/2 471/4/2
f 472/3/2 473/3/2 475/3/2
f 473/1/2 474/1/2 475/1/2
f 475/1/2 474/1/2 476/1/2
f 472/3/2 475/3/2 477/3/2
f 472/3/2 477/3/2 479/3/2
f 477/1/2 478/1/2 480/1/2
f 479/3/2 477/3/2 480/3/2
f 480/1/2 478/1/2 481/1/2
f 482/3/2 483/3/2 485/3/2
f 483/1/2 484/1/2 486/1/2
f 485/3/2 483/3/2 486/3/2
f 486/1/2 484/1/2 488/1/2
f 487/3/2 488/3/2 489/3/2
f 488/1/2 484/1/2 490/1/2
f 489/3/2 488/3/2 490/3/2
f 490/1/2 484/1/2 492/1/2
f 491/3/2 492/3/2 493/3/2
f 492/1/2 484/1/2 494/1/2
f 493/3/2 492/3/2 494/3/2
f 494/1/2 484/1/2 495/1/2
f 496/4/2 497/4/2 498/4/2
f 498/4/2 497/4/2 499/4/2
f 500/2/2 501/2/2 502/2/2
f 500/2/2 502/2/2 503/2/2
f 500/2/2 503/2/2 504/2/2
f 500/2/2 504/2/2 505/2/2
f 500/2/2 505/2/2 506/2/2
f 500/2/2 506/2/2 507/2/2
f 507/2/2 506/2/2 508/2/2
f 509/4/2 510/4/2 513/4/2
f 513/4/2 510/4/2 514/4/2
f 511/4/2 512/4/2 515/4/2
f 515/4/2 512/4/2 516/4/2
f 517/4/2 518/4/2 521/4/2
f 521/4/2 518/4/2 522/4/2
f 519/4/2 520/4/2 523/4/2
f 523/4/2 520/4/2 524/4/2
f 525/4/2 526/4/2 527/4/2
f 527/4/2 526/4/2 528/4/2
f 525/4/2 527/4/2 530/4/2
f 530/4/2 527/4/2 531/4/2
f 529/4/2 530/4/2 532/4/2
f 532/4/2 530/4/2 533/4/2
f 534/4/2 535/4/2 536/4/2
f 536/4/2 535/4/2 537/4/2
f 538/2/2 539/2/2 540/2/2
f 540/2/2 539/2/2 541/2/2
f 542/4/2 543/4/2 545/4/2
f 545/4/2 543/4/2 546/4/2
f 546/4/2 543/4/2 547/4/2
f 544/4/2 545/4/2 548/4/2
f 545/4/2 546/4/2 548/4/2
f 548/4/2 546/4/2 549/4/2
f 550/2/2 551/2/2 552/2/2
f 552/2/2 551/2/2 553/2/2
f 554/4/2 555/4/2 557/4/2
f 557/4/2 555/4/2 558/4/2
f 556/4/2 557/4/2 559/4/2
f 559/4/2 557/4/2 560/4/2
f 563/3/2 564/3/2 565/3/2
f 565/3/2 564/3/2 566/3/2
f 567/3/2 568/3/2 569/3/2
f 569/3/2 568/3/2 570/3/2
f 561/3/2 562/3/2 571/3/2
f 571/3/2 562/3/2 572/3/2
f 573/4/2 574/4/2 576/4/2
f 576/4/2 574/4/2 577/4/2
f 575/4/2 576/4/2 578/4/2
f 578/4/2 576/4/2 579/4/2
f 580/4/2 581/4/2 583/4/2
f 583/4/2 581/4/2 584/4/2
f 582/4/2 583/4/2 585/4/2
f 585/4/2 583/4/2 586/4/2
f 587/3/2 588/3/2 589/3/2
f 589/3/2 590/3/2 591/3/2
f 587/3/2 589/3/2 593/3/2
f 591/3/2 592/3/2 593/3/2
f 589/3/2 591/3/2 593/3/2
f 593/3/2 592/3/2 594/3/2
f 595/4/2 596/4/2 598/4/2
f 598/4/2 596/4/2 599/4/2
f 597/4/2 598/4/2 600/4/2
f 600/4/2 598/4/2 601/4/2
f 602/4/2 603/4/2 606/4/2
f 603/4/2 604/4/2 606/4/2
f 606/4/2 604/4/2 607/4/2
f 605/4/2 606/4/2 608/4/2
f 608/4/2 606/4/2 609/4/2
f 610/4/2 611/4/2 612/4/2
f 612/4/2 611/4/2 613/4/2
f 614/3/2 615/3/2 616/3/2
f 616/3/2 615/3/2 617/3/2
f 620/3/2 621/3/2 622/3/2
f 622/3/2 621/3/2 623/3/2
f 624/4/2 625/4/2 629/4/2
f 629/4/2 625/4/2 630/4/2
f 626/4/2 627/4/2 631/4/2
f 631/4/2 627/4/2 632/4/2
f 628/4/2 629/4/2 635/4/2
f 635/4/2 629/4/2 636/4/2
f 632/4/2 633/4/2 637/4/2
f 637/4/2 633/4/2 638/4/2
f 634/4/2 635/4/2 641/4/2
f 641/4/2 635/4/2 642/4/2
f 638/4/2 639/4/2 643/4/2
f 643/4/2 639/4/2 644/4/2
f 618/3/2 619/3/2 646/3/2
f 640/4/2 641/4/2 647/4/2
f 647/4/2 641/4/2 648/4/2
f 644/4/2 645/4/2 649/4/2
f 649/4/2 645/4/2 650/4/2
f 618/3/2 646/3/2 651/3/2
f 646/4/2 647/4/2 652/4/2
f 651/3/2 646/3/2 652/3/2
f 652/4/2 647/4/2 653/4/2
f 650/4/2 651/4/2 656/4/2
f 651/3/2 652/3/2 657/3/2
f 656/4/2 651/4/2 657/4/2
f 654/4/2 655/4/2 660/4/2
f 660/4/2 655/4/2 661/4/2
f 658/4/2 659/4/2 664/4/2
f 664/4/2 659/4/2 665/4/2
f 661/4/2 662/4/2 666/4/2
f 666/4/2 662/4/2 667/4/2
f 667/4/2 662/4/2 668/4/2
f 657/3/2 652/3/2 669/3/2
f 669/3/2 652/3/2 670/3/2
f 670/3/2 652/3/2 671/3/2
f 671/3/2 652/3/2 672/3/2
f 663/4/2 664/4/2 673/4/2
f 673/4/2 664/4/2 674/4/2
f 674/4/2 664/4/2 675/4/2
f 667/4/2 668/4/2 676/4/2
f 668/4/2 669/4/2 676/4/2
f 669/4/2 670/4/2 676/4/2
f 676/4/2 670/4/2 677/4/2
f 670/3/2 671/3/2 678/3/2
f 677/4/2 670/4/2 678/4/2
f 678/3/2 671/3/2 679/3/2
f 679/3/2 671/3/2 680/3/2
f 671/4/2 672/4/2 681/4/2
f 680/3/2 671/3/2 681/3/2
f 673/4/2 674/4/2 681/4/2
f 672/4/2 673/4/2 681/4/2
f 681/4/2 674/4/2 682/4/2
f 682/4/2 674/4/2 683/4/2
f 678/4/2 679/4/2 684/4/2
f 677/4/2 678/4/2 684/4/2
f 679/3/2 680/3/2 685/3/2
f 684/4/2 679/4/2 685/4/2
f 685/3/2 680/3/2 686/3/2
f 686/3/2 680/3/2 687/3/2
f 681/4/2 682/4/2 688/4/2
f 687/3/2 680/3/2 688/3/2
f 680/4/2 681/4/2 688/4/2
f 688/4/2 682/4/2 689/4/2
f 685/4/2 686/4/2 690/4/2
f 686/3/2 687/3/2 691/3/2
f 690/4/2 686/4/2 691/4/2
f 691/3/2 687/3/2 692/3/2
f 692/3/2 687/3/2 693/3/2
f 687/4/2 688/4/2 694/4/2
f 693/3/2 687/3/2 694/3/2
f 694/4/2 688/4/2 695/4/2
f 691/4/2 692/4/2 696/4/2
f 692/3/2 693/3/2 697/3/2
f 696/4/2 692/4/2 697/4/2
f 697/3/2 693/3/2 698/3/2
f 698/3/2 693/3/2 699/3/2
f 693/4/2 694/4/2 700/4/2
f 699/3/2 693/3/2 700/3/2
f 700/4/2 694/4/2 701/4/2
f 697/4/2 698/4/2 702/4/2
f 698/3/2 699/3/2 703/3/2
f 702/4/2 698/4/2 703/4/2
f 703/3/2 699/3/2 704/3/2
f 704/3/2 699/3/2 705/3/2
f 699/4/2 700/4/2 706/4/2
f 705/3/2 699/3/2 706/3/2
f 706/4/2 700/4/2 707/4/2
f 703/4/2 704/4/2 708/4/2
f 704/3/2 705/3/2 709/3/2
f 708/4/2 704/4/2 709/4/2
f 709/3/2 705/3/2 710/3/2
f 710/3/2 705/3/2 711/3/2
f 705/4/2 706/4/2 712/4/2
f 711/3/2 705/3/2 712/3/2
f 712/4/2 706/4/2 713/4/2
f 709/4/2 710/4/2 714/4/2
f 710/3/2 711/3/2 715/3/2
f 714/4/2 710/4/2 715/4/2
f 715/3/2 711/3/2 716/3/2
f 716/3/2 711/3/2 717/3/2
f 711/4/2 712/4/2 718/4/2
f 717/3/2 711/3/2 718/3/2
f 718/4/2 712/4/2 719/4/2
f 715/4/2 716/4/2 720/4/2
f 716/3/2 717/3/2 721/3/2
f 720/4/2 716/4/2 721/4/2
f 717/4/2 718/4/2 722/4/2
f 721/3/2 717/3/2 722/3/2
f 722/4/2 718/4/2 723/4/2
f 721/4/2 722/4/2 724/4/2
f 724/4/2 722/4/2 725/4/2
f 728/4/3 727/4/3 726/4/3
f 729/4/3 727/4/3 728/4/3
f 732/3/3 731/3/3 730/3/3
f 734/3/3 732/3/3 730/3/3
f 734/3/3 733/3/3 732/3/3
f 735/3/3 733/3/3 734/3/3
f 736/3/3 734/3/3 730/3/3
f 738/3/3 736/3/3 730/3/3
f 738/3/3 737/3/3 736/3/3
f 739/3/3 737/3/3 738/3/3
f 740/3/3 738/3/3 730/3/3
f 741/3/3 738/3/3 740/3/3
f 744/3/3 743/3/3 742/3/3
f 745/3/3 743/3/3 744/3/3
f 748/3/3 747/3/3 746/3/3
f 749/3/3 747/3/3 748/3/3
f 752/4/3 751/4/3 750/4/3
f 753/4/3 751/4/3 752/4/3
f 758/4/3 755/4/3 754/4/3
f 759/4/3 755/4/3 758/4/3
f 760/4/3 757/4/3 756/4/3
f 761/4/3 757/4/3 760/4/3
f 766/4/3 763/4/3 762/4/3
f 767/4/3 763/4/3 766/4/3
f 768/4/3 765/4/3 764/4/3
f 769/4/3 765/4/3 768/4/3
f 776/4/3 775/4/3 774/4/3
f 778/4/3 777/4/3 776/4/3
f 780/4/3 776/4/3 774/4/3
f 780/4/3 779/4/3 778/4/3
f 780/4/3 778/4/3 776/4/3
f 781/4/3 779/4/3 780/4/3
f 782/4/3 779/4/3 781/4/3
f 784/4/3 783/4/3 782/4/3
f 784/4/3 782/4/3 781/4/3
f 785/4/3 783/4/3 784/4/3
f 786/4/3 783/4/3 785/4/3
f 788/4/3 787/4/3 786/4/3
f 788/4/3 786/4/3 785/4/3
f 789/4/3 787/4/3 788/4/3
f 790/4/3 787/4/3 789/4/3
f 792/4/3 790/4/3 789/4/3
f 792/4/3 791/4/3 790/4/3
f 793/4/3 791/4/3 792/4/3
f 794/4/3 791/4/3 793/4/3
f 795/4/3 791/4/3 794/4/3
f 796/4/3 791/4/3 795/4/3
f 798/4/3 797/4/3 796/4/3
f 798/4/3 796/4/3 795/4/3
f 799/4/3 797/4/3 798/4/3
f 800/4/3 797/4/3 799/4/3
f 802/4/3 801/4/3 800/4/3
f 802/4/3 800/4/3 799/4/3
f 803/4/3 801/4/3 802/4/3
f 805/4/3 801/4/3 803/4/3
f 807/4/3 805/4/3 804/4/3
f 808/4/3 801/4/3 805/4/3
f 808/4/3 805/4/3 807/4/3
f 809/4/3 801/4/3 808/4/3
f 811/4/3 807/4/3 806/4/3
f 811/4/3 808/4/3 807/4/3
f 812/4/3 808/4/3 811/4/3
f 813/4/3 808/4/3 812/4/3
f 815/4/3 811/4/3 810/4/3
f 815/4/3 812/4/3 811/4/3
f 816/4/3 812/4/3 815/4/3
f 816/4/3 815/4/3 814/4/3
f 817/4/3 812/4/3 816/4/3
f 819/4/3 816/4/3 814/4/3
f 821/4/3 819/4/3 818/4/3
f 822/4/3 816/4/3 819/4/3
f 822/4/3 819/4/3 821/4/3
f 823/4/3 816/4/3 822/4/3
f 825/4/3 821/4/3 820/4/3
f 825/4/3 822/4/3 821/4/3
f 826/4/3 822/4/3 825/4/3
f 827/4/3 822/4/3 826/4/3
f 828/4/3 825/4/3 824/4/3
f 828/4/3 826/4/3 825/4/3
f 829/4/3 826/4/3 828/4/3
f 830/4/3 828/4/3 824/4/3
f 831/4/3 828/4/3 830/4/3
f 832/4/3 830/4/3 824/4/3
f 833/4/3 830/4/3 832/4/3
f 834/4/3 771/4/3 770/4/3
f 835/4/3 771/4/3 834/4/3
f 836/4/3 773/4/3 772/4/3
f 837/4/3 773/4/3 836/4/3
f 840/3/3 839/3/3 838/3/3
f 841/3/3 839/3/3 840/3/3
f 843/3/3 839/3/3 841/3/3
f 844/3/3 843/3/3 842/3/3
f 845/3/3 839/3/3 843/3/3
f 845/3/3 843/3/3 844/3/3
f 848/2/3 847/2/3 846/2/3
f 850/2/3 848/2/3 846/2/3
f 850/2/3 849/2/3 848/2/3
f 851/2/3 849/2/3 850/2/3
f 853/2/3 849/2/3 851/2/3
f 854/2/3 849/2/3 853/2/3
f 854/2/3 853/2/3 852/2/3
f 855/2/3 849/2/3 854/2/3
f 856/2/3 854/2/3 852/2/3
f 857/2/3 854/2/3 856/2/3
f 864/3/3 859/3/3 858/3/3
f 865/3/3 859/3/3 864/3/3
f 866/3/3 859/3/3 865/3/3
f 867/3/3 859/3/3 866/3/3
f 868/3/3 864/3/3 858/3/3
f 869/3/3 866/3/3 865/3/3
f 870/3/3 866/3/3 869/3/3
f 871/3/3 859/3/3 867/3/3
f 872/3/3 870/3/3 869/3/3
f 872/3/3 871/3/3 870/3/3
f 872/3/3 868/3/3 858/3/3
f 872/3/3 869/3/3 868/3/3
f 873/3/3 871/3/3 872/3/3
f 876/3/3 871/3/3 873/3/3
f 877/3/3 859/3/3 871/3/3
f 877/3/3 871/3/3 876/3/3
f 878/3/3 875/3/3 874/3/3
f 881/3/3 859/3/3 877/3/3
f 882/3/3 879/3/3 878/3/3
f 882/3/3 878/3/3 874/3/3
f 883/3/3 879/3/3 882/3/3
f 884/3/3 881/3/3 880/3/3
f 885/3/3 859/3/3 881/3/3
f 885/3/3 881/3/3 884/3/3
f 886/3/3 882/3/3 874/3/3
f 887/3/3 882/3/3 886/3/3
f 889/3/3 859/3/3 885/3/3
f 890/4/3 863/4/3 862/4/3
f 891/4/3 863/4/3 890/4/3
f 894/3/3 889/3/3 888/3/3
f 895/3/3 891/3/3 890/3/3
f 895/3/3 892/3/3 891/3/3
f 897/3/3 896/3/3 895/3/3
f 899/3/3 898/3/3 897/3/3
f 901/3/3 895/3/3 890/3/3
f 901/3/3 900/3/3 899/3/3
f 901/3/3 899/3/3 897/3/3
f 901/3/3 897/3/3 895/3/3
f 902/3/3 900/3/3 901/3/3
f 903/3/3 900/3/3 902/3/3
f 905/3/3 894/3/3 893/3/3
f 906/3/3 889/3/3 894/3/3
f 906/3/3 894/3/3 905/3/3
f 907/3/3 904/3/3 903/3/3
f 907/3/3 903/3/3 902/3/3
f 908/3/3 904/3/3 907/3/3
f 909/3/3 904/3/3 908/3/3
f 917/3/3 910/3/3 909/3/3
f 917/3/3 909/3/3 908/3/3
f 919/3/3 918/3/3 917/3/3
f 923/3/3 919/3/3 917/3/3
f 923/3/3 920/3/3 919/3/3
f 924/3/3 920/3/3 923/3/3
f 925/4/3 922/4/3 921/4/3
f 926/4/3 922/4/3 925/4/3
f 927/4/3 912/4/3 911/4/3
f 928/4/3 912/4/3 927/4/3
f 929/3/3 914/3/3 913/3/3
f 930/3/3 914/3/3 929/3/3
f 931/3/3 916/3/3 915/3/3
f 932/3/3 916/3/3 931/3/3
f 933/3/3 917/3/3 908/3/3
f 933/3/3 923/3/3 917/3/3
f 934/3/3 923/3/3 933/3/3
f 936/3/3 933/3/3 908/3/3
f 937/3/3 933/3/3 936/3/3
f 938/3/3 933/3/3 937/3/3
f 940/3/3 936/3/3 935/3/3
f 940/3/3 937/3/3 936/3/3
f 941/3/3 937/3/3 940/3/3
f 942/3/3 937/3/3 941/3/3
f 943/3/3 940/3/3 939/3/3
f 943/3/3 941/3/3 940/3/3
f 944/3/3 941/3/3 943/3/3
f 945/3/3 943/3/3 939/3/3
f 946/3/3 943/3/3 945/3/3
f 947/3/3 945/3/3 939/3/3
f 948/3/3 945/3/3 947/3/3
f 949/3/3 947/3/3 939/3/3
f 950/3/3 947/3/3 949/3/3
f 951/3/3 947/3/3 950/3/3
f 952/3/3 905/3/3 893/3/3
f 953/3/3 889/3/3 906/3/3
f 954/3/3 952/3/3 893/3/3
f 954/3/3 953/3/3 952/3/3
f 955/3/3 889/3/3 953/3/3
f 955/3/3 953/3/3 954/3/3
f 955/3/3 859/3/3 889/3/3
f 956/3/3 861/3/3 860/3/3
f 957/3/3 861/3/3 956/3/3
f 958/4/3 950/4/3 949/4/3
f 959/4/3 950/4/3 958/4/3
f 962/3/3 961/3/3 960/3/3
f 963/3/3 961/3/3 962/3/3
f 966/3/3 965/3/3 964/3/3
f 967/3/3 965/3/3 966/3/3
f 971/3/3 969/3/3 968/3/3
f 972/3/3 969/3/3 971/3/3
f 974/3/3 971/3/3 970/3/3
f 974/3/3 973/3/3 972/3/3
f 974/3/3 972/3/3 971/3/3
f 975/3/3 973/3/3 974/3/3
f 976/3/3 973/3/3 975/3/3
f 977/3/3 973/3/3 976/3/3
f 978/3/3 976/3/3 975/3/3
f 979/3/3 976/3/3 978/3/3
f 983/4/3 981/4/3 980/4/3
f 984/4/3 981/4/3 983/4/3
f 986/4/3 983/4/3 982/4/3
f 987/4/3 983/4/3 986/4/3
f 988/4/3 985/4/3 984/4/3
f 989/4/3 985/4/3 988/4/3
f 990/4/3 988/4/3 987/4/3
f 991/4/3 988/4/3 990/4/3
f 996/1/3 993/1/3 992/1/3
f 997/1/3 993/1/3 996/1/3
f 998/1/3 995/1/3 994/1/3
f 999/1/3 995/1/3 998/1/3
f 1004/1/3 1001/1/3 1000/1/3
f 1005/1/3 1001/1/3 1004/1/3
f 1006/1/3 1003/1/3 1002/1/3
f 1007/1/3 1003/1/3 1006/1/3
f 1012/2/3 1011/2/3 1010/2/3
f 1013/2/3 1011/2/3 1012/2/3
f 1014/2/3 1012/2/3 1010/2/3
f 1014/1/3 1013/1/3 1012/1/3
f 1015/2/3 1011/2/3 1013/2/3
f 1015/1/3 1013/1/3 1014/1/3
f 1016/2/3 1015/2/3 1014/2/3
f 1017/2/3 1011/2/3 1015/2/3
f 1017/2/3 1015/2/3 1016/2/3
f 1018/2/3 1016/2/3 1014/2/3
f 1018/1/3 1017/1/3 1016/1/3
f 1019/2/3 1011/2/3 1017/2/3
f 1019/1/3 1017/1/3 1018/1/3
f 1020/2/3 1014/2/3 1010/2/3
f 1020/2/3 1018/2/3 1014/2/3
f 1020/2/3 1019/2/3 1018/2/3
f 1021/2/3 1019/2/3 1020/2/3
f 1022/2/3 1019/2/3 1021/2/3
f 1023/2/3 1011/2/3 1019/2/3
f 1023/2/3 1019/2/3 1022/2/3
f 1024/2/3 1020/2/3 1010/2/3
f 1024/1/3 1021/1/3 1020/1/3
f 1025/2/3 1022/2/3 1021/2/3
f 1025/1/3 1021/1/3 1024/1/3
f 1026/1/3 1023/1/3 1022/1/3
f 1026/2/3 1022/2/3 1025/2/3
f 1027/2/3 1024/2/3 1010/2/3
f 1027/2/3 1025/2/3 1024/2/3
f 1028/1/3 1026/1/3 1025/1/3
f 1028/2/3 1025/2/3 1027/2/3
f 1029/1/3 1023/1/3 1026/1/3
f 1029/1/3 1026/1/3 1028/1/3
f 1029/2/3 1011/2/3 1023/2/3
f 1030/1/3 1028/1/3 1027/1/3
f 1030/2/3 1027/2/3 1010/2/3
f 1031/2/3 1029/2/3 1028/2/3
f 1031/1/3 1028/1/3 1030/1/3
f 1032/2/3 1031/2/3 1030/2/3
f 1032/2/3 1029/2/3 1031/2/3
f 1033/2/3 1011/2/3 1029/2/3
f 1033/2/3 1029/2/3 1032/2/3
f 1034/2/3 1032/2/3 1030/2/3
f 1034/2/3 1030/2/3 1010/2/3
f 1035/1/3 1033/1/3 1032/1/3
f 1035/2/3 1032/2/3 1034/2/3
f 1036/2/3 1011/2/3 1033/2/3
f 1036/1/3 1033/1/3 1035/1/3
f 1037/1/3 1035/1/3 1034/1/3
f 1037/2/3 1034/2/3 1010/2/3
f 1038/2/3 1036/2/3 1035/2/3
f 1038/1/3 1035/1/3 1037/1/3
f 1039/2/3 1037/2/3 1010/2/3
f 1039/2/3 1038/2/3 1037/2/3
f 1040/2/3 1011/2/3 1036/2/3
f 1040/2/3 1038/2/3 1039/2/3
f 1040/2/3 1036/2/3 1038/2/3
f 1041/4/3 1009/4/3 1008/4/3
f 1042/4/3 1009/4/3 1041/4/3
f 1045/1/3 1044/1/3 1043/1/3
f 1046/1/3 1044/1/3 1045/1/3
f 1049/4/3 1048/4/3 1047/4/3
f 1050/4/3 1048/4/3 1049/4/3
f 1055/2/3 1054/2/3 1053/2/3
f 1056/2/3 1054/2/3 1055/2/3
f 1059/1/3 1058/1/3 1057/1/3
f 1060/1/3 1058/1/3 1059/1/3
f 1061/1/3 1052/1/3 1051/1/3
f 1062/1/3 1052/1/3 1061/1/3
f 1065/2/3 1064/2/3 1063/2/3
f 1066/2/3 1064/2/3 1065/2/3
f 1069/1/3 1068/1/3 1067/1/3
f 1070/1/3 1068/1/3 1069/1/3
f 1073/1/3 1072/1/3 1071/1/3
f 1074/1/3 1072/1/3 1073/1/3
f 1077/4/3 1076/4/3 1075/4/3
f 1078/4/3 1076/4/3 1077/4/3
f 1081/4/3 1080/4/3 1079/4/3
f 1082/4/3 1080/4/3 1081/4/3
f 1085/4/3 1084/4/3 1083/4/3
f 1086/4/3 1084/4/3 1085/4/3
f 1089/4/3 1088/4/3 1087/4/3
f 1090/4/3 1088/4/3 1089/4/3
f 1093/4/3 1092/4/3 1091/4/3
f 1094/4/3 1093/4/3 1091/4/3
f 1095/4/3 1093/4/3 1094/4/3
f 1098/4/3 1097/4/3 1096/4/3
f 1099/4/3 1098/4/3 1096/4/3
f 1100/4/3 1098/4/3 1099/4/3
f 1103/4/3 1102/4/3 1101/4/3
f 1104/4/3 1102/4/3 1103/4/3
f 1107/4/3 1106/4/3 1105/4/3
f 1108/4/3 1106/4/3 1107/4/3
f 1111/4/3 1110/4/3 1109/4/3
f 1112/4/3 1110/4/3 1111/4/3
f 1115/4/3 1114/4/3 1113/4/3
f 1116/4/3 1114/4/3 1115/4/3
f 1119/4/3 1118/4/3 1117/4/3
f 1120/4/3 1118/4/3 1119/4/3
f 1123/4/3 1122/4/3 1121/4/3
f 1124/4/3 1123/4/3 1121/4/3
f 1125/4/3 1124/4/3 1121/4/3
f 1126/4/3 1124/4/3 1125/4/3
f 1129/4/3 1128/4/3 1127/4/3
f 1130/4/3 1128/4/3 1129/4/3
f 1133/4/3 1132/4/3 1131/4/3
f 1134/4/3 1132/4/3 1133/4/3
f 1137/4/3 1136/4/3 1135/4/3
f 1138/4/3 1136/4/3 1137/4/3
f 1141/4/3 1140/4/3 1139/4/3
f 1142/4/3 1140/4/3 1141/4/3
f 1147/4/3 1144/4/3 1143/4/3
f 1148/4/3 1144/4/3 1147/4/3
f 1149/4/3 1146/4/3 1145/4/3
f 1150/4/3 1146/4/3 1149/4/3
f 1153/4/3 1152/4/3 1151/4/3
f 1154/4/3 1152/4/3 1153/4/3
f 1157/4/3 1156/4/3 1155/4/3
f 1158/4/3 1156/4/3 1157/4/3
f 1159/3/4 1160/3/4 1163/3/4
f 1161/4/4 1162/4/4 1164/4/4
f 1159/3/4 1163/3/4 1165/3/4
f 1163/3/4 1164/3/4 1165/3/4
f 1164/4/4 1162/4/4 1166/4/4
f 1165/3/4 1164/3/4 1166/3/4
f 1159/3/4 1165/3/4 1168/3/4
f 1167/3/4 1168/3/4 1169/3/4
f 1168/3/4 1165/3/4 1170/3/4
f 1169/3/4 1168/3/4 1170/3/4
f 1170/3/4 1165/3/4 1172/3/4
f 1171/3/4 1172/3/4 1173/3/4
f 1172/3/4 1165/3/4 1174/3/4
f 1173/3/4 1172/3/4 1174/3/4
f 1174/3/4 1165/3/4 1175/3/4
f 1166/4/4 1162/4/4 1176/4/4
f 1174/3/4 1175/3/4 1177/3/4
f 1175/3/4 1176/3/4 1177/3/4
f 1176/4/4 1162/4/4 1178/4/4
f 1177/3/4 1176/3/4 1178/3/4
f 1174/3/4 1177/3/4 1179/3/4
f 1179/3/4 1177/3/4 1180/3/4
f 1178/4/4 1162/4/4 1181/4/4
f 1181/4/4 1162/4/4 1182/4/4
f 1183/4/4 1184/4/4 1185/4/4
f 1185/4/4 1184/4/4 1186/4/4
f 1187/4/4 1188/4/4 1191/4/4
f 1191/4/4 1188/4/4 1192/4/4
f 1189/4/4 1190/4/4 1193/4/4
f 1193/4/4 1190/4/4 1194/4/4
f 1195/4/4 1196/4/4 1197/4/4
f 1197/4/4 1196/4/4 1198/4/4
f 1201/4/4 1202/4/4 1203/4/4
f 1203/4/4 1202/4/4 1204/4/4
f 1204/4/4 1205/4/4 1206/4/4
f 1206/4/4 1205/4/4 1207/4/4
f 1207/4/4 1208/4/4 1209/4/4
f 1209/4/4 1208/4/4 1210/4/4
f 1210/4/4 1211/4/4 1212/4/4
f 1212/4/4 1211/4/4 1213/4/4
f 1213/4/4 1214/4/4 1215/4/4
f 1215/4/4 1214/4/4 1216/4/4
f 1216/4/4 1217/4/4 1218/4/4
f 1218/4/4 1217/4/4 1219/4/4
f 1220/4/4 1221/4/4 1223/4/4
f 1223/4/4 1221/4/4 1224/4/4
f 1222/4/4 1223/4/4 1226/4/4
f 1226/4/4 1223/4/4 1227/4/4
f 1225/4/4 1226/4/4 1229/4/4
f 1229/4/4 1226/4/4 1230/4/4
f 1228/4/4 1229/4/4 1232/4/4
f 1232/4/4 1229/4/4 1233/4/4
f 1231/4/4 1232/4/4 1235/4/4
f 1235/4/4 1232/4/4 1236/4/4
f 1234/4/4 1235/4/4 1237/4/4
f 1237/4/4 1235/4/4 1238/4/4
f 1199/4/4 1200/4/4 1239/4/4
f 1239/4/4 1200/4/4 1240/4/4
f 1241/4/4 1242/4/4 1249/4/4
f 1249/4/4 1242/4/4 1250/4/4
f 1243/2/4 1244/2/4 1251/2/4
f 1251/2/4 1244/2/4 1252/2/4
f 1245/2/4 1246/2/4 1253/2/4
f 1253/2/4 1246/2/4 1254/2/4
f 1247/2/4 1248/2/4 1255/2/4
f 1255/2/4 1248/2/4 1256/2/4
f 1257/2/4 1258/2/4 1263/2/4
f 1263/2/4 1258/2/4 1264/2/4
f 1259/2/4 1260/2/4 1265/2/4
f 1265/2/4 1260/2/4 1266/2/4
f 1261/2/4 1262/2/4 1267/2/4
f 1267/2/4 1262/2/4 1268/2/4
f 1273/4/4 1274/4/4 1275/4/4
f 1273/4/4 1275/4/4 1277/4/4
f 1275/4/4 1276/4/4 1277/4/4
f 1277/4/4 1276/4/4 1278/4/4
f 1278/4/4 1279/4/4 1281/4/4
f 1281/4/4 1279/4/4 1282/4/4
f 1280/4/4 1281/4/4 1283/4/4
f 1283/4/4 1281/4/4 1284/4/4
f 1269/3/4 1270/3/4 1285/3/4
f 1285/3/4 1270/3/4 1286/3/4
f 1271/3/4 1272/3/4 1287/3/4
f 1287/3/4 1272/3/4 1288/3/4
f 1280/4/4 1283/4/4 1289/4/4
f 1289/4/4 1283/4/4 1290/4/4
f 1293/3/4 1294/3/4 1295/3/4
f 1295/3/4 1294/3/4 1296/3/4
f 1291/3/4 1292/3/4 1297/3/4
f 1297/3/4 1292/3/4 1298/3/4
f 1299/3/4 1300/3/4 1301/3/4
f 1301/3/4 1300/3/4 1302/3/4
f 1303/3/4 1304/3/4 1305/3/4
f 1305/3/4 1304/3/4 1306/3/4
f 1307/4/4 1308/4/4 1310/4/4
f 1310/4/4 1308/4/4 1311/4/4
f 1311/4/4 1308/4/4 1312/4/4
f 1309/4/4 1310/4/4 1313/4/4
f 1313/4/4 1310/4/4 1314/4/4
f 1315/4/4 1316/4/4 1317/4/4
f 1317/4/4 1316/4/4 1318/4/4
f 1319/4/4 1320/4/4 1321/4/4
f 1321/4/4 1320/4/4 1322/4/4
f 1323/4/4 1324/4/4 1325/4/4
f 1322/4/4 1323/4/4 1325/4/4
f 1325/4/4 1324/4/4 1326/4/4
f 1327/2/4 1328/2/4 1331/2/4
f 1330/2/4 1331/2/4 1332/2/4
f 1331/2/4 1328/2/4 1333/2/4
f 1332/2/4 1331/2/4 1333/2/4
f 1333/2/4 1328/2/4 1335/2/4
f 1334/2/4 1335/2/4 1336/2/4
f 1335/2/4 1328/2/4 1337/2/4
f 1336/2/4 1335/2/4 1337/2/4
f 1337/2/4 1328/2/4 1338/2/4
f 1328/4/4 1329/4/4 1339/4/4
f 1338/2/4 1328/2/4 1339/2/4
f 1339/4/4 1329/4/4 1340/4/4
f 1341/4/4 1342/4/4 1343/4/4
f 1343/4/4 1342/4/4 1344/4/4
f 1345/3/4 1346/3/4 1347/3/4
f 1347/3/4 1348/3/4 1351/3/4
f 1349/4/4 1350/4/4 1352/4/4
f 1352/4/4 1350/4/4 1353/4/4
f 1351/3/4 1352/3/4 1354/3/4
f 1351/3/4 1354/3/4 1356/3/4
f 1354/3/4 1355/3/4 1356/3/4
f 1356/3/4 1355/3/4 1357/3/4
f 1347/3/4 1351/3/4 1358/3/4
f 1351/3/4 1356/3/4 1358/3/4
f 1358/3/4 1356/3/4 1359/3/4
f 1345/3/4 1347/3/4 1360/3/4
f 1347/3/4 1358/3/4 1360/3/4
f 1360/3/4 1358/3/4 1361/3/4
f 1345/3/4 1360/3/4 1362/3/4
f 1362/3/4 1360/3/4 1363/3/4
f 1364/4/4 1365/4/4 1366/4/4
f 1364/4/4 1366/4/4 1368/4/4
f 1366/4/4 1367/4/4 1368/4/4
f 1368/4/4 1367/4/4 1369/4/4
f 1369/4/4 1367/4/4 1370/4/4
f 1370/4/4 1367/4/4 1371/4/4
f 1371/4/4 1372/4/4 1373/4/4
f 1373/4/4 1372/4/4 1374/4/4
f 1374/4/4 1375/4/4 1377/4/4
f 1377/4/4 1375/4/4 1378/4/4
f 1376/4/4 1377/4/4 1380/4/4
f 1380/4/4 1377/4/4 1381/4/4
f 1379/4/4 1380/4/4 1381/4/4
f 1381/4/4 1377/4/4 1382/4/4
f 1379/4/4 1381/4/4 1384/4/4
f 1384/4/4 1381/4/4 1385/4/4
f 1383/4/4 1384/4/4 1385/4/4
f 1385/4/4 1381/4/4 1386/4/4
f 1383/4/4 1385/4/4 1387/4/4
f 1387/4/4 1385/4/4 1388/4/4
f 1389/4/4 1390/4/4 1391/4/4
f 1391/4/4 1390/4/4 1392/4/4
f 1393/4/4 1394/4/4 1395/4/4
f 1395/4/4 1394/4/4 1396/4/4
f 1397/4/4 1398/4/4 1399/4/4
f 1399/4/4 1398/4/4 1400/4/4
f 1401/4/4 1402/4/4 1403/4/4
f 1403/4/4 1402/4/4 1404/4/4
f 1405/4/4 1406/4/4 1407/4/4
f 1407/4/4 1406/4/4 1408/4/4
f 1409/4/4 1410/4/4 1411/4/4
f 1411/4/4 1410/4/4 1412/4/4
f 1413/4/4 1414/4/4 1415/4/4
f 1415/4/4 1414/4/4 1416/4/4
f 1417/3/4 1418/3/4 1423/3/4
f 1423/3/4 1418/3/4 1424/3/4
f 1419/3/4 1420/3/4 1425/3/4
f 1425/3/4 1420/3/4 1426/3/4
f 1421/4/4 1422/4/4 1427/4/4
f 1427/4/4 1422/4/4 1428/4/4
f 1429/4/4 1430/4/4 1433/4/4
f 1433/4/4 1430/4/4 1434/4/4
f 1431/4/4 1432/4/4 1435/4/4
f 1435/4/4 1432/4/4 1436/4/4
f 1437/4/4 1438/4/4 1441/4/4
f 1441/4/4 1438/4/4 1442/4/4
f 1439/4/4 1440/4/4 1443/4/4
f 1443/4/4 1440/4/4 1444/4/4
f 1445/4/4 1446/4/4 1449/4/4
f 1449/4/4 1446/4/4 1450/4/4
f 1447/4/4 1448/4/4 1451/4/4
f 1451/4/4 1448/4/4 1452/4/4
f 1453/4/4 1454/4/4 1455/4/4
f 1455/4/4 1454/4/4 1456/4/4
f 1457/4/4 1458/4/4 1459/4/4
f 1459/4/4 1458/4/4 1460/4/4
f 1465/3/5 1462/3/5 1461/3/5
f 1466/3/5 1462/3/5 1465/3/5
f 1467/3/5 1464/3/5 1463/3/5
f 1468/3/5 1464/3/5 1467/3/5
f 1474/3/5 1470/3/5 1469/3/5
f 1475/3/5 1470/3/5 1474/3/5
f 1476/3/5 1472/3/5 1471/3/5
f 1477/3/5 1472/3/5 1476/3/5
f 1479/3/5 1477/3/5 1476/3/5
f 1479/3/5 1478/3/5 1477/3/5
f 1479/3/5 1476/3/5 1475/3/5
f 1479/3/5 1475/3/5 1474/3/5
f 1479/3/5 1474/3/5 1473/3/5
f 1480/3/5 1478/3/5 1479/3/5
f 1481/3/5 1478/3/5 1480/3/5
f 1482/3/5 1478/3/5 1481/3/5
f 1483/1/5 1480/1/5 1479/1/5
f 1483/3/5 1481/3/5 1480/3/5
f 1484/1/5 1482/1/5 1481/1/5
f 1484/3/5 1481/3/5 1483/3/5
f 1485/3/5 1479/3/5 1473/3/5
f 1485/1/5 1483/1/5 1479/1/5
f 1485/1/5 1484/1/5 1483/1/5
f 1486/1/5 1482/1/5 1484/1/5
f 1486/1/5 1484/1/5 1485/1/5
f 1486/3/5 1478/3/5 1482/3/5
f 1487/3/5 1485/3/5 1473/3/5
f 1487/3/5 1486/3/5 1485/3/5
f 1488/3/5 1478/3/5 1486/3/5
f 1488/3/5 1486/3/5 1487/3/5
f 1491/3/5 1490/3/5 1489/3/5
f 1492/3/5 1490/3/5 1491/3/5
f 1497/3/5 1494/3/5 1493/3/5
f 1498/3/5 1494/3/5 1497/3/5
f 1499/3/5 1496/3/5 1495/3/5
f 1500/3/5 1496/3/5 1499/3/5
f 1503/3/5 1502/3/5 1501/3/5
f 1504/3/5 1502/3/5 1503/3/5
f 1505/3/5 1503/3/5 1501/3/5
f 1506/3/5 1503/3/5 1505/3/5
f 1507/3/5 1502/3/5 1504/3/5
f 1508/3/5 1502/3/5 1507/3/5
f 1511/3/5 1510/3/5 1509/3/5
f 1512/3/5 1510/3/5 1511/3/5
f 1513/3/5 1510/3/5 1512/3/5
f 1516/3/5 1515/3/5 1514/3/5
f 1517/3/5 1515/3/5 1516/3/5
f 1518/3/5 1515/3/5 1517/3/5
f 1519/3/5 1515/3/5 1518/3/5
f 1520/1/5 1517/1/5 1516/1/5
f 1521/1/5 1517/1/5 1520/1/5
f 1522/1/5 1519/1/5 1518/1/5
f 1523/1/5 1519/1/5 1522/1/5
f 1530/3/5 1525/3/5 1524/3/5
f 1531/3/5 1527/3/5 1526/3/5
f 1532/3/5 1527/3/5 1531/3/5
f 1533/3/5 1529/3/5 1528/3/5
f 1534/3/5 1529/3/5 1533/3/5
f 1539/3/5 1525/3/5 1530/3/5
f 1540/3/5 1525/3/5 1539/3/5
f 1541/3/5 1536/3/5 1535/3/5
f 1542/3/5 1536/3/5 1541/3/5
f 1543/3/5 1538/3/5 1537/3/5
f 1544/3/5 1538/3/5 1543/3/5
f 1547/3/5 1546/3/5 1545/3/5
f 1548/3/5 1546/3/5 1547/3/5
f 1549/3/5 1546/3/5 1548/3/5
f 1550/3/5 1546/3/5 1549/3/5
f 1551/3/5 1547/3/5 1545/3/5
f 1552/3/5 1547/3/5 1551/3/5
f 1553/3/5 1549/3/5 1548/3/5
f 1554/3/5 1549/3/5 1553/3/5
f 1555/3/5 1546/3/5 1550/3/5
f 1556/3/5 1546/3/5 1555/3/5
f 1559/4/5 1558/4/5 1557/4/5
f 1560/4/5 1558/4/5 1559/4/5
f 1563/4/5 1562/4/5 1561/4/5
f 1564/4/5 1562/4/5 1563/4/5
f 1565/4/5 1562/4/5 1564/4/5
f 1566/4/5 1562/4/5 1565/4/5
f 1567/4/5 1563/4/5 1561/4/5
f 1568/4/5 1563/4/5 1567/4/5
f 1569/4/5 1565/4/5 1564/4/5
f 1570/4/5 1565/4/5 1569/4/5
f 1571/4/5 1562/4/5 1566/4/5
f 1572/4/5 1562/4/5 1571/4/5
f 1575/4/5 1574/4/5 1573/4/5
f 1576/4/5 1574/4/5 1575/4/5
f 1579/4/5 1578/4/5 1577/4/5
f 1580/4/5 1578/4/5 1579/4/5
f 1583/4/5 1582/4/5 1581/4/5
f 1584/4/5 1582/4/5 1583/4/5
f 1587/4/5 1586/4/5 1585/4/5
f 1588/4/5 1586/4/5 1587/4/5
f 1591/4/5 1590/4/5 1589/4/5
f 1592/4/5 1590/4/5 1591/4/5
f 1595/4/5 1594/4/5 1593/4/5
f 1596/4/5 1594/4/5 1595/4/5
f 1599/4/5 1598/4/5 1597/4/5
f 1600/4/5 1598/4/5 1599/4/5
f 1603/4/5 1602/4/5 1601/4/5
f 1604/4/5 1602/4/5 1603/4/5
f 1607/4/5 1606/4/5 1605/4/5
f 1608/4/5 1606/4/5 1607/4/5
f 1611/4/5 1610/4/5 1609/4/5
f 1612/4/5 1610/4/5 1611/4/5
f 1615/4/5 1614/4/5 1613/4/5
f 1616/4/5 1614/4/5 1615/4/5
f 1619/4/5 1618/4/5 1617/4/5
f 1620/4/5 1618/4/5 1619/4/5
f 1623/4/5 1622/4/5 1621/4/5
f 1624/4/5 1622/4/5 1623/4/5
f 1627/4/5 1626/4/5 1625/4/5
f 1628/4/5 1626/4/5 1627/4/5
f 1633/3/5 1630/3/5 1629/3/5
f 1633/3/5 1632/3/5 1631/3/5
f 1633/3/5 1631/3/5 1630/3/5
f 1634/3/5 1632/3/5 1633/3/5
f 1639/4/5 1636/4/5 1635/4/5
f 1640/4/5 1636/4/5 1639/4/5
f 1641/4/5 1638/4/5 1637/4/5
f 1642/4/5 1638/4/5 1641/4/5
f 1643/4/5 1636/4/5 1640/4/5
f 1644/4/5 1636/4/5 1643/4/5
f 1649/4/5 1641/4/5 1637/4/5
f 1650/4/5 1641/4/5 1649/4/5
f 1651/3/5 1648/3/5 1647/3/5
f 1651/3/5 1646/3/5 1645/3/5
f 1651/3/5 1647/3/5 1646/3/5
f 1652/3/5 1648/3/5 1651/3/5
f 1655/4/5 1654/4/5 1653/4/5
f 1656/4/5 1654/4/5 1655/4/5
f 1657/4/5 1654/4/5 1656/4/5
f 1658/4/5 1654/4/5 1657/4/5
f 1659/4/5 1654/4/5 1658/4/5
f 1660/4/5 1654/4/5 1659/4/5
f 1661/4/5 1643/4/5 1640/4/5
f 1662/4/5 1643/4/5 1661/4/5
f 1663/4/5 1641/4/5 1650/4/5
f 1664/4/5 1641/4/5 1663/4/5
f 1669/4/5 1666/4/5 1665/4/5
f 1670/4/5 1666/4/5 1669/4/5
f 1671/4/5 1668/4/5 1667/4/5
f 1672/4/5 1668/4/5 1671/4/5
f 1677/4/5 1674/4/5 1673/4/5
f 1678/4/5 1674/4/5 1677/4/5
f 1683/4/5 1676/4/5 1675/4/5
f 1684/4/5 1676/4/5 1683/4/5
f 1685/2/5 1679/2/5 1678/2/5
f 1686/2/5 1679/2/5 1685/2/5
f 1687/2/5 1681/2/5 1680/2/5
f 1688/2/5 1681/2/5 1687/2/5
f 1689/2/5 1683/2/5 1682/2/5
f 1690/2/5 1683/2/5 1689/2/5
f 1697/4/5 1692/4/5 1691/4/5
f 1698/4/5 1692/4/5 1697/4/5
f 1700/2/5 1696/2/5 1695/2/5
f 1701/2/5 1696/2/5 1700/2/5
f 1703/4/5 1694/4/5 1693/4/5
f 1704/4/5 1694/4/5 1703/4/5
f 1705/2/5 1702/2/5 1701/2/5
f 1705/2/5 1700/2/5 1699/2/5
f 1705/2/5 1701/2/5 1700/2/5
f 1706/2/5 1702/2/5 1705/2/5
f 1707/1/5 1706/1/5 1705/1/5
f 1708/1/5 1706/1/5 1707/1/5
f 1713/4/5 1710/4/5 1709/4/5
f 1714/4/5 1710/4/5 1713/4/5
f 1715/4/5 1712/4/5 1711/4/5
f 1716/4/5 1712/4/5 1715/4/5
f 1721/4/5 1718/4/5 1717/4/5
f 1722/4/5 1718/4/5 1721/4/5
f 1723/4/5 1720/4/5 1719/4/5
f 1724/4/5 1720/4/5 1723/4/5
f 1729/4/5 1726/4/5 1725/4/5
f 1730/4/5 1726/4/5 1729/4/5
f 1731/4/5 1728/4/5 1727/4/5
f 1732/4/5 1728/4/5 1731/4/5
f 1737/4/5 1734/4/5 1733/4/5
f 1738/4/5 1734/4/5 1737/4/5
f 1739/4/5 1736/4/5 1735/4/5
f 1740/4/5 1736/4/5 1739/4/5
f 1745/4/5 1742/4/5 1741/4/5
f 1746/4/5 1742/4/5 1745/4/5
f 1747/4/5 1744/4/5 1743/4/5
f 1748/4/5 1744/4/5 1747/4/5
f 1753/4/5 1750/4/5 1749/4/5
f 1754/4/5 1750/4/5 1753/4/5
f 1755/4/5 1752/4/5 1751/4/5
f 1756/4/5 1752/4/5 1755/4/5
f 1761/4/5 1758/4/5 1757/4/5
f 1762/4/5 1758/4/5 1761/4/5
f 1763/4/5 1760/4/5 1759/4/5
f 1764/4/5 1760/4/5 1763/4/5
f 1767/4/5 1766/4/5 1765/4/5
f 1768/4/5 1766/4/5 1767/4/5
f 1771/4/5 1770/4/5 1769/4/5
f 1772/4/5 1770/4/5 1771/4/5
f 1775/4/5 1774/4/5 1773/4/5
f 1776/4/5 1774/4/5 1775/4/5
f 1781/3/6 1782/3/6 1783/3/6
f 1783/3/6 1782/3/6 1784/3/6
f 1777/3/6 1778/3/6 1785/3/6
f 1785/3/6 1778/3/6 1786/3/6
f 1779/3/6 1780/3/6 1787/3/6
f 1787/3/6 1780/3/6 1788/3/6
f 1789/3/6 1790/3/6 1791/3/6
f 1791/3/6 1790/3/6 1792/3/6
f 1792/3/6 1790/3/6 1793/3/6
f 1793/3/6 1790/3/6 1794/3/6
f 1791/1/6 1792/1/6 1795/1/6
f 1795/1/6 1792/1/6 1796/1/6
f 1793/1/6 1794/1/6 1797/1/6
f 1797/1/6 1794/1/6 1798/1/6
f 1799/3/6 1800/3/6 1801/3/6
f 1801/3/6 1800/3/6 1802/3/6
f 1802/3/6 1800/3/6 1803/3/6
f 1804/3/6 1805/3/6 1808/3/6
f 1808/3/6 1805/3/6 1809/3/6
f 1806/3/6 1807/3/6 1810/3/6
f 1810/3/6 1807/3/6 1811/3/6
f 1812/3/6 1813/3/6 1814/3/6
f 1814/3/6 1813/3/6 1815/3/6
f 1815/3/6 1813/3/6 1816/3/6
f 1816/3/6 1813/3/6 1817/3/6
f 1817/3/6 1813/3/6 1818/3/6
f 1818/3/6 1813/3/6 1819/3/6
f 1815/3/6 1816/3/6 1820/3/6
f 1820/3/6 1816/3/6 1821/3/6
f 1817/3/6 1818/3/6 1822/3/6
f 1822/3/6 1818/3/6 1823/3/6
f 1824/3/6 1825/3/6 1826/3/6
f 1826/3/6 1825/3/6 1827/3/6
f 1827/3/6 1825/3/6 1828/3/6
f 1829/3/6 1830/3/6 1835/3/6
f 1835/3/6 1830/3/6 1836/3/6
f 1831/3/6 1832/3/6 1837/3/6
f 1837/3/6 1832/3/6 1838/3/6
f 1833/3/6 1834/3/6 1839/3/6
f 1839/3/6 1834/3/6 1840/3/6
f 1841/4/6 1842/4/6 1843/4/6
f 1843/4/6 1842/4/6 1844/4/6
f 1845/4/6 1846/4/6 1847/4/6
f 1847/4/6 1846/4/6 1848/4/6
f 1849/4/6 1850/4/6 1851/4/6
f 1851/4/6 1850/4/6 1852/4/6
f 1853/4/6 1854/4/6 1855/4/6
f 1855/4/6 1854/4/6 1856/4/6
f 1857/4/6 1858/4/6 1859/4/6
f 1859/4/6 1858/4/6 1860/4/6
f 1861/4/6 1862/4/6 1863/4/6
f 1863/4/6 1862/4/6 1864/4/6
f 1865/4/6 1866/4/6 1867/4/6
f 1867/4/6 1866/4/6 1868/4/6
f 1869/4/6 1870/4/6 1871/4/6
f 1871/4/6 1870/4/6 1872/4/6
f 1873/4/6 1874/4/6 1875/4/6
f 1875/4/6 1874/4/6 1876/4/6
f 1877/4/6 1878/4/6 1879/4/6
f 1879/4/6 1878/4/6 1880/4/6
f 1881/4/6 1882/4/6 1883/4/6
f 1883/4/6 1882/4/6 1884/4/6
f 1885/4/6 1886/4/6 1887/4/6
f 1887/4/6 1886/4/6 1888/4/6
f 1889/4/6 1890/4/6 1891/4/6
f 1891/4/6 1890/4/6 1892/4/6
f 1893/4/6 1894/4/6 1895/4/6
f 1895/4/6 1894/4/6 1896/4/6
f 1897/4/6 1898/4/6 1899/4/6
f 1899/4/6 1898/4/6 1900/4/6
f 1900/4/6 1898/4/6 1901/4/6
f 1901/4/6 1898/4/6 1902/4/6
f 1897/4/6 1899/4/6 1903/4/6
f 1903/4/6 1899/4/6 1904/4/6
f 1904/4/6 1899/4/6 1905/4/6
f 1900/4/6 1901/4/6 1906/4/6
f 1906/4/6 1901/4/6 1907/4/6
f 1902/4/6 1898/4/6 1908/4/6
f 1908/4/6 1898/4/6 1909/4/6
f 1909/4/6 1898/4/6 1910/4/6
f 1911/4/6 1912/4/6 1913/4/6
f 1913/4/6 1912/4/6 1914/4/6
f 1917/4/6 1918/4/6 1923/4/6
f 1918/4/6 1919/4/6 1923/4/6
f 1919/4/6 1920/4/6 1923/4/6
f 1923/4/6 1920/4/6 1924/4/6
f 1915/4/6 1916/4/6 1925/4/6
f 1925/4/6 1916/4/6 1926/4/6
f 1923/4/6 1924/4/6 1927/4/6
f 1927/4/6 1924/4/6 1928/4/6
f 1921/4/6 1922/4/6 1929/4/6
f 1929/4/6 1922/4/6 1930/4/6
f 1931/4/6 1932/4/6 1933/4/6
f 1933/4/6 1932/4/6 1934/4/6
f 1935/4/6 1936/4/6 1939/4/6
f 1939/4/6 1936/4/6 1940/4/6
f 1940/4/6 1936/4/6 1941/4/6
f 1941/4/6 1936/4/6 1942/4/6
f 1935/4/6 1939/4/6 1943/4/6
f 1943/4/6 1939/4/6 1944/4/6
f 1940/4/6 1941/4/6 1945/4/6
f 1945/4/6 1941/4/6 1946/4/6
f 1942/4/6 1936/4/6 1947/4/6
f 1947/4/6 1936/4/6 1948/4/6
f 1937/4/6 1938/4/6 1949/4/6
f 1949/4/6 1938/4/6 1950/4/6
f 1951/4/6 1952/4/6 1953/4/6
f 1953/4/6 1952/4/6 1954/4/6
f 1955/3/6 1956/3/6 1959/3/6
f 1957/3/6 1958/3/6 1959/3/6
f 1956/3/6 1957/3/6 1959/3/6
f 1959/3/6 1958/3/6 1960/3/6
f 1965/4/6 1966/4/6 1969/4/6
f 1961/4/6 1962/4/6 1969/4/6
f 1964/4/6 1965/4/6 1969/4/6
f 1963/4/6 1964/4/6 1969/4/6
f 1962/4/6 1963/4/6 1969/4/6
f 1969/4/6 1966/4/6 1970/4/6
f 1967/4/6 1968/4/6 1971/4/6
f 1971/4/6 1968/4/6 1972/4/6
f 1973/4/6 1974/4/6 1975/4/6
f 1975/4/6 1974/4/6 1976/4/6
f 1977/4/6 1978/4/6 1981/4/6
f 1981/4/6 1978/4/6 1982/4/6
f 1979/4/6 1980/4/6 1983/4/6
f 1983/4/6 1980/4/6 1984/4/6
f 1985/4/6 1986/4/6 1987/4/6
f 1987/4/6 1986/4/6 1988/4/6
f 1989/4/6 1990/4/6 1993/4/6
f 1993/4/6 1990/4/6 1994/4/6
f 1991/4/6 1992/4/6 1997/4/6
f 1997/4/6 1992/4/6 1998/4/6
f 1999/3/6 2000/3/6 2003/3/6
f 2001/3/6 2002/3/6 2003/3/6
f 2000/3/6 2001/3/6 2003/3/6
f 2003/3/6 2002/3/6 2004/3/6
f 2005/4/6 2006/4/6 2007/4/6
f 2007/4/6 2006/4/6 2008/4/6
f 1994/4/6 1995/4/6 2010/4/6
f 1996/4/6 1997/4/6 2011/4/6
f 2009/4/6 2010/4/6 2013/4/6
f 2010/4/6 1995/4/6 2014/4/6
f 2013/4/6 2010/4/6 2014/4/6
f 1996/4/6 2011/4/6 2015/4/6
f 2011/4/6 2012/4/6 2015/4/6
f 2015/4/6 2012/4/6 2016/4/6
f 2017/4/6 2018/4/6 2019/4/6
f 2019/4/6 2018/4/6 2020/4/6
f 2021/4/6 2022/4/6 2025/4/6
f 2025/4/6 2022/4/6 2026/4/6
f 2023/4/6 2024/4/6 2033/4/6
f 2033/4/6 2024/4/6 2034/4/6
f 2028/2/6 2029/2/6 2035/2/6
f 2035/2/6 2029/2/6 2036/2/6
f 2030/2/6 2031/2/6 2037/2/6
f 2037/2/6 2031/2/6 2038/2/6
f 2026/4/6 2027/4/6 2040/4/6
f 2032/4/6 2033/4/6 2041/4/6
f 2039/4/6 2040/4/6 2045/4/6
f 2040/4/6 2027/4/6 2046/4/6
f 2045/4/6 2040/4/6 2046/4/6
f 2043/4/6 2044/4/6 2047/4/6
f 2047/4/6 2044/4/6 2048/4/6
f 2032/4/6 2041/4/6 2049/4/6
f 2041/4/6 2042/4/6 2049/4/6
f 2049/4/6 2042/4/6 2050/4/6
f 2051/4/6 2052/4/6 2053/4/6
f 2053/4/6 2052/4/6 2054/4/6
f 2055/4/6 2056/4/6 2059/4/6
f 2059/4/6 2056/4/6 2060/4/6
f 2057/4/6 2058/4/6 2065/4/6
f 2065/4/6 2058/4/6 2066/4/6
f 2062/2/6 2063/2/6 2067/2/6
f 2067/2/6 2063/2/6 2068/2/6
f 2060/4/6 2061/4/6 2070/4/6
f 2070/4/6 2061/4/6 2071/4/6
f 2064/4/6 2065/4/6 2074/4/6
f 2074/4/6 2065/4/6 2075/4/6
f 2074/4/6 2075/4/6 2077/4/6
f 2075/4/6 2076/4/6 2077/4/6
f 2073/4/6 2074/4/6 2077/4/6
f 2072/4/6 2073/4/6 2077/4/6
f 2070/4/6 2071/4/6 2077/4/6
f 2069/4/6 2070/4/6 2077/4/6
f 2071/4/6 2072/4/6 2077/4/6
f 2077/4/6 2076/4/6 2078/4/6
f 2079/4/6 2080/4/6 2081/4/6
f 2081/4/6 2080/4/6 2082/4/6
f 2083/4/6 2084/4/6 2087/4/6
f 2087/4/6 2084/4/6 2088/4/6
f 2085/4/6 2086/4/6 2091/4/6
f 2091/4/6 2086/4/6 2092/4/6
f 2088/4/6 2089/4/6 2093/4/6
f 2093/4/6 2089/4/6 2094/4/6
f 2090/4/6 2091/4/6 2095/4/6
f 2095/4/6 2091/4/6 2096/4/6
f 2097/4/6 2098/4/6 2099/4/6
f 2099/4/6 2098/4/6 2100/4/6
f 2101/4/6 2102/4/6 2105/4/6
f 2105/4/6 2102/4/6 2106/4/6
f 2103/4/6 2104/4/6 2109/4/6
f 2109/4/6 2104/4/6 2110/4/6
f 2106/4/6 2107/4/6 2111/4/6
f 2111/4/6 2112/4/6 2113/4/6
f 2106/4/6 2111/4/6 2115/4/6
f 2113/4/6 2114/4/6 2115/4/6
f 2111/4/6 2113/4/6 2115/4/6
f 2115/4/6 2114/4/6 2116/4/6
f 2108/4/6 2109/4/6 2117/4/6
f 2117/4/6 2109/4/6 2118/4/6
f 2119/4/6 2120/4/6 2123/4/6
f 2123/4/6 2120/4/6 2124/4/6
f 2121/4/6 2122/4/6 2125/4/6
f 2125/4/6 2122/4/6 2126/4/6
f 2124/4/6 2120/4/6 2127/4/6
f 2127/4/6 2120/4/6 2128/4/6
f 2129/4/6 2130/4/6 2133/4/6
f 2133/4/6 2130/4/6 2134/4/6
f 2134/4/6 2130/4/6 2135/4/6
f 2135/4/6 2130/4/6 2136/4/6
f 2131/4/6 2132/4/6 2137/4/6
f 2137/4/6 2132/4/6 2138/4/6
f 2139/4/6 2140/4/6 2143/4/6
f 2143/4/6 2140/4/6 2144/4/6
f 2141/4/6 2142/4/6 2145/4/6
f 2145/4/6 2142/4/6 2146/4/6
f 2147/4/6 2148/4/6 2149/4/6
f 2149/4/6 2148/4/6 2150/4/6
f 2151/4/6 2152/4/6 2153/4/6
f 2153/4/6 2152/4/6 2154/4/6
f 2151/4/6 2153/4/6 2155/4/6
f 2155/4/6 2153/4/6 2156/4/6
f 2154/4/6 2152/4/6 2157/4/6
f 2157/4/6 2152/4/6 2158/4/6
f 2159/4/6 2160/4/6 2163/4/6
f 2163/4/6 2160/4/6 2164/4/6
f 2161/4/6 2162/4/6 2165/4/6
f 2165/4/6 2162/4/6 2166/4/6
f 2156/4/6 2157/4/6 2167/4/6
f 2167/4/6 2157/4/6 2168/4/6
f 2169/4/6 2170/4/6 2171/4/6
f 2171/4/6 2170/4/6 2172/4/6
f 2173/4/6 2174/4/6 2175/4/6
f 2175/4/6 2174/4/6 2176/4/6
