# MagicaVoxel @ Ephtracy

# group
o 

# material
mtllib player.mtl
usemtl palette

# normals
vn -1 0 0
vn 1 0 0
vn 0 0 1
vn 0 0 -1
vn 0 -1 0
vn 0 1 0

# texcoords
vt 0.0332031 0.5
vt 0.0410156 0.5
vt 0.0644531 0.5
vt 0.0683594 0.5
vt 0.205078 0.5
vt 0.369141 0.5
vt 0.603516 0.5
vt 0.623047 0.5
vt 0.958984 0.5
vt 0.966797 0.5
vt 0.970703 0.5
vt 0.974609 0.5
vt 0.978516 0.5
vt 0.994141 0.5

# verts
v -0.4 0.3 -2.98023e-08
v -0.4 0.3 -0.1
v -0.4 0.4 -2.98023e-08
v -0.4 0.4 -0.1
v -0.4 0.5 -2.98023e-08
v -0.4 0.5 -0.1
v -0.4 0.6 -2.98023e-08
v -0.4 0.6 -0.1
v -0.4 0.8 -2.98023e-08
v -0.4 0.8 -0.2
v -0.4 0.9 0.2
v -0.4 0.9 0.1
v -0.4 0.9 -0.1
v -0.4 0.9 -0.2
v -0.4 0.9 -0.3
v -0.4 1 0.1
v -0.4 1 -2.98023e-08
v -0.4 1 -0.1
v -0.4 1 -0.2
v -0.4 1.1 0.1
v -0.4 1.1 -2.98023e-08
v -0.4 1.1 -0.1
v -0.4 1.1 -0.2
v -0.4 1.2 0.2
v -0.4 1.2 0.1
v -0.4 1.2 -2.98023e-08
v -0.4 1.2 -0.1
v -0.4 1.2 -0.2
v -0.4 1.2 -0.3
v -0.3 0.5 0.1
v -0.3 0.5 -2.98023e-08
v -0.3 0.6 -2.98023e-08
v -0.3 0.6 -0.1
v -0.3 0.6 -0.2
v -0.3 0.7 0.2
v -0.3 0.7 0.1
v -0.3 0.7 -2.98023e-08
v -0.3 0.7 -0.1
v -0.3 0.7 -0.2
v -0.3 0.7 -0.3
v -0.3 0.8 0.1
v -0.3 0.8 -2.98023e-08
v -0.3 0.8 -0.2
v -0.3 0.8 -0.3
v -0.3 0.9 0.2
v -0.3 0.9 0.1
v -0.3 0.9 -2.98023e-08
v -0.3 0.9 -0.1
v -0.3 0.9 -0.2
v -0.3 0.9 -0.3
v -0.3 0.9 -0.4
v -0.3 1 0.3
v -0.3 1 0.2
v -0.3 1 0.1
v -0.3 1 -2.98023e-08
v -0.3 1 -0.1
v -0.3 1 -0.2
v -0.3 1.1 0.1
v -0.3 1.1 -2.98023e-08
v -0.3 1.1 -0.1
v -0.3 1.1 -0.2
v -0.3 1.2 0.3
v -0.3 1.2 0.2
v -0.3 1.2 0.1
v -0.3 1.2 -2.98023e-08
v -0.3 1.2 -0.1
v -0.3 1.2 -0.2
v -0.3 1.2 -0.3
v -0.3 1.2 -0.4
v -0.3 1.3 0.2
v -0.3 1.3 -0.3
v -0.2 0 -2.98023e-08
v -0.2 0 -0.1
v -0.2 0.2 -2.98023e-08
v -0.2 0.2 -0.1
v -0.2 0.3 0.1
v -0.2 0.3 -2.98023e-08
v -0.2 0.3 -0.1
v -0.2 0.3 -0.2
v -0.2 0.5 0.1
v -0.2 0.5 -2.98023e-08
v -0.2 0.5 -0.1
v -0.2 0.6 0.2
v -0.2 0.6 0.1
v -0.2 0.6 -0.1
v -0.2 0.6 -0.2
v -0.2 0.6 -0.3
v -0.2 0.7 0.2
v -0.2 0.7 0.1
v -0.2 0.7 -2.98023e-08
v -0.2 0.7 -0.2
v -0.2 0.7 -0.3
v -0.2 0.7 -0.4
v -0.2 0.8 0.1
v -0.2 0.8 -2.98023e-08
v -0.2 0.8 -0.3
v -0.2 0.8 -0.4
v -0.2 0.8 -0.5
v -0.2 0.9 -0.3
v -0.2 0.9 -0.4
v -0.2 1.1 -0.4
v -0.2 1.1 -0.5
v -0.2 1.3 0.1
v -0.2 1.3 -0.2
v -0.2 1.4 0.1
v -0.2 1.4 -0.2
v -0.1 0.6 -0.3
v -0.1 0.6 -0.4
v -0.1 0.7 -0.3
v -0.1 0.7 -0.4
v -0.1 0.9 0.2
v -0.1 0.9 0.1
v -0.1 1 0.2
v -0.1 1 0.1
v 0.1 0 -2.98023e-08
v 0.1 0 -0.1
v 0.1 0.2 -2.98023e-08
v 0.1 0.2 -0.1
v 0.1 0.3 -2.98023e-08
v 0.1 0.3 -0.1
v 0.1 0.5 -0.2
v 0.1 0.5 -0.3
v 0.1 0.6 0.2
v 0.1 0.6 0.1
v 0.1 0.6 -0.2
v 0.1 0.6 -0.3
v 0.1 0.7 0.2
v 0.1 0.7 0.1
v 0.1 0.7 -0.3
v 0.1 0.7 -0.4
v 0.1 0.8 -0.3
v 0.1 0.8 -0.4
v 0.1 0.8 -0.5
v 0.1 0.9 -0.3
v 0.1 0.9 -0.5
v 0.2 0.6 -0.3
v 0.2 0.6 -0.4
v 0.2 0.7 0.2
v 0.2 0.7 0.1
v 0.2 0.7 -0.3
v 0.2 0.7 -0.4
v 0.2 0.8 0.1
v 0.2 0.9 0.1
v 0.2 1 0.2
v 0.2 1 0.1
v 0.3 0.3 -2.98023e-08
v 0.3 0.3 -0.1
v 0.3 0.4 -2.98023e-08
v 0.3 0.4 -0.1
v 0.3 0.5 -2.98023e-08
v 0.3 0.5 -0.1
v -0.3 0.3 -2.98023e-08
v -0.3 0.3 -0.1
v -0.3 0.4 -2.98023e-08
v -0.3 0.4 -0.1
v -0.3 0.5 -2.98023e-08
v -0.3 0.5 -0.1
v -0.2 0.7 0.2
v -0.2 0.7 0.1
v -0.2 0.8 0.1
v -0.2 0.9 0.1
v -0.2 1 0.2
v -0.2 1 0.1
v -0.1 0 -2.98023e-08
v -0.1 0 -0.1
v -0.1 0.2 -2.98023e-08
v -0.1 0.2 -0.1
v -0.1 0.3 -2.98023e-08
v -0.1 0.3 -0.1
v -0.1 0.6 0.2
v -0.1 0.6 0.1
v -0.1 0.7 0.2
v -0.1 0.7 0.1
v -0.1 0.7 -0.3
v -0.1 0.7 -0.4
v -0.1 0.8 -0.3
v -0.1 0.8 -0.4
v -0.1 0.8 -0.5
v -0.1 0.9 -0.3
v -0.1 0.9 -0.5
v 0 0.9 0.2
v 0 0.9 0.1
v 0 1 0.2
v 0 1 0.1
v 0.1 0.6 -0.3
v 0.1 0.6 -0.4
v 0.1 0.7 -0.3
v 0.1 0.7 -0.4
v 0.2 0 -2.98023e-08
v 0.2 0 -0.1
v 0.2 0.2 -2.98023e-08
v 0.2 0.2 -0.1
v 0.2 0.3 0.1
v 0.2 0.3 -2.98023e-08
v 0.2 0.3 -0.1
v 0.2 0.3 -0.2
v 0.2 0.5 0.1
v 0.2 0.5 -2.98023e-08
v 0.2 0.5 -0.1
v 0.2 0.5 -0.2
v 0.2 0.5 -0.3
v 0.2 0.6 0.2
v 0.2 0.6 0.1
v 0.2 0.6 -0.1
v 0.2 0.6 -0.3
v 0.2 0.7 0.2
v 0.2 0.7 0.1
v 0.2 0.7 -2.98023e-08
v 0.2 0.7 -0.3
v 0.2 0.7 -0.4
v 0.2 0.8 0.1
v 0.2 0.8 -2.98023e-08
v 0.2 0.8 -0.3
v 0.2 0.8 -0.4
v 0.2 0.8 -0.5
v 0.2 0.9 -0.3
v 0.2 0.9 -0.4
v 0.2 1.1 -0.4
v 0.2 1.1 -0.5
v 0.2 1.3 0.1
v 0.2 1.3 -0.1
v 0.2 1.3 -0.2
v 0.2 1.4 0.1
v 0.2 1.4 -0.2
v 0.3 0.5 0.1
v 0.3 0.5 -2.98023e-08
v 0.3 0.6 -2.98023e-08
v 0.3 0.6 -0.1
v 0.3 0.6 -0.4
v 0.3 0.7 0.2
v 0.3 0.7 0.1
v 0.3 0.7 -2.98023e-08
v 0.3 0.7 -0.1
v 0.3 0.7 -0.2
v 0.3 0.7 -0.3
v 0.3 0.7 -0.4
v 0.3 0.8 0.1
v 0.3 0.8 -2.98023e-08
v 0.3 0.8 -0.1
v 0.3 0.8 -0.2
v 0.3 0.8 -0.3
v 0.3 0.9 0.2
v 0.3 0.9 0.1
v 0.3 0.9 -2.98023e-08
v 0.3 0.9 -0.1
v 0.3 0.9 -0.2
v 0.3 0.9 -0.3
v 0.3 0.9 -0.4
v 0.3 1 0.3
v 0.3 1 0.2
v 0.3 1 0.1
v 0.3 1 -2.98023e-08
v 0.3 1 -0.1
v 0.3 1 -0.2
v 0.3 1.1 0.3
v 0.3 1.1 0.2
v 0.3 1.1 0.1
v 0.3 1.1 -2.98023e-08
v 0.3 1.1 -0.1
v 0.3 1.1 -0.2
v 0.3 1.2 0.3
v 0.3 1.2 0.2
v 0.3 1.2 0.1
v 0.3 1.2 -2.98023e-08
v 0.3 1.2 -0.1
v 0.3 1.2 -0.2
v 0.3 1.2 -0.3
v 0.3 1.2 -0.4
v 0.3 1.3 0.2
v 0.3 1.3 -0.1
v 0.3 1.3 -0.3
v 0.4 0.3 -2.98023e-08
v 0.4 0.3 -0.1
v 0.4 0.4 -2.98023e-08
v 0.4 0.4 -0.1
v 0.4 0.5 -2.98023e-08
v 0.4 0.5 -0.1
v 0.4 0.6 -2.98023e-08
v 0.4 0.6 -0.1
v 0.4 0.7 -0.1
v 0.4 0.7 -0.2
v 0.4 0.8 0.1
v 0.4 0.8 -0.1
v 0.4 0.8 -0.2
v 0.4 0.9 0.2
v 0.4 0.9 0.1
v 0.4 0.9 -2.98023e-08
v 0.4 0.9 -0.1
v 0.4 0.9 -0.2
v 0.4 0.9 -0.3
v 0.4 1 0.1
v 0.4 1 -2.98023e-08
v 0.4 1 -0.1
v 0.4 1 -0.2
v 0.4 1.1 0.1
v 0.4 1.1 -2.98023e-08
v 0.4 1.1 -0.1
v 0.4 1.1 -0.2
v 0.4 1.2 0.2
v 0.4 1.2 0.1
v 0.4 1.2 -2.98023e-08
v 0.4 1.2 -0.1
v 0.4 1.2 -0.2
v 0.4 1.2 -0.3
v -0.3 1 0.3
v -0.3 1.2 0.3
v 0 1 0.3
v 0 1.2 0.3
v 0.2 1.1 0.3
v 0.2 1.2 0.3
v 0.3 1 0.3
v 0.3 1.1 0.3
v 0.3 1.2 0.3
v -0.4 0.9 0.2
v -0.4 1.2 0.2
v -0.3 0.7 0.2
v -0.3 0.9 0.2
v -0.3 1 0.2
v -0.3 1.2 0.2
v -0.3 1.3 0.2
v -0.2 0.6 0.2
v -0.2 0.7 0.2
v -0.2 1 0.2
v -0.2 1.2 0.2
v -0.2 1.3 0.2
v -0.1 0.6 0.2
v -0.1 0.7 0.2
v -0.1 0.9 0.2
v -0.1 1 0.2
v 0 0.9 0.2
v 0 1 0.2
v 0 1.2 0.2
v 0.1 0.6 0.2
v 0.1 0.7 0.2
v 0.2 0.6 0.2
v 0.2 0.7 0.2
v 0.2 1 0.2
v 0.2 1.2 0.2
v 0.3 0.7 0.2
v 0.3 0.9 0.2
v 0.3 1 0.2
v 0.3 1.1 0.2
v 0.3 1.2 0.2
v 0.3 1.3 0.2
v 0.4 0.9 0.2
v 0.4 1.2 0.2
v -0.3 0.5 0.1
v -0.3 0.7 0.1
v -0.2 0.3 0.1
v -0.2 0.5 0.1
v -0.2 0.6 0.1
v -0.2 0.7 0.1
v -0.2 0.8 0.1
v -0.2 0.9 0.1
v -0.2 1 0.1
v -0.2 1.3 0.1
v -0.2 1.4 0.1
v -0.1 0.6 0.1
v -0.1 0.7 0.1
v -0.1 0.8 0.1
v -0.1 0.9 0.1
v -0.1 1 0.1
v -0.1 1.3 0.1
v -0.1 1.4 0.1
v 0 0.9 0.1
v 0 1 0.1
v 0.1 0.6 0.1
v 0.1 0.7 0.1
v 0.1 0.8 0.1
v 0.1 0.9 0.1
v 0.2 0.3 0.1
v 0.2 0.5 0.1
v 0.2 0.6 0.1
v 0.2 0.7 0.1
v 0.2 0.8 0.1
v 0.2 0.9 0.1
v 0.2 1 0.1
v 0.2 1.3 0.1
v 0.2 1.4 0.1
v 0.3 0.5 0.1
v 0.3 0.7 0.1
v 0.3 0.8 0.1
v 0.3 0.9 0.1
v 0.4 0.8 0.1
v 0.4 0.9 0.1
v -0.4 0.3 -2.98023e-08
v -0.4 0.4 -2.98023e-08
v -0.4 0.5 -2.98023e-08
v -0.4 0.6 -2.98023e-08
v -0.4 0.8 -2.98023e-08
v -0.4 1 -2.98023e-08
v -0.4 1.1 -2.98023e-08
v -0.4 1.2 -2.98023e-08
v -0.3 0.3 -2.98023e-08
v -0.3 0.4 -2.98023e-08
v -0.3 0.5 -2.98023e-08
v -0.3 0.6 -2.98023e-08
v -0.3 0.7 -2.98023e-08
v -0.3 0.8 -2.98023e-08
v -0.3 0.9 -2.98023e-08
v -0.3 1 -2.98023e-08
v -0.3 1.1 -2.98023e-08
v -0.3 1.2 -2.98023e-08
v -0.2 0 -2.98023e-08
v -0.2 0.2 -2.98023e-08
v -0.2 0.3 -2.98023e-08
v -0.2 0.7 -2.98023e-08
v -0.2 0.8 -2.98023e-08
v -0.1 0 -2.98023e-08
v -0.1 0.2 -2.98023e-08
v -0.1 0.3 -2.98023e-08
v 0.1 0 -2.98023e-08
v 0.1 0.2 -2.98023e-08
v 0.1 0.3 -2.98023e-08
v 0.2 0 -2.98023e-08
v 0.2 0.2 -2.98023e-08
v 0.2 0.3 -2.98023e-08
v 0.2 0.7 -2.98023e-08
v 0.2 0.8 -2.98023e-08
v 0.3 0.3 -2.98023e-08
v 0.3 0.4 -2.98023e-08
v 0.3 0.5 -2.98023e-08
v 0.3 0.6 -2.98023e-08
v 0.3 0.7 -2.98023e-08
v 0.3 0.8 -2.98023e-08
v 0.3 0.9 -2.98023e-08
v 0.3 1 -2.98023e-08
v 0.3 1.1 -2.98023e-08
v 0.3 1.2 -2.98023e-08
v 0.4 0.3 -2.98023e-08
v 0.4 0.4 -2.98023e-08
v 0.4 0.5 -2.98023e-08
v 0.4 0.6 -2.98023e-08
v 0.4 0.9 -2.98023e-08
v 0.4 1 -2.98023e-08
v 0.4 1.1 -2.98023e-08
v 0.4 1.2 -2.98023e-08
v -0.4 1 -0.1
v -0.4 1.1 -0.1
v -0.3 1 -0.1
v -0.3 1.1 -0.1
v 0.3 0.7 -0.1
v 0.3 0.8 -0.1
v 0.3 1 -0.1
v 0.3 1.1 -0.1
v 0.4 0.7 -0.1
v 0.4 0.8 -0.1
v 0.4 1 -0.1
v 0.4 1.1 -0.1
v -0.4 0.9 -0.2
v -0.4 1 -0.2
v -0.4 1.1 -0.2
v -0.4 1.2 -0.2
v -0.3 0.9 -0.2
v -0.3 1 -0.2
v -0.3 1.1 -0.2
v -0.3 1.2 -0.2
v 0.3 0.9 -0.2
v 0.3 1 -0.2
v 0.3 1.1 -0.2
v 0.3 1.2 -0.2
v 0.4 0.9 -0.2
v 0.4 1 -0.2
v 0.4 1.1 -0.2
v 0.4 1.2 -0.2
v -0.4 0.9 0.1
v -0.4 1 0.1
v -0.4 1.1 0.1
v -0.4 1.2 0.1
v -0.3 0.7 0.1
v -0.3 0.8 0.1
v -0.3 0.9 0.1
v -0.3 1 0.1
v -0.3 1.1 0.1
v -0.3 1.2 0.1
v -0.2 0.7 0.1
v -0.2 0.8 0.1
v 0.2 0.7 0.1
v 0.2 0.8 0.1
v 0.3 0.7 0.1
v 0.3 0.8 0.1
v 0.3 0.9 0.1
v 0.3 1 0.1
v 0.3 1.1 0.1
v 0.3 1.2 0.1
v 0.4 0.9 0.1
v 0.4 1 0.1
v 0.4 1.1 0.1
v 0.4 1.2 0.1
v -0.4 1 -2.98023e-08
v -0.4 1.1 -2.98023e-08
v -0.3 1 -2.98023e-08
v -0.3 1.1 -2.98023e-08
v 0.3 1 -2.98023e-08
v 0.3 1.1 -2.98023e-08
v 0.4 1 -2.98023e-08
v 0.4 1.1 -2.98023e-08
v -0.4 0.3 -0.1
v -0.4 0.4 -0.1
v -0.4 0.5 -0.1
v -0.4 0.6 -0.1
v -0.4 0.9 -0.1
v -0.4 1 -0.1
v -0.4 1.1 -0.1
v -0.4 1.2 -0.1
v -0.3 0.3 -0.1
v -0.3 0.4 -0.1
v -0.3 0.5 -0.1
v -0.3 0.6 -0.1
v -0.3 0.9 -0.1
v -0.3 1 -0.1
v -0.3 1.1 -0.1
v -0.3 1.2 -0.1
v -0.2 0 -0.1
v -0.2 0.2 -0.1
v -0.2 0.3 -0.1
v -0.2 0.5 -0.1
v -0.2 0.6 -0.1
v -0.1 0 -0.1
v -0.1 0.2 -0.1
v -0.1 0.3 -0.1
v 0.1 0 -0.1
v 0.1 0.2 -0.1
v 0.1 0.3 -0.1
v 0.2 0 -0.1
v 0.2 0.2 -0.1
v 0.2 0.3 -0.1
v 0.2 0.5 -0.1
v 0.2 0.6 -0.1
v 0.3 0.3 -0.1
v 0.3 0.4 -0.1
v 0.3 0.5 -0.1
v 0.3 0.6 -0.1
v 0.3 0.9 -0.1
v 0.3 1 -0.1
v 0.3 1.1 -0.1
v 0.3 1.2 -0.1
v 0.4 0.3 -0.1
v 0.4 0.4 -0.1
v 0.4 0.5 -0.1
v 0.4 0.6 -0.1
v 0.4 0.9 -0.1
v 0.4 1 -0.1
v 0.4 1.1 -0.1
v 0.4 1.2 -0.1
v -0.4 0.8 -0.2
v -0.4 0.9 -0.2
v -0.3 0.6 -0.2
v -0.3 0.7 -0.2
v -0.3 0.8 -0.2
v -0.3 0.9 -0.2
v -0.2 0.3 -0.2
v -0.2 0.6 -0.2
v -0.2 0.7 -0.2
v -0.2 1.3 -0.2
v -0.2 1.4 -0.2
v -0.1 1.3 -0.2
v -0.1 1.4 -0.2
v 0.1 0.5 -0.2
v 0.1 0.6 -0.2
v 0.2 0.3 -0.2
v 0.2 0.5 -0.2
v 0.2 1.3 -0.2
v 0.2 1.4 -0.2
v 0.3 0.7 -0.2
v 0.3 0.8 -0.2
v 0.3 0.9 -0.2
v 0.4 0.7 -0.2
v 0.4 0.8 -0.2
v 0.4 0.9 -0.2
v -0.4 0.9 -0.3
v -0.4 1.2 -0.3
v -0.3 0.7 -0.3
v -0.3 0.8 -0.3
v -0.3 0.9 -0.3
v -0.3 1.2 -0.3
v -0.3 1.3 -0.3
v -0.2 0.6 -0.3
v -0.2 0.7 -0.3
v -0.2 0.8 -0.3
v -0.2 0.9 -0.3
v -0.1 0.6 -0.3
v -0.1 0.7 -0.3
v -0.1 0.8 -0.3
v -0.1 0.9 -0.3
v 0.1 0.5 -0.3
v 0.1 0.6 -0.3
v 0.1 0.7 -0.3
v 0.1 0.8 -0.3
v 0.1 0.9 -0.3
v 0.2 0.5 -0.3
v 0.2 0.6 -0.3
v 0.2 0.7 -0.3
v 0.2 0.8 -0.3
v 0.2 0.9 -0.3
v 0.3 0.7 -0.3
v 0.3 0.8 -0.3
v 0.3 0.9 -0.3
v 0.3 1.2 -0.3
v 0.3 1.3 -0.3
v 0.4 0.9 -0.3
v 0.4 1.2 -0.3
v -0.3 0.9 -0.4
v -0.3 1.2 -0.4
v -0.2 0.7 -0.4
v -0.2 0.8 -0.4
v -0.2 0.9 -0.4
v -0.2 1.1 -0.4
v -0.1 0.6 -0.4
v -0.1 0.7 -0.4
v -0.1 0.8 -0.4
v 0.1 0.6 -0.4
v 0.1 0.7 -0.4
v 0.1 0.8 -0.4
v 0.2 0.6 -0.4
v 0.2 0.7 -0.4
v 0.2 0.8 -0.4
v 0.2 0.9 -0.4
v 0.2 1.1 -0.4
v 0.3 0.6 -0.4
v 0.3 0.7 -0.4
v 0.3 0.9 -0.4
v 0.3 1.2 -0.4
v -0.2 0.8 -0.5
v -0.2 1.1 -0.5
v -0.1 0.8 -0.5
v -0.1 0.9 -0.5
v 0.1 0.8 -0.5
v 0.1 0.9 -0.5
v 0.2 0.8 -0.5
v 0.2 1.1 -0.5
v -0.2 0 -2.98023e-08
v -0.1 0 -2.98023e-08
v 0.1 0 -2.98023e-08
v 0.2 0 -2.98023e-08
v -0.2 0 -0.1
v -0.1 0 -0.1
v 0.1 0 -0.1
v 0.2 0 -0.1
v -0.2 0.3 0.1
v 0.2 0.3 0.1
v -0.4 0.3 -2.98023e-08
v -0.3 0.3 -2.98023e-08
v -0.2 0.3 -2.98023e-08
v -0.1 0.3 -2.98023e-08
v 0.1 0.3 -2.98023e-08
v 0.2 0.3 -2.98023e-08
v 0.3 0.3 -2.98023e-08
v 0.4 0.3 -2.98023e-08
v -0.4 0.3 -0.1
v -0.3 0.3 -0.1
v -0.2 0.3 -0.1
v -0.1 0.3 -0.1
v 0.1 0.3 -0.1
v 0.2 0.3 -0.1
v 0.3 0.3 -0.1
v 0.4 0.3 -0.1
v -0.2 0.3 -0.2
v 0.2 0.3 -0.2
v -0.3 0.5 0.1
v -0.2 0.5 0.1
v 0.2 0.5 0.1
v 0.3 0.5 0.1
v -0.3 0.5 -2.98023e-08
v -0.2 0.5 -2.98023e-08
v 0.2 0.5 -2.98023e-08
v 0.3 0.5 -2.98023e-08
v -0.3 0.5 -0.1
v -0.2 0.5 -0.1
v 0.2 0.5 -0.1
v 0.3 0.5 -0.1
v 0.1 0.5 -0.2
v 0.2 0.5 -0.2
v 0.1 0.5 -0.3
v 0.2 0.5 -0.3
v -0.2 0.6 0.2
v -0.1 0.6 0.2
v 0.1 0.6 0.2
v 0.2 0.6 0.2
v -0.2 0.6 0.1
v -0.1 0.6 0.1
v 0.1 0.6 0.1
v 0.2 0.6 0.1
v -0.3 0.6 -0.1
v -0.2 0.6 -0.1
v 0.2 0.6 -0.1
v 0.3 0.6 -0.1
v -0.3 0.6 -0.2
v -0.2 0.6 -0.2
v 0.1 0.6 -0.2
v -0.2 0.6 -0.3
v -0.1 0.6 -0.3
v 0.1 0.6 -0.3
v 0.2 0.6 -0.3
v -0.1 0.6 -0.4
v 0.1 0.6 -0.4
v 0.2 0.6 -0.4
v 0.3 0.6 -0.4
v -0.3 0.7 0.2
v -0.2 0.7 0.2
v 0.2 0.7 0.2
v 0.3 0.7 0.2
v -0.3 0.7 0.1
v -0.2 0.7 0.1
v 0.2 0.7 0.1
v 0.3 0.7 0.1
v 0.3 0.7 -0.1
v 0.4 0.7 -0.1
v -0.3 0.7 -0.2
v -0.2 0.7 -0.2
v 0.3 0.7 -0.2
v 0.4 0.7 -0.2
v -0.3 0.7 -0.3
v -0.2 0.7 -0.3
v -0.1 0.7 -0.3
v 0.1 0.7 -0.3
v 0.2 0.7 -0.3
v -0.2 0.7 -0.4
v -0.1 0.7 -0.4
v 0.1 0.7 -0.4
v 0.2 0.7 -0.4
v -0.3 0.8 0.1
v -0.2 0.8 0.1
v 0.2 0.8 0.1
v 0.3 0.8 0.1
v 0.4 0.8 0.1
v -0.4 0.8 -2.98023e-08
v -0.3 0.8 -2.98023e-08
v -0.2 0.8 -2.98023e-08
v 0.2 0.8 -2.98023e-08
v 0.3 0.8 -2.98023e-08
v 0.3 0.8 -0.1
v 0.4 0.8 -0.1
v -0.4 0.8 -0.2
v -0.3 0.8 -0.2
v -0.2 0.8 -0.4
v -0.1 0.8 -0.4
v 0.1 0.8 -0.4
v 0.2 0.8 -0.4
v -0.2 0.8 -0.5
v -0.1 0.8 -0.5
v 0.1 0.8 -0.5
v 0.2 0.8 -0.5
v -0.4 0.9 0.2
v -0.3 0.9 0.2
v -0.1 0.9 0.2
v 0 0.9 0.2
v 0.3 0.9 0.2
v 0.4 0.9 0.2
v -0.4 0.9 0.1
v -0.3 0.9 0.1
v -0.1 0.9 0.1
v 0 0.9 0.1
v 0.3 0.9 0.1
v 0.4 0.9 0.1
v -0.4 0.9 -0.2
v -0.3 0.9 -0.2
v 0.3 0.9 -0.2
v 0.4 0.9 -0.2
v -0.4 0.9 -0.3
v -0.3 0.9 -0.3
v -0.2 0.9 -0.3
v -0.1 0.9 -0.3
v 0.1 0.9 -0.3
v 0.2 0.9 -0.3
v 0.3 0.9 -0.3
v 0.4 0.9 -0.3
v -0.3 0.9 -0.4
v -0.2 0.9 -0.4
v 0.2 0.9 -0.4
v 0.3 0.9 -0.4
v -0.1 0.9 -0.5
v 0.1 0.9 -0.5
v -0.3 1 0.3
v 0 1 0.3
v 0.3 1 0.3
v -0.3 1 0.2
v -0.2 1 0.2
v -0.1 1 0.2
v 0 1 0.2
v 0.2 1 0.2
v 0.3 1 0.2
v -0.4 1 0.1
v -0.3 1 0.1
v -0.2 1 0.1
v -0.1 1 0.1
v 0 1 0.1
v 0.2 1 0.1
v 0.3 1 0.1
v 0.4 1 0.1
v -0.4 1 -2.98023e-08
v -0.3 1 -2.98023e-08
v 0.3 1 -2.98023e-08
v 0.4 1 -2.98023e-08
v -0.4 1 -0.1
v -0.3 1 -0.1
v 0.3 1 -0.1
v 0.4 1 -0.1
v -0.4 1 -0.2
v -0.3 1 -0.2
v 0.3 1 -0.2
v 0.4 1 -0.2
v -0.4 1.1 -2.98023e-08
v -0.3 1.1 -2.98023e-08
v 0.3 1.1 -2.98023e-08
v 0.4 1.1 -2.98023e-08
v -0.4 1.1 -0.1
v -0.3 1.1 -0.1
v 0.3 1.1 -0.1
v 0.4 1.1 -0.1
v -0.4 0.6 -2.98023e-08
v -0.3 0.6 -2.98023e-08
v 0.3 0.6 -2.98023e-08
v 0.4 0.6 -2.98023e-08
v -0.4 0.6 -0.1
v -0.3 0.6 -0.1
v 0.3 0.6 -0.1
v 0.4 0.6 -0.1
v -0.2 0.7 0.2
v -0.1 0.7 0.2
v 0.1 0.7 0.2
v 0.2 0.7 0.2
v -0.3 0.7 0.1
v -0.2 0.7 0.1
v -0.1 0.7 0.1
v 0.1 0.7 0.1
v 0.2 0.7 0.1
v 0.3 0.7 0.1
v -0.3 0.7 -2.98023e-08
v -0.2 0.7 -2.98023e-08
v 0.2 0.7 -2.98023e-08
v 0.3 0.7 -2.98023e-08
v -0.1 0.7 -0.3
v 0.1 0.7 -0.3
v 0.2 0.7 -0.3
v 0.3 0.7 -0.3
v -0.1 0.7 -0.4
v 0.1 0.7 -0.4
v 0.2 0.7 -0.4
v 0.3 0.7 -0.4
v 0.3 0.9 0.1
v 0.4 0.9 0.1
v 0.3 0.9 -2.98023e-08
v 0.4 0.9 -2.98023e-08
v -0.4 0.9 -0.1
v -0.3 0.9 -0.1
v 0.3 0.9 -0.1
v 0.4 0.9 -0.1
v -0.4 0.9 -0.2
v -0.3 0.9 -0.2
v 0.3 0.9 -0.2
v 0.4 0.9 -0.2
v -0.4 1 -2.98023e-08
v -0.3 1 -2.98023e-08
v 0.3 1 -2.98023e-08
v 0.4 1 -2.98023e-08
v -0.4 1 -0.1
v -0.3 1 -0.1
v 0.3 1 -0.1
v 0.4 1 -0.1
v -0.4 1.1 0.1
v -0.3 1.1 0.1
v 0.3 1.1 0.1
v 0.4 1.1 0.1
v -0.4 1.1 -2.98023e-08
v -0.3 1.1 -2.98023e-08
v 0.3 1.1 -2.98023e-08
v 0.4 1.1 -2.98023e-08
v -0.4 1.1 -0.1
v -0.3 1.1 -0.1
v 0.3 1.1 -0.1
v 0.4 1.1 -0.1
v -0.4 1.1 -0.2
v -0.3 1.1 -0.2
v 0.3 1.1 -0.2
v 0.4 1.1 -0.2
v -0.2 1.1 -0.4
v 0.2 1.1 -0.4
v -0.2 1.1 -0.5
v 0.2 1.1 -0.5
v -0.3 1.2 0.3
v 0 1.2 0.3
v 0.2 1.2 0.3
v 0.3 1.2 0.3
v -0.4 1.2 0.2
v -0.3 1.2 0.2
v -0.2 1.2 0.2
v 0 1.2 0.2
v 0.2 1.2 0.2
v 0.3 1.2 0.2
v 0.4 1.2 0.2
v -0.4 1.2 0.1
v -0.3 1.2 0.1
v 0.3 1.2 0.1
v 0.4 1.2 0.1
v -0.4 1.2 -2.98023e-08
v -0.3 1.2 -2.98023e-08
v 0.3 1.2 -2.98023e-08
v 0.4 1.2 -2.98023e-08
v -0.4 1.2 -0.1
v -0.3 1.2 -0.1
v 0.3 1.2 -0.1
v 0.4 1.2 -0.1
v -0.4 1.2 -0.2
v -0.3 1.2 -0.2
v 0.3 1.2 -0.2
v 0.4 1.2 -0.2
v -0.4 1.2 -0.3
v -0.3 1.2 -0.3
v 0.3 1.2 -0.3
v 0.4 1.2 -0.3
v -0.3 1.2 -0.4
v 0.3 1.2 -0.4
v -0.3 1.3 0.2
v -0.2 1.3 0.2
v 0.3 1.3 0.2
v -0.2 1.3 0.1
v -0.1 1.3 0.1
v 0.2 1.3 0.1
v 0.2 1.3 -0.1
v 0.3 1.3 -0.1
v -0.2 1.3 -0.2
v -0.1 1.3 -0.2
v 0.2 1.3 -0.2
v -0.3 1.3 -0.3
v 0.3 1.3 -0.3
v -0.2 1.4 0.1
v -0.1 1.4 0.1
v 0.2 1.4 0.1
v -0.2 1.4 -0.2
v -0.1 1.4 -0.2
v 0.2 1.4 -0.2

# faces
f 3/1/1 2/1/1 1/1/1
f 4/1/1 2/1/1 3/1/1
f 5/7/1 4/7/1 3/7/1
f 6/7/1 4/7/1 5/7/1
f 7/1/1 6/1/1 5/1/1
f 8/1/1 6/1/1 7/1/1
f 13/13/1 10/13/1 9/13/1
f 14/13/1 10/13/1 13/13/1
f 16/13/1 12/13/1 11/13/1
f 17/13/1 13/13/1 9/13/1
f 18/13/1 13/13/1 17/13/1
f 19/13/1 15/13/1 14/13/1
f 20/13/1 16/13/1 11/13/1
f 20/13/1 17/13/1 16/13/1
f 21/13/1 17/13/1 20/13/1
f 22/13/1 19/13/1 18/13/1
f 23/13/1 15/13/1 19/13/1
f 23/13/1 19/13/1 22/13/1
f 24/13/1 20/13/1 11/13/1
f 25/13/1 20/13/1 24/13/1
f 26/13/1 22/13/1 21/13/1
f 27/13/1 22/13/1 26/13/1
f 28/13/1 15/13/1 23/13/1
f 29/13/1 15/13/1 28/13/1
f 32/4/1 31/4/1 30/4/1
f 36/4/1 32/4/1 30/4/1
f 37/7/1 33/7/1 32/7/1
f 37/4/1 32/4/1 36/4/1
f 38/4/1 34/4/1 33/4/1
f 38/7/1 33/7/1 37/7/1
f 39/4/1 34/4/1 38/4/1
f 41/4/1 36/4/1 35/4/1
f 42/4/1 40/4/1 39/4/1
f 42/4/1 39/4/1 38/4/1
f 42/4/1 38/4/1 37/4/1
f 43/4/1 40/4/1 42/4/1
f 44/4/1 40/4/1 43/4/1
f 45/4/1 41/4/1 35/4/1
f 46/2/1 42/2/1 41/2/1
f 46/4/1 41/4/1 45/4/1
f 47/2/1 42/2/1 46/2/1
f 49/12/1 44/12/1 43/12/1
f 50/12/1 44/12/1 49/12/1
f 54/5/1 47/5/1 46/5/1
f 55/5/1 47/5/1 54/5/1
f 56/4/1 49/4/1 48/4/1
f 57/4/1 49/4/1 56/4/1
f 59/12/1 56/12/1 55/12/1
f 60/12/1 56/12/1 59/12/1
f 62/11/1 53/11/1 52/11/1
f 63/11/1 53/11/1 62/11/1
f 64/12/1 59/12/1 58/12/1
f 65/12/1 59/12/1 64/12/1
f 66/13/1 61/13/1 60/13/1
f 67/13/1 61/13/1 66/13/1
f 68/13/1 51/13/1 50/13/1
f 69/13/1 51/13/1 68/13/1
f 70/13/1 67/13/1 66/13/1
f 70/13/1 65/13/1 64/13/1
f 70/13/1 68/13/1 67/13/1
f 70/13/1 66/13/1 65/13/1
f 70/13/1 64/13/1 63/13/1
f 71/13/1 68/13/1 70/13/1
f 74/6/1 73/6/1 72/6/1
f 75/6/1 73/6/1 74/6/1
f 77/1/1 75/1/1 74/1/1
f 78/1/1 75/1/1 77/1/1
f 80/7/1 78/7/1 77/7/1
f 80/7/1 79/7/1 78/7/1
f 80/7/1 77/7/1 76/7/1
f 81/7/1 79/7/1 80/7/1
f 82/7/1 79/7/1 81/7/1
f 85/7/1 79/7/1 82/7/1
f 86/7/1 79/7/1 85/7/1
f 88/4/1 84/4/1 83/4/1
f 89/4/1 84/4/1 88/4/1
f 91/4/1 87/4/1 86/4/1
f 92/4/1 87/4/1 91/4/1
f 94/1/1 90/1/1 89/1/1
f 95/1/1 90/1/1 94/1/1
f 96/4/1 93/4/1 92/4/1
f 97/4/1 93/4/1 96/4/1
f 99/13/1 98/13/1 97/13/1
f 99/13/1 97/13/1 96/13/1
f 100/13/1 98/13/1 99/13/1
f 101/13/1 98/13/1 100/13/1
f 102/13/1 98/13/1 101/13/1
f 105/13/1 104/13/1 103/13/1
f 106/13/1 104/13/1 105/13/1
f 109/4/1 108/4/1 107/4/1
f 110/4/1 108/4/1 109/4/1
f 113/4/1 112/4/1 111/4/1
f 114/4/1 112/4/1 113/4/1
f 117/6/1 116/6/1 115/6/1
f 118/6/1 116/6/1 117/6/1
f 119/1/1 118/1/1 117/1/1
f 120/1/1 118/1/1 119/1/1
f 125/7/1 122/7/1 121/7/1
f 126/7/1 122/7/1 125/7/1
f 127/4/1 124/4/1 123/4/1
f 128/4/1 124/4/1 127/4/1
f 131/4/1 130/4/1 129/4/1
f 132/4/1 130/4/1 131/4/1
f 134/13/1 132/13/1 131/13/1
f 134/13/1 133/13/1 132/13/1
f 135/13/1 133/13/1 134/13/1
f 140/4/1 137/4/1 136/4/1
f 141/4/1 137/4/1 140/4/1
f 142/4/1 139/4/1 138/4/1
f 143/4/1 142/4/1 138/4/1
f 144/4/1 143/4/1 138/4/1
f 145/4/1 143/4/1 144/4/1
f 148/1/1 147/1/1 146/1/1
f 149/1/1 147/1/1 148/1/1
f 150/7/1 149/7/1 148/7/1
f 151/7/1 149/7/1 150/7/1
f 152/1/2 153/1/2 154/1/2
f 154/1/2 153/1/2 155/1/2
f 154/7/2 155/7/2 156/7/2
f 156/7/2 155/7/2 157/7/2
f 158/4/2 159/4/2 160/4/2
f 158/4/2 160/4/2 161/4/2
f 158/4/2 161/4/2 162/4/2
f 162/4/2 161/4/2 163/4/2
f 164/6/2 165/6/2 166/6/2
f 166/6/2 165/6/2 167/6/2
f 166/1/2 167/1/2 168/1/2
f 168/1/2 167/1/2 169/1/2
f 170/4/2 171/4/2 172/4/2
f 172/4/2 171/4/2 173/4/2
f 174/4/2 175/4/2 176/4/2
f 176/4/2 175/4/2 177/4/2
f 176/13/2 177/13/2 179/13/2
f 177/13/2 178/13/2 179/13/2
f 179/13/2 178/13/2 180/13/2
f 181/4/2 182/4/2 183/4/2
f 183/4/2 182/4/2 184/4/2
f 185/4/2 186/4/2 187/4/2
f 187/4/2 186/4/2 188/4/2
f 189/6/2 190/6/2 191/6/2
f 191/6/2 190/6/2 192/6/2
f 191/1/2 192/1/2 194/1/2
f 194/1/2 192/1/2 195/1/2
f 194/7/2 195/7/2 197/7/2
f 195/7/2 196/7/2 197/7/2
f 193/7/2 194/7/2 197/7/2
f 197/7/2 196/7/2 198/7/2
f 198/7/2 196/7/2 199/7/2
f 199/7/2 196/7/2 200/7/2
f 200/7/2 201/7/2 204/7/2
f 199/7/2 200/7/2 204/7/2
f 204/7/2 201/7/2 205/7/2
f 202/4/2 203/4/2 206/4/2
f 206/4/2 203/4/2 207/4/2
f 207/1/2 208/1/2 211/1/2
f 211/1/2 208/1/2 212/1/2
f 209/4/2 210/4/2 213/4/2
f 213/4/2 210/4/2 214/4/2
f 214/13/2 215/13/2 216/13/2
f 213/13/2 214/13/2 216/13/2
f 216/13/2 215/13/2 217/13/2
f 217/13/2 215/13/2 218/13/2
f 218/13/2 215/13/2 219/13/2
f 220/12/2 221/12/2 223/12/2
f 221/12/2 222/12/2 223/12/2
f 223/12/2 222/12/2 224/12/2
f 225/4/2 226/4/2 227/4/2
f 225/4/2 227/4/2 231/4/2
f 227/7/2 228/7/2 232/7/2
f 231/4/2 227/4/2 232/4/2
f 228/4/2 229/4/2 233/4/2
f 232/7/2 228/7/2 233/7/2
f 233/4/2 229/4/2 234/4/2
f 234/4/2 229/4/2 235/4/2
f 235/4/2 229/4/2 236/4/2
f 230/4/2 231/4/2 237/4/2
f 232/3/2 233/3/2 238/3/2
f 238/3/2 233/3/2 239/3/2
f 234/4/2 235/4/2 240/4/2
f 240/4/2 235/4/2 241/4/2
f 230/4/2 237/4/2 242/4/2
f 242/4/2 237/4/2 243/4/2
f 240/12/2 241/12/2 246/12/2
f 246/12/2 241/12/2 247/12/2
f 243/5/2 244/5/2 251/5/2
f 251/5/2 244/5/2 252/5/2
f 245/4/2 246/4/2 253/4/2
f 253/4/2 246/4/2 254/4/2
f 249/10/2 250/10/2 255/10/2
f 255/10/2 250/10/2 256/10/2
f 252/12/2 253/12/2 258/12/2
f 258/12/2 253/12/2 259/12/2
f 255/9/2 256/9/2 261/9/2
f 261/9/2 256/9/2 262/9/2
f 257/12/2 258/12/2 263/12/2
f 263/12/2 258/12/2 264/12/2
f 259/12/2 260/12/2 265/12/2
f 265/12/2 260/12/2 266/12/2
f 247/13/2 248/13/2 267/13/2
f 267/13/2 248/13/2 268/13/2
f 264/12/2 265/12/2 269/12/2
f 263/12/2 264/12/2 269/12/2
f 262/12/2 263/12/2 269/12/2
f 265/13/2 266/13/2 270/13/2
f 269/12/2 265/12/2 270/12/2
f 266/13/2 267/13/2 270/13/2
f 270/13/2 267/13/2 271/13/2
f 272/1/2 273/1/2 274/1/2
f 274/1/2 273/1/2 275/1/2
f 274/7/2 275/7/2 276/7/2
f 276/7/2 275/7/2 277/7/2
f 276/1/2 277/1/2 278/1/2
f 278/1/2 277/1/2 279/1/2
f 280/4/2 281/4/2 283/4/2
f 283/4/2 281/4/2 284/4/2
f 282/12/2 283/12/2 286/12/2
f 283/12/2 284/12/2 286/12/2
f 286/12/2 284/12/2 287/12/2
f 287/12/2 284/12/2 288/12/2
f 288/12/2 284/12/2 289/12/2
f 285/12/2 286/12/2 291/12/2
f 287/12/2 288/12/2 292/12/2
f 292/12/2 288/12/2 293/12/2
f 289/12/2 290/12/2 294/12/2
f 285/12/2 291/12/2 295/12/2
f 291/12/2 292/12/2 295/12/2
f 295/12/2 292/12/2 296/12/2
f 293/12/2 294/12/2 297/12/2
f 294/12/2 290/12/2 298/12/2
f 297/12/2 294/12/2 298/12/2
f 285/12/2 295/12/2 299/12/2
f 299/12/2 295/12/2 300/12/2
f 296/12/2 297/12/2 301/12/2
f 301/12/2 297/12/2 302/12/2
f 298/12/2 290/12/2 303/12/2
f 303/12/2 290/12/2 304/12/2
f 307/11/3 306/11/3 305/11/3
f 308/11/3 306/11/3 307/11/3
f 309/10/3 308/10/3 307/10/3
f 310/10/3 308/10/3 309/10/3
f 311/10/3 309/10/3 307/10/3
f 312/9/3 310/9/3 309/9/3
f 312/10/3 309/10/3 311/10/3
f 313/9/3 310/9/3 312/9/3
f 317/13/3 315/13/3 314/13/3
f 318/13/3 315/13/3 317/13/3
f 319/13/3 315/13/3 318/13/3
f 322/4/3 317/4/3 316/4/3
f 322/4/3 318/4/3 317/4/3
f 323/4/3 318/4/3 322/4/3
f 324/13/3 320/13/3 319/13/3
f 325/13/3 320/13/3 324/13/3
f 326/4/3 322/4/3 321/4/3
f 327/4/3 322/4/3 326/4/3
f 330/4/3 329/4/3 328/4/3
f 331/4/3 329/4/3 330/4/3
f 332/12/3 325/12/3 324/12/3
f 335/4/3 334/4/3 333/4/3
f 336/4/3 334/4/3 335/4/3
f 338/12/3 325/12/3 332/12/3
f 339/4/3 337/4/3 336/4/3
f 340/4/3 337/4/3 339/4/3
f 341/4/3 337/4/3 340/4/3
f 343/12/3 325/12/3 338/12/3
f 344/12/3 325/12/3 343/12/3
f 345/12/3 342/12/3 341/12/3
f 345/12/3 343/12/3 342/12/3
f 345/12/3 341/12/3 340/12/3
f 346/12/3 343/12/3 345/12/3
f 350/4/3 348/4/3 347/4/3
f 351/4/3 348/4/3 350/4/3
f 352/4/3 348/4/3 351/4/3
f 358/7/3 350/7/3 349/7/3
f 358/7/3 351/7/3 350/7/3
f 359/1/3 353/1/3 352/1/3
f 360/14/3 354/14/3 353/14/3
f 360/1/3 353/1/3 359/1/3
f 361/4/3 355/4/3 354/4/3
f 361/14/3 354/14/3 360/14/3
f 362/4/3 355/4/3 361/4/3
f 363/13/3 357/13/3 356/13/3
f 364/13/3 357/13/3 363/13/3
f 365/1/3 360/1/3 359/1/3
f 365/1/3 361/1/3 360/1/3
f 367/7/3 359/7/3 358/7/3
f 367/7/3 358/7/3 349/7/3
f 368/1/3 365/1/3 359/1/3
f 368/7/3 359/7/3 367/7/3
f 369/1/3 365/1/3 368/1/3
f 370/4/3 366/4/3 365/4/3
f 370/1/3 365/1/3 369/1/3
f 371/7/3 367/7/3 349/7/3
f 372/7/3 367/7/3 371/7/3
f 373/7/3 367/7/3 372/7/3
f 374/1/3 369/1/3 368/1/3
f 375/14/3 370/14/3 369/14/3
f 375/1/3 369/1/3 374/1/3
f 376/4/3 366/4/3 370/4/3
f 376/14/3 370/14/3 375/14/3
f 377/4/3 366/4/3 376/4/3
f 378/12/3 364/12/3 363/12/3
f 379/12/3 364/12/3 378/12/3
f 380/4/3 373/4/3 372/4/3
f 380/4/3 374/4/3 373/4/3
f 381/4/3 374/4/3 380/4/3
f 384/12/3 383/12/3 382/12/3
f 385/12/3 383/12/3 384/12/3
f 394/1/3 387/1/3 386/1/3
f 395/7/3 388/7/3 387/7/3
f 395/1/3 387/1/3 394/1/3
f 396/1/3 389/1/3 388/1/3
f 396/7/3 388/7/3 395/7/3
f 397/1/3 389/1/3 396/1/3
f 399/13/3 391/13/3 390/13/3
f 400/13/3 391/13/3 399/13/3
f 401/13/3 391/13/3 400/13/3
f 402/13/3 393/13/3 392/13/3
f 403/13/3 393/13/3 402/13/3
f 407/4/3 399/4/3 398/4/3
f 408/4/3 399/4/3 407/4/3
f 409/6/3 405/6/3 404/6/3
f 410/1/3 406/1/3 405/1/3
f 410/6/3 405/6/3 409/6/3
f 411/1/3 406/1/3 410/1/3
f 415/6/3 413/6/3 412/6/3
f 416/1/3 414/1/3 413/1/3
f 416/6/3 413/6/3 415/6/3
f 417/1/3 414/1/3 416/1/3
f 424/3/3 419/3/3 418/3/3
f 425/3/3 419/3/3 424/3/3
f 430/1/3 421/1/3 420/1/3
f 431/7/3 422/7/3 421/7/3
f 431/1/3 421/1/3 430/1/3
f 432/1/3 423/1/3 422/1/3
f 432/7/3 422/7/3 431/7/3
f 433/1/3 423/1/3 432/1/3
f 434/12/3 427/12/3 426/12/3
f 435/12/3 427/12/3 434/12/3
f 436/12/3 429/12/3 428/12/3
f 437/12/3 429/12/3 436/12/3
f 440/13/3 439/13/3 438/13/3
f 441/13/3 439/13/3 440/13/3
f 446/4/3 443/4/3 442/4/3
f 447/4/3 443/4/3 446/4/3
f 448/12/3 445/12/3 444/12/3
f 449/12/3 445/12/3 448/12/3
f 454/13/3 451/13/3 450/13/3
f 455/13/3 451/13/3 454/13/3
f 456/13/3 453/13/3 452/13/3
f 457/13/3 453/13/3 456/13/3
f 462/12/3 459/12/3 458/12/3
f 463/12/3 459/12/3 462/12/3
f 464/12/3 461/12/3 460/12/3
f 465/12/3 461/12/3 464/12/3
f 466/13/4 467/13/4 472/13/4
f 472/13/4 467/13/4 473/13/4
f 468/13/4 469/13/4 474/13/4
f 474/13/4 469/13/4 475/13/4
f 470/4/4 471/4/4 476/4/4
f 476/4/4 471/4/4 477/4/4
f 478/4/4 479/4/4 480/4/4
f 480/4/4 479/4/4 481/4/4
f 482/12/4 483/12/4 486/12/4
f 486/12/4 483/12/4 487/12/4
f 484/12/4 485/12/4 488/12/4
f 488/12/4 485/12/4 489/12/4
f 490/13/4 491/13/4 492/13/4
f 492/13/4 491/13/4 493/13/4
f 494/12/4 495/12/4 496/12/4
f 496/12/4 495/12/4 497/12/4
f 498/1/4 499/1/4 506/1/4
f 499/7/4 500/7/4 507/7/4
f 506/1/4 499/1/4 507/1/4
f 500/1/4 501/1/4 508/1/4
f 507/7/4 500/7/4 508/7/4
f 508/1/4 501/1/4 509/1/4
f 502/13/4 503/13/4 510/13/4
f 510/13/4 503/13/4 511/13/4
f 504/13/4 505/13/4 512/13/4
f 512/13/4 505/13/4 513/13/4
f 508/1/4 509/1/4 517/1/4
f 517/1/4 509/1/4 518/1/4
f 514/6/4 515/6/4 519/6/4
f 515/1/4 516/1/4 520/1/4
f 519/6/4 515/6/4 520/6/4
f 520/1/4 516/1/4 521/1/4
f 522/6/4 523/6/4 525/6/4
f 523/1/4 524/1/4 526/1/4
f 525/6/4 523/6/4 526/6/4
f 526/1/4 524/1/4 527/1/4
f 528/1/4 529/1/4 532/1/4
f 532/1/4 529/1/4 533/1/4
f 530/1/4 531/1/4 538/1/4
f 531/7/4 532/7/4 539/7/4
f 538/1/4 531/1/4 539/1/4
f 532/1/4 533/1/4 540/1/4
f 539/7/4 532/7/4 540/7/4
f 540/1/4 533/1/4 541/1/4
f 534/12/4 535/12/4 542/12/4
f 542/12/4 535/12/4 543/12/4
f 536/12/4 537/12/4 544/12/4
f 544/12/4 537/12/4 545/12/4
f 546/13/4 547/13/4 550/13/4
f 550/13/4 547/13/4 551/13/4
f 548/4/4 549/4/4 553/4/4
f 553/4/4 549/4/4 554/4/4
f 555/13/4 556/13/4 557/13/4
f 557/13/4 556/13/4 558/13/4
f 552/7/4 553/7/4 559/7/4
f 559/7/4 553/7/4 560/7/4
f 552/7/4 559/7/4 561/7/4
f 561/7/4 559/7/4 562/7/4
f 557/12/4 558/12/4 563/12/4
f 563/12/4 558/12/4 564/12/4
f 565/4/4 566/4/4 568/4/4
f 566/12/4 567/12/4 569/12/4
f 568/4/4 566/4/4 569/4/4
f 569/12/4 567/12/4 570/12/4
f 571/13/4 572/13/4 575/13/4
f 575/13/4 572/13/4 576/13/4
f 573/4/4 574/4/4 579/4/4
f 574/12/4 575/12/4 580/12/4
f 579/4/4 574/4/4 580/4/4
f 580/12/4 575/12/4 581/12/4
f 578/4/4 579/4/4 582/4/4
f 582/4/4 579/4/4 583/4/4
f 583/4/4 584/4/4 588/4/4
f 584/13/4 585/13/4 589/13/4
f 588/4/4 584/4/4 589/4/4
f 589/13/4 585/13/4 590/13/4
f 586/7/4 587/7/4 591/7/4
f 587/3/4 588/3/4 592/3/4
f 591/7/4 587/7/4 592/7/4
f 592/3/4 588/3/4 593/3/4
f 593/4/4 594/4/4 596/4/4
f 594/12/4 595/12/4 597/12/4
f 596/4/4 594/4/4 597/4/4
f 597/12/4 595/12/4 598/12/4
f 576/13/4 577/13/4 599/13/4
f 599/13/4 577/13/4 600/13/4
f 598/12/4 599/12/4 601/12/4
f 601/12/4 599/12/4 602/12/4
f 603/13/4 604/13/4 607/13/4
f 607/13/4 604/13/4 608/13/4
f 605/4/4 606/4/4 610/4/4
f 610/4/4 606/4/4 611/4/4
f 609/4/4 610/4/4 612/4/4
f 612/4/4 610/4/4 613/4/4
f 613/4/4 614/4/4 616/4/4
f 616/4/4 614/4/4 617/4/4
f 608/13/4 604/13/4 619/13/4
f 615/4/4 616/4/4 620/4/4
f 620/4/4 616/4/4 621/4/4
f 618/13/4 619/13/4 622/13/4
f 619/13/4 604/13/4 623/13/4
f 622/13/4 619/13/4 623/13/4
f 624/13/4 625/13/4 626/13/4
f 626/13/4 625/13/4 627/13/4
f 627/13/4 625/13/4 629/13/4
f 628/13/4 629/13/4 630/13/4
f 629/13/4 625/13/4 631/13/4
f 630/13/4 629/13/4 631/13/4
f 636/6/5 633/6/5 632/6/5
f 637/6/5 633/6/5 636/6/5
f 638/6/5 635/6/5 634/6/5
f 639/6/5 635/6/5 638/6/5
f 644/7/5 641/7/5 640/7/5
f 645/7/5 641/7/5 644/7/5
f 646/7/5 641/7/5 645/7/5
f 647/7/5 641/7/5 646/7/5
f 650/1/5 643/1/5 642/1/5
f 651/1/5 643/1/5 650/1/5
f 653/7/5 646/7/5 645/7/5
f 654/7/5 646/7/5 653/7/5
f 656/1/5 649/1/5 648/1/5
f 657/1/5 649/1/5 656/1/5
f 658/7/5 655/7/5 654/7/5
f 658/7/5 653/7/5 652/7/5
f 658/7/5 654/7/5 653/7/5
f 659/7/5 655/7/5 658/7/5
f 664/4/5 661/4/5 660/4/5
f 665/4/5 661/4/5 664/4/5
f 666/4/5 663/4/5 662/4/5
f 667/4/5 663/4/5 666/4/5
f 668/1/5 665/1/5 664/1/5
f 669/1/5 665/1/5 668/1/5
f 670/1/5 667/1/5 666/1/5
f 671/1/5 667/1/5 670/1/5
f 674/7/5 673/7/5 672/7/5
f 675/7/5 673/7/5 674/7/5
f 680/4/5 677/4/5 676/4/5
f 681/4/5 677/4/5 680/4/5
f 682/4/5 679/4/5 678/4/5
f 683/4/5 679/4/5 682/4/5
f 688/4/5 685/4/5 684/4/5
f 689/4/5 685/4/5 688/4/5
f 691/4/5 690/4/5 689/4/5
f 692/4/5 690/4/5 691/4/5
f 693/4/5 690/4/5 692/4/5
f 694/4/5 687/4/5 686/4/5
f 695/4/5 693/4/5 692/4/5
f 696/4/5 693/4/5 695/4/5
f 697/4/5 687/4/5 694/4/5
f 698/4/5 687/4/5 697/4/5
f 703/4/5 700/4/5 699/4/5
f 704/4/5 700/4/5 703/4/5
f 705/4/5 702/4/5 701/4/5
f 706/4/5 702/4/5 705/4/5
f 711/4/5 708/4/5 707/4/5
f 712/4/5 708/4/5 711/4/5
f 713/4/5 710/4/5 709/4/5
f 714/4/5 710/4/5 713/4/5
f 718/4/5 715/4/5 714/4/5
f 719/4/5 715/4/5 718/4/5
f 720/4/5 717/4/5 716/4/5
f 721/4/5 717/4/5 720/4/5
f 728/2/5 723/2/5 722/2/5
f 729/2/5 723/2/5 728/2/5
f 730/4/5 725/4/5 724/4/5
f 731/12/5 726/12/5 725/12/5
f 731/4/5 725/4/5 730/4/5
f 732/12/5 726/12/5 731/12/5
f 733/12/5 726/12/5 732/12/5
f 734/13/5 728/13/5 727/13/5
f 735/13/5 728/13/5 734/13/5
f 740/13/5 737/13/5 736/13/5
f 741/13/5 737/13/5 740/13/5
f 742/13/5 739/13/5 738/13/5
f 743/13/5 739/13/5 742/13/5
f 750/13/5 745/13/5 744/13/5
f 751/13/5 745/13/5 750/13/5
f 752/4/5 747/4/5 746/4/5
f 753/4/5 747/4/5 752/4/5
f 754/12/5 749/12/5 748/12/5
f 755/12/5 749/12/5 754/12/5
f 760/13/5 757/13/5 756/13/5
f 761/13/5 757/13/5 760/13/5
f 766/12/5 759/12/5 758/12/5
f 767/12/5 759/12/5 766/12/5
f 768/13/5 762/13/5 761/13/5
f 769/13/5 762/13/5 768/13/5
f 770/13/5 766/13/5 765/13/5
f 771/13/5 766/13/5 770/13/5
f 772/13/5 764/13/5 763/13/5
f 773/13/5 764/13/5 772/13/5
f 777/11/5 775/11/5 774/11/5
f 778/11/5 775/11/5 777/11/5
f 779/11/5 775/11/5 778/11/5
f 780/10/5 776/10/5 775/10/5
f 780/11/5 775/11/5 779/11/5
f 781/10/5 776/10/5 780/10/5
f 782/10/5 776/10/5 781/10/5
f 785/12/5 779/12/5 778/12/5
f 786/12/5 779/12/5 785/12/5
f 787/12/5 781/12/5 780/12/5
f 788/12/5 781/12/5 787/12/5
f 791/13/5 784/13/5 783/13/5
f 792/13/5 784/13/5 791/13/5
f 793/12/5 790/12/5 789/12/5
f 794/12/5 790/12/5 793/12/5
f 799/13/5 796/13/5 795/13/5
f 800/13/5 796/13/5 799/13/5
f 801/12/5 798/12/5 797/12/5
f 802/12/5 798/12/5 801/12/5
f 807/13/5 804/13/5 803/13/5
f 808/13/5 804/13/5 807/13/5
f 809/12/5 806/12/5 805/12/5
f 810/12/5 806/12/5 809/12/5
f 811/1/6 812/1/6 815/1/6
f 815/1/6 812/1/6 816/1/6
f 813/1/6 814/1/6 817/1/6
f 817/1/6 814/1/6 818/1/6
f 819/4/6 820/4/6 824/4/6
f 824/4/6 820/4/6 825/4/6
f 821/4/6 822/4/6 826/4/6
f 826/4/6 822/4/6 827/4/6
f 823/4/6 824/4/6 829/4/6
f 829/4/6 824/4/6 830/4/6
f 827/4/6 828/4/6 831/4/6
f 831/4/6 828/4/6 832/4/6
f 833/4/6 834/4/6 837/4/6
f 837/4/6 834/4/6 838/4/6
f 835/4/6 836/4/6 839/4/6
f 839/4/6 836/4/6 840/4/6
f 841/12/6 842/12/6 843/12/6
f 843/12/6 842/12/6 844/12/6
f 845/13/6 846/13/6 849/13/6
f 849/13/6 846/13/6 850/13/6
f 847/12/6 848/12/6 851/12/6
f 851/12/6 848/12/6 852/12/6
f 853/13/6 854/13/6 857/13/6
f 857/13/6 854/13/6 858/13/6
f 855/12/6 856/12/6 859/12/6
f 859/12/6 856/12/6 860/12/6
f 861/13/6 862/13/6 865/13/6
f 865/13/6 862/13/6 866/13/6
f 863/12/6 864/12/6 867/12/6
f 867/12/6 864/12/6 868/12/6
f 869/13/6 870/13/6 873/13/6
f 873/13/6 870/13/6 874/13/6
f 871/12/6 872/12/6 875/12/6
f 875/12/6 872/12/6 876/12/6
f 877/13/6 878/13/6 879/13/6
f 879/13/6 878/13/6 880/13/6
f 881/11/6 882/11/6 886/11/6
f 886/11/6 882/11/6 887/11/6
f 882/10/6 883/10/6 888/10/6
f 887/11/6 882/11/6 888/11/6
f 883/9/6 884/9/6 889/9/6
f 888/10/6 883/10/6 889/10/6
f 889/9/6 884/9/6 890/9/6
f 885/13/6 886/13/6 892/13/6
f 892/13/6 886/13/6 893/13/6
f 890/12/6 891/12/6 894/12/6
f 894/12/6 891/12/6 895/12/6
f 896/13/6 897/13/6 900/13/6
f 900/13/6 897/13/6 901/13/6
f 898/12/6 899/12/6 902/12/6
f 902/12/6 899/12/6 903/12/6
f 904/13/6 905/13/6 908/13/6
f 908/13/6 905/13/6 909/13/6
f 906/12/6 907/12/6 910/12/6
f 910/12/6 907/12/6 911/12/6
f 909/13/6 910/13/6 912/13/6
f 912/13/6 910/13/6 913/13/6
f 914/13/6 915/13/6 917/13/6
f 915/12/6 916/12/6 917/12/6
f 917/12/6 916/12/6 918/12/6
f 918/12/6 916/12/6 919/12/6
f 919/12/6 916/12/6 920/12/6
f 920/12/6 916/12/6 921/12/6
f 914/13/6 917/13/6 922/13/6
f 920/13/6 921/13/6 924/13/6
f 922/13/6 923/13/6 925/13/6
f 923/13/6 924/13/6 925/13/6
f 914/13/6 922/13/6 925/13/6
f 924/13/6 921/13/6 926/13/6
f 925/13/6 924/13/6 926/13/6
f 927/13/6 928/13/6 930/13/6
f 928/12/6 929/12/6 931/12/6
f 930/13/6 928/13/6 931/13/6
f 931/12/6 929/12/6 932/12/6
